<?xml version="1.0" encoding="utf-8"?>
<!-- Generator: Adobe Illustrator 17.0.0, SVG Export Plug-In . SVG Version: 6.00 Build 0)  -->
<!DOCTYPE svg PUBLIC "-//W3C//DTD SVG 1.1//EN" "http://www.w3.org/Graphics/SVG/1.1/DTD/svg11.dtd">
<svg version="1.1" id="Layer_1" xmlns:sketch="http://www.bohemiancoding.com/sketch/ns"
	 xmlns="http://www.w3.org/2000/svg" xmlns:xlink="http://www.w3.org/1999/xlink" x="0px" y="0px" width="70px" height="70px"
	 viewBox="0 0 70 70" enable-background="new 0 0 70 70" xml:space="preserve">
<rect x="35" y="33" fill="#0C0C0C" width="2" height="19"/>
<polygon fill="#0C0C0C" points="29,52 27,33 25,33 27,52 "/>
<polygon fill="#0C0C0C" points="47,33 45,33 43,52 45,52 "/>
<path fill="#0C0C0C" d="M23.5,60c-2.485,0-4.5,2.015-4.5,4.5s2.015,4.5,4.5,4.5s4.5-2.015,4.5-4.5S25.985,60,23.5,60z M23.5,67
	c-1.381,0-2.5-1.119-2.5-2.5s1.119-2.5,2.5-2.5s2.5,1.119,2.5,2.5S24.881,67,23.5,67z"/>
<path fill="#0C0C0C" d="M48.5,60c-2.485,0-4.5,2.015-4.5,4.5s2.015,4.5,4.5,4.5s4.5-2.015,4.5-4.5S50.985,60,48.5,60z M48.5,67
	c-1.381,0-2.5-1.119-2.5-2.5s1.119-2.5,2.5-2.5s2.5,1.119,2.5,2.5S49.881,67,48.5,67z"/>
<path fill="#0C0C0C" d="M52.457,56l4.024-27.012H17.54L16.5,22.9h-9v2h7.368l0.984,6.21L19.543,56H52.457z M54.136,31.02
	l-3.401,22.979l-29.47-0.02l-3.404-22.975L54.136,31.02z"/>
</svg>
