<?xml version="1.0" encoding="UTF-8" standalone="no"?>
<svg width="64px" height="64px" viewBox="0 0 64 64" version="1.1" xmlns="http://www.w3.org/2000/svg" xmlns:xlink="http://www.w3.org/1999/xlink" xmlns:sketch="http://www.bohemiancoding.com/sketch/ns">
    <title>kuroneko</title>
    <description>Created with Sketch (http://www.bohemiancoding.com/sketch)</description>
    <defs></defs>
    <g id="Items" stroke="none" stroke-width="1" fill="none" fill-rule="evenodd" sketch:type="MSPage">
        <g id="Artboard-1" sketch:type="MSArtboardGroup" transform="translate(-967.000000, -96.000000)" fill="#F75E50">
            <path d="M1023.37693,115.14052 L1024.0368,114.328449 C1018.18855,109.247413 1009.14333,105.999828 998.987874,105.999828 C992.063411,105.999828 985.686316,107.474415 980.457179,110.083945 L980.896421,111.064091 C985.9952,108.58979 992.224421,107.092839 998.987874,107.092839 C1008.89002,107.092839 1017.69878,110.281022 1023.37693,115.14052 Z M1028.10383,120.950463 C1029.27604,123.173176 1029.8992,125.531816 1029.8992,127.971873 C1029.8992,139.529211 1016.06307,148.875368 998.987874,148.875368 C981.934905,148.875368 968.081937,139.529211 968.081937,127.971873 C968.081937,123.762312 969.931874,119.817966 973.163874,116.547318 L972.403958,115.718125 C969.000168,119.220793 967,123.481721 967,127.971873 C967,140.163773 981.328589,149.999828 998.987874,149.999828 C1016.65457,149.999828 1031,140.163773 1031,127.971873 C1031,125.316568 1030.29937,122.779021 1029.03756,120.388932 L1028.10383,120.950463 Z M995.517053,143.720253 L998.438147,142.697826 L996.781895,134.747985 L992.305263,138.804148 L995.517053,143.720253 Z M984.325811,122.606753 L990.100968,120.05418 L990.043032,121.095126 C989.921095,122.893284 989.605811,124.370666 989.005221,125.697445 C989.280758,125.699192 990.416253,125.628258 992.098779,124.463964 C994.579621,122.879656 995.308547,119.770444 996.143916,116.785628 C996.940211,113.791378 996.824,109.531499 996.824,109.531499 L989.404716,114.49268 L981.213389,114.49268 L975.133389,109.713551 C975.133389,109.713551 974.901305,113.232642 976.174905,117.615171 C977.197895,121.308976 979.598232,122.606753 979.598232,122.606753 L984.325811,122.606753 Z M990.957558,117.342267 C991.340884,117.412852 991.586779,117.79268 991.522442,118.190679 C991.4608,118.591124 991.114189,118.859485 990.728842,118.797636 C990.090189,118.681276 988.747874,118.884993 988.032084,119.279148 C987.690526,119.501384 987.261389,119.361264 987.047158,119.044682 C986.8528,118.697 986.969684,118.246588 987.321347,118.041124 C988.264842,117.474701 989.896505,117.164059 990.957558,117.342267 Z M983.403537,118.041124 C983.744084,118.246588 983.864,118.697 983.660884,119.044682 C983.461474,119.361264 983.033347,119.501384 982.695495,119.279148 C982.011032,118.884993 980.694653,118.681276 980.021642,118.797636 C979.636968,118.859485 979.269137,118.591124 979.205811,118.190679 C979.143832,117.79268 979.401853,117.412852 979.789895,117.342267 C980.851621,117.164059 982.461389,117.474701 983.403537,118.041124 Z M992.419116,124.988106 C991.563874,125.568856 990.848421,125.892077 990.3088,126.075876 C989.812632,126.243602 989.296253,126.350177 988.677137,126.362407 C988.494232,126.688773 988.297853,127.0085 988.077221,127.297477 C986.608253,129.332197 984.505347,130.46749 982.030232,130.46749 C980.526232,130.46749 979.097684,129.909453 977.895832,128.963551 L976.721937,129.288868 L976.753263,130.584199 L978.967663,131.039154 L977.940968,131.326734 L978.047411,132.636391 L980.581474,133.415615 L980.581474,135.784389 L978.333053,138.245063 L979.149221,139.232197 L980.021305,138.983754 L979.593516,139.797922 L980.427537,140.826289 L985.3296,138.210469 L983.007074,141.739694 L986.038989,143.676575 L997.211032,133.54141 L1003.63158,133.54141 L1001.0992,142.353989 L1003.75352,143.731435 L1009.91604,136.050304 L1017.22855,143.059135 L1019.51571,141.582452 L1014.89726,126.45256 L1028.29482,118.184389 L1027.35571,115.981943 L1012.60404,121.690203 L995.132716,121.690203 C994.537853,123.025368 993.711242,124.171143 992.419116,124.988106 Z M986.694484,130.474129 L988.554526,133.137471 L986.694484,136.04646 L986.694484,130.474129 Z M987.598568,126.954338 C988.841516,125.16911 989.328926,123.209516 989.445474,121.061931 L984.571032,123.307356 L979.374232,123.307356 L974.562105,119.856753 C974.562105,125.377369 977.913684,129.849002 982.029895,129.849002 C984.206905,129.849002 986.222905,128.917776 987.598568,126.954338 Z M985.144674,125.417553 C985.415158,125.417553 985.649937,125.661105 985.649937,125.952877 C985.649937,126.25688 985.415158,126.499034 985.144674,126.499034 C984.737095,126.499034 983.961684,126.615743 983.567916,126.872223 C983.32,127.027369 983.000337,126.951892 982.851453,126.699256 C982.697179,126.448017 982.771621,126.112566 983.013811,125.95148 C983.669305,125.527274 984.700716,125.417553 985.144674,125.417553 Z M980.577432,125.971048 C980.802779,126.128989 980.874189,126.462344 980.734063,126.72092 C980.587537,126.967966 980.268547,127.04519 980.025011,126.890393 C979.628211,126.633214 978.868295,126.515806 978.4432,126.515806 C978.1552,126.515806 977.953768,126.273652 977.953768,125.976988 C977.953768,125.67613 978.1552,125.432579 978.4432,125.432579 C978.905011,125.432579 979.921263,125.546842 980.577432,125.971048 Z" id="kuroneko" sketch:type="MSShapeGroup"></path>
        </g>
    </g>
</svg>