<?xml version="1.0" encoding="utf-8"?>
<!-- Generator: Adobe Illustrator 17.0.0, SVG Export Plug-In . SVG Version: 6.00 Build 0)  -->
<!DOCTYPE svg PUBLIC "-//W3C//DTD SVG 1.1//EN" "http://www.w3.org/Graphics/SVG/1.1/DTD/svg11.dtd">
<svg version="1.1" id="Layer_1" xmlns:sketch="http://www.bohemiancoding.com/sketch/ns"
	 xmlns="http://www.w3.org/2000/svg" xmlns:xlink="http://www.w3.org/1999/xlink" x="0px" y="0px" width="70px" height="70px"
	 viewBox="0 0 70 70" enable-background="new 0 0 70 70" xml:space="preserve">
<title>phone</title>
<description>Created with Sketch.</description>
<path fill="#F75E50" d="M35,14c-13.807,0-25,11.193-25,25s11.193,25,25,25s25-11.193,25-25S48.807,14,35,14z M48.635,52.706
	c-1.452,1.452-3.506,2.16-5.844,2.16c-4.781,0-10.802-2.798-15.831-7.827c-7.508-7.544-10.235-17.46-5.844-21.852
	c1.24-1.24,3.4-1.877,5.312-2.054c0.46,0,0.815,0.248,1.027,0.637l4.321,7.863c0.106,0.213,0.177,0.39,0.177,0.638
	c0,0.354-0.177,0.673-0.425,0.921l-3.365,3.329c-0.354,0.39-0.425,0.956-0.142,1.417c0.956,1.594,2.125,3.117,3.542,4.498
	c1.417,1.417,2.94,2.621,4.498,3.577c0.46,0.283,1.027,0.213,1.417-0.177l3.365-3.046c0.213-0.283,0.531-0.46,0.921-0.46
	c0.213,0,0.602,0.213,0.602,0.213l7.863,3.967c0.39,0.213,0.637,0.602,0.637,1.062C50.725,49.519,49.911,51.467,48.635,52.706z"/>
</svg>
