<?xml version="1.0" encoding="utf-8"?>
<!-- Generator: Adobe Illustrator 17.0.0, SVG Export Plug-In . SVG Version: 6.00 Build 0)  -->
<!DOCTYPE svg PUBLIC "-//W3C//DTD SVG 1.1//EN" "http://www.w3.org/Graphics/SVG/1.1/DTD/svg11.dtd">
<svg version="1.1" id="Layer_1" xmlns:sketch="http://www.bohemiancoding.com/sketch/ns"
	 xmlns="http://www.w3.org/2000/svg" xmlns:xlink="http://www.w3.org/1999/xlink" x="0px" y="0px" width="64px" height="64px"
	 viewBox="0 0 64 64" enable-background="new 0 0 64 64" xml:space="preserve">
<title>post-office</title>
<description>Created with Sketch (http://www.bohemiancoding.com/sketch)</description>
<g id="Items" sketch:type="MSPage">
	<g id="Artboard-1" transform="translate(-329.000000, -95.000000)" sketch:type="MSArtboardGroup">
		<path id="post-office" sketch:type="MSShapeGroup" fill="#F75E50" d="M361,154.914c15.464,0,28-12.536,28-28s-12.536-28-28-28
			c-15.464,0-28,12.536-28,28S345.536,154.914,361,154.914z M361,102.145c13.68,0,24.769,11.089,24.769,24.769
			c0,13.68-11.09,24.769-24.769,24.769c-13.68,0-24.769-11.09-24.769-24.769C336.231,113.234,347.32,102.145,361,102.145z
			 M376.077,110.401h-14v11.128h14V110.401z M372.487,117.94h-6.82v-3.949h6.82V117.94z M366.026,131.581h-4.308v11.128h14.359
			v-3.59h-10.051v-3.589h10.051v-11.487h-14v3.949h3.949V131.581z M372.846,131.581h-3.59v-3.59h3.59V131.581z M360.641,119.734
			l-3.522-3.874l-3.299,2.199v-4.068h5.744v-3.59h-9.333v7.618l-2.872-2.234l-3.949,3.949l1.795,2.513l2.513-2.154l1.974,1.974
			l0.538-0.538v4.028l-2.872-2.234l-3.949,3.949l1.795,2.513l2.513-2.154l1.974,1.974l0.538-0.538v2.513h-5.744v3.59h5.744v3.949
			h-5.744v3.59h15.077v-3.59h-5.744v-3.949h5.744v-3.59h-5.744v-1.675l3.177-2.118l1.49,1.639l2.154-2.154l-3.522-3.874
			l-3.299,2.199v-3.231l3.177-2.118l1.49,1.639L360.641,119.734z"/>
	</g>
</g>
</svg>
