<?xml version="1.0" encoding="utf-8"?>
<!-- Generator: Adobe Illustrator 17.0.0, SVG Export Plug-In . SVG Version: 6.00 Build 0)  -->
<!DOCTYPE svg PUBLIC "-//W3C//DTD SVG 1.1//EN" "http://www.w3.org/Graphics/SVG/1.1/DTD/svg11.dtd">
<svg version="1.1" id="Layer_1" xmlns:sketch="http://www.bohemiancoding.com/sketch/ns"
	 xmlns="http://www.w3.org/2000/svg" xmlns:xlink="http://www.w3.org/1999/xlink" x="0px" y="0px" width="70px" height="70px"
	 viewBox="0 0 70 70" enable-background="new 0 0 70 70" xml:space="preserve">
<title>message</title>
<description>Created with Sketch (http://www.bohemiancoding.com/sketch)</description>
<g id="Web" sketch:type="MSPage">
	
		<g id="Product-Detail---Hero---Portrait-_x28_Impossible_x29_" transform="translate(-1931.000000, -245.000000)" sketch:type="MSArtboardGroup">
		<path id="Oval-6-copy-5" sketch:type="MSShapeGroup" fill="#F75E50" d="M1940.036,290.343c0.7-13.261,11.351-23.078,26.334-22.299
			c14.983,0.78,24.666,10.305,23.966,23.566c-0.204,3.867-1.259,7.446-3.023,10.556c1.355,4.81,3.687,10.036,3.687,10.036
			s-6.295-0.559-11.435-1.991c-4.268,2.654-9.598,4.059-15.619,3.746C1948.963,313.178,1939.336,303.604,1940.036,290.343z
			 M1963.874,311.961c5.414,0.284,10.33-0.934,14.336-3.444l0.742-0.465l0.843,0.237c0.722,0.203,1.498,0.395,2.319,0.577
			c1.706,0.378,3.531,0.694,5.369,0.952c-0.356-0.905-0.706-1.836-1.042-2.774c-0.547-1.529-1.021-2.991-1.402-4.355l-0.221-0.79
			l0.402-0.715c1.621-2.879,2.562-6.165,2.746-9.678c0.634-12.105-8.082-20.741-21.897-21.465
			c-13.475-0.706-23.386,7.963-24.038,20.406C1941.397,302.576,1950.086,311.238,1963.874,311.961z"/>
	</g>
</g>
</svg>
