<?xml version="1.0" encoding="utf-8"?>
<!-- Generator: Adobe Illustrator 17.0.0, SVG Export Plug-In . SVG Version: 6.00 Build 0)  -->
<!DOCTYPE svg PUBLIC "-//W3C//DTD SVG 1.1//EN" "http://www.w3.org/Graphics/SVG/1.1/DTD/svg11.dtd">
<svg version="1.1" id="Layer_1" xmlns:sketch="http://www.bohemiancoding.com/sketch/ns"
	 xmlns="http://www.w3.org/2000/svg" xmlns:xlink="http://www.w3.org/1999/xlink" x="0px" y="0px" width="70px" height="70px"
	 viewBox="0 0 70 70" enable-background="new 0 0 70 70" xml:space="preserve">
<path id="Rectangle-121" sketch:type="MSShapeGroup" fill="#F15F51" d="M35,10c-13.807,0-25,11.193-25,25c0,13.807,11.193,25,25,25
	s25-11.193,25-25C60,21.193,48.807,10,35,10z M35,13c12.15,0,22,9.85,22,22s-9.85,22-22,22s-22-9.85-22-22S22.85,13,35,13z
	 M24.083,29L34.5,39.714L44.917,29L47,31.143L34.5,44L22,31.143L24.083,29z"/>
</svg>
