<?xml version="1.0" encoding="UTF-8" standalone="no"?>
<svg width="336px" height="129px" viewBox="0 0 336 129" version="1.1" xmlns="http://www.w3.org/2000/svg" xmlns:xlink="http://www.w3.org/1999/xlink" xmlns:sketch="http://www.bohemiancoding.com/sketch/ns">
    <title>rate</title>
    <description>Created with Sketch (http://www.bohemiancoding.com/sketch)</description>
    <defs></defs>
    <g id="Introduction" stroke="none" stroke-width="1" fill="none" fill-rule="evenodd" sketch:type="MSPage">
        <g id="iPad" sketch:type="MSArtboardGroup" transform="translate(-1574.000000, -6134.000000)" fill="#7ED3E4">
            <path d="M1574.12,6258.864 C1574.12,6259.932 1575.01,6261 1576.434,6261 L1646.21,6261 C1647.456,6261 1648.524,6259.932 1648.524,6258.686 L1648.524,6256.016 C1648.524,6254.77 1647.456,6253.702 1646.21,6253.702 L1586.402,6253.702 L1626.986,6213.296 C1639.802,6200.48 1649.414,6188.554 1649.414,6172.89 C1649.414,6154.378 1636.242,6138.002 1611.144,6138.002 C1589.072,6138.002 1578.036,6155.624 1578.036,6155.624 C1577.146,6156.87 1577.502,6157.938 1578.392,6158.828 L1580.528,6160.608 C1581.774,6161.498 1583.02,6161.32 1584.088,6160.074 C1586.402,6157.582 1594.946,6145.656 1611.144,6145.656 C1631.614,6145.656 1641.048,6159.54 1641.048,6173.068 C1641.048,6184.638 1633.75,6195.852 1621.29,6208.312 L1574.12,6255.66 L1574.12,6258.864 Z M1672.91,6255.66 C1672.91,6259.576 1676.292,6262.78 1680.208,6262.78 C1684.302,6262.78 1687.328,6259.576 1687.328,6255.66 C1687.328,6251.566 1684.302,6248.54 1680.208,6248.54 C1676.292,6248.54 1672.91,6251.566 1672.91,6255.66 Z M1712.604,6247.828 C1717.054,6253.168 1727.378,6262.78 1747.136,6262.78 C1771.522,6262.78 1788.966,6244.268 1788.966,6221.84 C1788.966,6198.344 1774.548,6184.816 1747.314,6184.816 L1721.86,6184.816 L1721.86,6147.258 L1772.59,6147.258 C1773.836,6147.258 1774.904,6146.19 1774.904,6144.944 L1774.904,6142.096 C1774.904,6140.85 1773.836,6139.782 1772.59,6139.782 L1716.698,6139.782 C1715.274,6139.782 1714.384,6140.85 1714.384,6142.096 L1714.384,6188.554 C1714.384,6190.334 1715.63,6192.292 1717.766,6192.292 L1747.314,6192.292 C1769.564,6192.292 1780.778,6204.04 1780.778,6221.84 C1780.778,6239.462 1767.25,6255.482 1747.314,6255.482 C1729.87,6255.482 1720.97,6245.692 1717.944,6241.954 C1717.054,6240.708 1715.986,6240.708 1714.918,6241.598 C1714.028,6242.31 1713.316,6243.2 1712.426,6243.912 C1711.002,6245.336 1711.18,6246.048 1712.604,6247.828 Z M1828.838,6183.748 C1842.366,6183.748 1853.402,6172.89 1853.402,6159.184 C1853.402,6145.478 1842.366,6134.62 1828.838,6134.62 C1815.31,6134.62 1804.274,6145.478 1804.274,6159.184 C1804.274,6172.89 1815.31,6183.748 1828.838,6183.748 Z M1818.336,6257.974 C1817.446,6259.398 1817.98,6261 1819.582,6261 L1822.786,6261 C1823.498,6261 1824.566,6260.466 1824.922,6259.754 L1892.74,6139.782 C1893.63,6138.18 1892.918,6136.4 1891.316,6136.4 L1888.112,6136.4 C1887.4,6136.4 1886.51,6136.4 1885.976,6137.29 L1818.336,6257.974 Z M1828.838,6177.162 C1818.87,6177.162 1811.038,6169.152 1811.038,6159.184 C1811.038,6149.394 1818.87,6141.384 1828.838,6141.384 C1838.628,6141.384 1846.638,6149.394 1846.638,6159.184 C1846.638,6169.152 1838.628,6177.162 1828.838,6177.162 Z M1859.988,6238.394 C1859.988,6251.922 1870.846,6262.958 1884.552,6262.958 C1898.08,6262.958 1909.116,6251.922 1909.116,6238.394 C1909.116,6224.688 1898.08,6213.652 1884.552,6213.652 C1870.846,6213.652 1859.988,6224.688 1859.988,6238.394 Z M1866.574,6238.394 C1866.574,6228.604 1874.584,6220.594 1884.552,6220.594 C1894.342,6220.594 1902.352,6228.604 1902.352,6238.394 C1902.352,6248.362 1894.342,6256.194 1884.552,6256.194 C1874.584,6256.194 1866.574,6248.362 1866.574,6238.394 Z" id="2.5%" sketch:type="MSShapeGroup"></path>
        </g>
    </g>
</svg>