<?xml version="1.0" encoding="UTF-8" standalone="no"?>
<svg width="130px" height="124px" viewBox="0 0 130 124" version="1.1" xmlns="http://www.w3.org/2000/svg" xmlns:xlink="http://www.w3.org/1999/xlink" xmlns:sketch="http://www.bohemiancoding.com/sketch/ns">
    <title>browser</title>
    <description>Created with Sketch (http://www.bohemiancoding.com/sketch)</description>
    <defs></defs>
    <g id="Introduction" stroke="none" stroke-width="1" fill="none" fill-rule="evenodd" sketch:type="MSPage">
        <g id="iPad" sketch:type="MSArtboardGroup" transform="translate(-672.000000, -6800.000000)" fill="#7ED3E4">
            <path d="M792.852816,6807.62162 L720.147184,6807.62162 C719.292997,6807.62162 718.608434,6808.3066 718.608434,6809.15502 L718.608434,6817.37838 L794.391566,6817.37838 L794.391566,6809.15502 C794.391566,6808.31144 793.702353,6807.62162 792.852816,6807.62162 Z M799,6879 L799,6809.15502 C799,6805.7557 796.244244,6803 792.852816,6803 L720.147184,6803 C716.752188,6803 714,6805.74978 714,6809.15502 L714,6879 L799,6879 Z M718.608434,6874.37838 L718.608434,6820.45946 L794.391566,6820.45946 L794.391566,6874.37838 L718.608434,6874.37838 Z M787.73494,6826.62162 L758.036145,6826.62162 L758.036145,6848.18919 L787.73494,6848.18919 L787.73494,6826.62162 Z M784.662651,6829.7027 L761.108434,6829.7027 L761.108434,6845.10811 L784.662651,6845.10811 L784.662651,6829.7027 Z M785.686747,6866.15639 L785.686747,6863.59459 L758.036145,6863.59459 L758.036145,6866.15639 L785.686747,6866.15639 Z M782.614458,6857.94018 L782.614458,6855.37838 L758.036145,6855.37838 L758.036145,6857.94018 L782.614458,6857.94018 Z M745.746988,6830.21045 L745.746988,6827.64865 L727.313253,6827.64865 L727.313253,6830.21045 L745.746988,6830.21045 Z M745.746988,6845.61585 L745.746988,6843.05405 L727.313253,6843.05405 L727.313253,6845.61585 L745.746988,6845.61585 Z M745.778745,6838.01124 L745.778745,6835.44944 L727.34501,6835.44944 L727.34501,6838.01124 L745.778745,6838.01124 Z" id="Rectangle-133" sketch:type="MSShapeGroup"></path>
        </g>
    </g>
</svg>