<?xml version="1.0" encoding="UTF-8" standalone="no"?>
<svg width="370px" height="194px" viewBox="0 0 370 194" version="1.1" xmlns="http://www.w3.org/2000/svg" xmlns:xlink="http://www.w3.org/1999/xlink" xmlns:sketch="http://www.bohemiancoding.com/sketch/ns">
    <!-- Generator: Sketch 3.0.3 (7891) - http://www.bohemiancoding.com/sketch -->
    <title>free</title>
    <desc>Created with Sketch.</desc>
    <defs></defs>
    <g id="Introduction" stroke="none" stroke-width="1" fill="none" fill-rule="evenodd" sketch:type="MSPage">
        <g id="iPad" sketch:type="MSArtboardGroup" transform="translate(-1930.000000, -7717.000000)">
            <g id="free" sketch:type="MSLayerGroup" transform="translate(1930.000000, 7717.500000)">
                <path d="M0,25.9938093 L0,166.006191 C0,180.362175 11.6329653,192 25.9992796,192 L344.00072,192 C358.359726,192 370,180.35034 370,166.006191 L370,25.9938093 C370,11.6378248 358.367035,0 344.00072,0 L25.9992796,0 C11.640274,0 0,11.6496601 0,25.9938093 L0,25.9938093 Z" id="Rectangle-284" fill="#7ED3E4" sketch:type="MSShapeGroup"></path>
                <path d="M65,81 C64.33333,79.999995 63.166675,78.666675 61.5,77 C61.166665,76.666665 60.833335,76.333335 60.5,76 C77.500085,63.33327 90.833285,49.166745 100.5,33.5 L107,36.5 C104.666655,39.83335 102.16668,43.333315 99.5,47 L150,47 L150,53.5 L134,69.5 L166,69.5 L166,108 L129,108 L129,136 C128.666665,141.666695 132.333295,144.333335 140,144 L160.5,144 C167.83337,144.333335 171.83333,141.666695 172.5,136 C172.833335,134.333325 173.33333,131.16669 174,126.5 C174.333335,123.499985 174.666665,121.166675 175,119.5 C177.00001,120.500005 179.166655,121.166665 181.5,121.5 C181.166665,126.16669 180.33334,131.666635 179,138 C176.99999,146.66671 171.33338,150.833335 162,150.5 L138,150.5 C127.33328,150.5 122,146.000045 122,137 L122,108 L119,108 C112.99997,127.33343 95.33348,142.66661 66,154 C65.33333,152.999995 64.166675,151.16668 62.5,148.5 C61.83333,148.166665 61.5,147.833335 61.5,147.5 C88.1668,138.499955 104.8333,125.33342 111.5,108 L75.5,108 L75.5,72.5 C71.49998,75.83335 68.000015,78.666655 65,81 L65,81 Z M159,75.5 L124.5,75.5 C124.166665,85.166715 123.00001,93.99996 121,102 L159,102 L159,75.5 L159,75.5 Z M82,75.5 L82,102 L114,102 C116.333345,93.99996 117.5,85.166715 117.5,75.5 L82,75.5 L82,75.5 Z M141.5,53 L95,53 C90.33331,58.33336 85.00003,63.833305 79,69.5 L125,69.5 L141.5,53 L141.5,53 Z M263,34.5 L269.5,34.5 L269.5,44.5 L300.5,44.5 L300.5,63.5 L269.5,63.5 L269.5,73 L306,73 C306,74.000005 305.833335,75.49999 305.5,77.5 C305.5,79.50001 305.333335,80.83333 305,81.5 C304.666665,86.500025 301.666695,89 296,89 L283,89 C283,88.666665 282.833335,88.16667 282.5,87.5 C282.166665,86.499995 281.833335,85.500005 281.5,84.5 L294,84.5 C297.000015,84.5 298.666665,83.333345 299,81 L299,78 L269.5,78 L269.5,87.5 L263,87.5 L263,78 L234,78 C230.999985,83.33336 225.83337,87.66665 218.5,91 L292.5,91 L292.5,136 L205.5,136 L205.5,95.5 C201.833315,96.500005 197.500025,97.499995 192.5,98.5 C192.166665,96.833325 191.166675,95.00001 189.5,93 C209.5001,89.333315 221.666645,84.333365 226,78 L204,78 L203.5,82.5 L197,82.5 L201.5,58.5 L231.5,58.5 L231.5,55 C231.833335,52.666655 232,51.000005 232,50 L198,50 L198,44.5 L232,44.5 L232,34.5 L238.5,34.5 L238.5,44.5 L263,44.5 L263,34.5 L263,34.5 Z M212,122 L212,131 L286,131 L286,122 L212,122 L212,122 Z M212,96 L212,104 L286,104 L286,96 L212,96 L212,96 Z M212,109 L212,117 L286,117 L286,109 L212,109 L212,109 Z M234,139 L237,143.5 C224.33327,147.166685 209.500085,150.66665 192.5,154 C192.166665,151.99999 191.166675,150.00001 189.5,148 C206.83342,144.66665 221.666605,141.66668 234,139 L234,139 Z M261,142 L264,138 C280.00008,142.66669 294.499935,145.833325 307.5,147.5 L305,153.5 C288.99992,151.166655 274.3334,147.33336 261,142 L261,142 Z M237.5,63.5 C237.5,67.166685 237.000005,70.33332 236,73 L263,73 L263,63.5 L237.5,63.5 L237.5,63.5 Z M207,63.5 L205,73 L229,73 C230.000005,70.666655 230.83333,67.50002 231.5,63.5 L207,63.5 L207,63.5 Z M238.5,50 L238,58.5 L263,58.5 L263,50 L238.5,50 L238.5,50 Z M294,50 L269.5,50 L269.5,58.5 L294,58.5 L294,50 L294,50 Z" id="免費" fill="#FFFFFF" sketch:type="MSShapeGroup"></path>
            </g>
        </g>
    </g>
</svg>