<?xml version="1.0" encoding="UTF-8" standalone="no"?>
<svg width="1081px" height="103px" viewBox="0 0 1081 103" version="1.1" xmlns="http://www.w3.org/2000/svg" xmlns:xlink="http://www.w3.org/1999/xlink" xmlns:sketch="http://www.bohemiancoding.com/sketch/ns">
    <!-- Generator: Sketch 3.0.3 (7891) - http://www.bohemiancoding.com/sketch -->
    <title>slogan-space</title>
    <desc>Created with Sketch.</desc>
    <defs></defs>
    <g id="Page-1" stroke="none" stroke-width="1" fill="none" fill-rule="evenodd" sketch:type="MSPage">
        <g id="slogan-space" sketch:type="MSLayerGroup">
            <path d="M732.22,3.58898 C732.22,3.02401 732.30715,2.65325 732.48145,2.47669 C732.65574,2.30014 732.89976,2.14124 733.21349,2 C733.56209,2 734.10241,2.21186 734.83446,2.63559 L744.29882,5.54873 C744.68228,5.61935 744.874,5.83121 744.874,6.18432 C744.874,6.4315 744.6997,6.66102 744.35111,6.87288 L740.58628,8.77966 C740.3074,8.9209 740.09825,9.09746 739.95881,9.30932 C739.81937,9.52119 739.74965,9.76836 739.74965,10.05085 L739.74965,99.66949 L735.1482,102 L732.22,102 L732.22,3.58898 L732.22,3.58898 Z M722.05476,47.44 C720.92652,46.39999 720.09694,45.18667 719.566,43.8 C721.68976,38.53064 723.68075,31.59738 725.53904,23 C726.86639,23 727.79552,23.69333 728.32646,25.08 C727.92825,33.26137 727.33096,41.23463 726.53455,49 C724.67626,49 723.18301,48.48001 722.05476,47.44 L722.05476,47.44 L722.05476,47.44 Z M742.92723,24.14286 C743.63947,22.85714 744.56536,22.14286 745.70494,22 C748.69633,29.42861 750.69056,35.14284 751.68769,39.14286 C751.68769,41.00001 751.01108,42.46428 749.65783,43.53571 C748.30458,44.60715 746.34596,45.42857 743.78191,46 C743.92436,40.5714 743.63947,33.28576 742.92723,24.14286 L742.92723,24.14286 L742.92723,24.14286 Z M750.10174,99.52169 C749.86119,99.20282 749.74092,98.72452 749.74092,98.08677 C749.74092,97.6616 750.01583,97.23644 750.56564,96.81128 C756.13246,92.9848 761.26967,87.74118 765.97742,81.08026 C770.68517,74.41934 774.00116,66.19962 775.9255,56.42082 L776.33785,54.93275 L751.3262,54.93275 L751.3262,49.40564 L776.75021,49.40564 L776.75021,26.65944 L761.01656,26.65944 L761.01656,21.13232 L776.75021,21.13232 L776.75021,3.59436 C776.75021,3.02747 776.83612,2.65546 777.00793,2.47831 C777.17975,2.30116 777.42029,2.14172 777.72955,2 C778.07319,2 778.60581,2.21258 779.32743,2.63774 L788.65698,5.56074 C789.03497,5.6316 789.22396,5.84418 789.22396,6.19848 C789.22396,6.44649 789.05215,6.67679 788.70852,6.88937 L784.99732,8.8026 C784.72242,8.94432 784.51624,9.12147 784.37879,9.33406 C784.24133,9.54664 784.17261,9.79465 784.17261,10.07809 L784.17261,21.13232 L799.58554,21.13232 C799.82608,20.74259 800.16112,20.43258 800.59066,20.20228 C801.0202,19.97198 801.44114,19.85683 801.8535,19.85683 C802.40331,19.85683 802.85861,19.98084 803.21942,20.22885 C803.58024,20.47686 803.91527,20.88431 804.22454,21.45119 L807.00794,26.34056 L805.77087,28.14751 L805.77087,47.06725 C806.42377,47.06725 807.45465,47.52783 808.86354,48.44902 L815.46123,53.01952 C815.94231,53.30297 816.30312,53.56869 816.54366,53.8167 C816.7842,54.06472 816.90447,54.43673 816.90447,54.93275 L786.85292,54.93275 C789.18961,62.58572 794.49064,69.56541 798.06441,75.87202 C801.63817,82.17863 806.31149,86.67822 812.0845,89.37093 C813.04666,89.7961 813.73392,90.32755 814.14627,90.96529 C814.55863,91.60304 814.76481,92.20535 814.76481,92.77223 C814.76481,93.90601 814.42118,95.03976 813.73392,96.17354 C813.04665,97.30731 812.22195,98.22849 811.25978,98.93709 C810.29762,99.6457 809.40419,100 808.57947,100 L806.93005,99.78742 C804.24973,98.65365 800.4183,94.18948 795.43564,86.39479 C790.45299,78.60011 784.79115,69.17576 783.14172,58.12148 C782.31701,63.5069 780.56451,68.85681 777.88419,74.17137 C775.20386,79.48593 771.80196,84.1981 767.67839,88.30803 C763.55481,92.41795 758.46915,96.24438 752.42124,99.78742 L751.28726,100 C750.73745,100 750.34228,99.84057 750.10174,99.52169 L750.10174,99.52169 L750.10174,99.52169 Z M798.41016,50 L798.41016,27 L783.80939,27 L783.80939,50 L798.41016,50 L798.41016,50 Z M998.38623,103 C996.87253,102.63636 996.58144,101.54546 997.51295,99.72727 C1006.24583,96.45453 1013.81421,92.54548 1020.21832,88 C1022.89641,88.18182 1024.23543,90.99997 1024.23543,96.45455 L998.38623,103 L998.38623,103 Z M1062.20286,103 C1057.91466,100.14284 1050.94643,96.71431 1041.29797,92.71429 C1040.46416,91.19047 1040.64283,89.95239 1041.834,89 C1056.60447,91.28573 1066.31234,93.76189 1070.9579,96.42857 C1070.71966,100.80955 1067.80135,103 1062.20286,103 L1062.20286,103 L1062.20286,103 Z M1005.74112,89 L1005.74112,54.00602 C1005.74112,53.41164 1005.87785,52.92872 1006.15133,52.55723 C1006.42481,52.18574 1006.90338,52 1007.58707,52 C1007.99729,52 1008.54423,52.0743 1009.22792,52.22289 C1009.91161,52.37149 1010.8004,52.74297 1011.8943,53.33735 L1013.12494,54.00602 L1055.787,54.00602 C1056.02629,53.59739 1056.35959,53.27234 1056.78689,53.03087 C1057.2142,52.78941 1057.63295,52.66867 1058.04317,52.66867 C1058.59012,52.66867 1059.04306,52.79869 1059.40199,53.05873 C1059.76093,53.31878 1060.09423,53.74598 1060.40189,54.34036 L1063.17082,59.46687 L1061.94018,61.36145 L1061.94018,86.54819 L1057.42785,89 L1054.55636,89 L1054.55636,86.54819 L1013.12494,86.54819 L1008.6126,89 L1005.74112,89 L1005.74112,89 Z M1012.55481,81 L1054.41036,81 L1054.41036,77 L1012.55481,77 L1012.55481,81 L1012.55481,81 Z M1012.55481,74 L1054.41036,74 L1054.41036,69 L1012.55481,69 L1012.55481,74 L1012.55481,74 Z M1012.55481,64 L1054.41036,64 L1054.41036,59 L1012.55481,59 L1012.55481,64 L1012.55481,64 Z M993.08712,52 L993.08712,30.78448 C993.08712,30.25574 993.22407,29.82615 993.49799,29.49569 C993.77191,29.16523 994.25126,29 994.93606,29 C995.34694,29 995.89476,29.06609 996.57956,29.19828 C997.26436,29.33046 998.15458,29.66092 999.25026,30.18966 L1000.48288,30.78448 L1067.45567,30.78448 C1067.69535,30.42098 1068.02918,30.13183 1068.45718,29.91703 C1068.88518,29.70223 1069.30461,29.59483 1069.71549,29.59483 C1070.26332,29.59483 1070.71699,29.71049 1071.07651,29.94181 C1071.43603,30.17313 1071.76986,30.55316 1072.07802,31.0819 L1074.85144,35.64224 L1073.61881,37.32759 L1073.61881,49.42241 L1069.09917,51.60345 L1066.22304,51.60345 L1066.22304,49.42241 L1000.48288,49.42241 L993.08712,52 L993.08712,52 Z M1000.87419,44 L1017.42173,44 L1017.42173,35 L1000.87419,35 L1000.87419,44 L1000.87419,44 Z M1024.23543,44 L1042.72974,44 L1042.72974,35 L1024.23543,35 L1024.23543,44 L1024.23543,44 Z M1049.54343,44 L1066.09097,44 L1066.09097,35 L1049.54343,35 L1049.54343,44 L1049.54343,44 Z M1000.67804,26 L1000.67804,21.28383 L1030.02013,21.28383 L1030.02013,13.59422 L987.24681,13.59422 L987.24681,8.87805 L1030.02013,8.87805 L1030.02013,1.58537 C1030.02013,1.02168 1030.10623,0.65176 1030.27843,0.47561 C1030.45062,0.29946 1030.69169,0.14092 1031.00165,0 C1031.34604,0 1031.87984,0.21138 1032.60306,0.63415 L1040.77775,3.54065 C1041.15658,3.61111 1041.346,3.82249 1041.346,4.1748 C1041.346,4.42141 1041.1738,4.65041 1040.82941,4.86179 L1038.28551,6.76423 C1038.01,6.90515 1037.80337,7.0813 1037.66561,7.29268 C1037.52785,7.50407 1037.45897,7.75068 1037.45897,8.03252 L1037.45897,8.87805 L1069.07404,8.87805 C1069.07404,8.87805 1069.37022,8.2439 1071.0982,6.76423 C1072.82618,5.28455 1079.19856,10.46756 1080.2323,12.04878 C1081.26605,13.63 1080.2323,13.59422 1080.2323,13.59422 L1037.45897,13.59422 L1037.45897,21.28383 L1055.6428,21.28383 C1055.6428,21.28383 1056.11003,20.50351 1057.79783,19.59633 C1059.48563,18.68915 1065.64793,22.94028 1066.80106,24.45456 C1067.9542,25.96885 1066.80106,26 1066.80106,26 L1000.67804,26 L1000.67804,26 Z M602.33279,99 L602.33279,80.90456 L590.10582,80.90456 L590.10582,75.43384 L602.33279,75.43384 L602.33279,65.96529 L596.7374,65.96529 L592.17819,68.27983 L590.5203,68.27983 L590.5203,31.03688 C590.5203,30.47577 590.65845,30.01989 590.93477,29.6692 C591.21109,29.31851 591.69463,29.14317 592.38543,29.14317 C592.7999,29.14317 593.30072,29.20454 593.88789,29.32728 C594.47507,29.45002 595.04496,29.6955 595.5976,30.06372 C596.15023,30.43194 596.59924,30.75633 596.94464,31.03688 L602.33279,31.03688 L602.33279,21.56833 L591.55648,21.56833 L591.55648,16.09761 L602.33279,16.09761 L602.33279,3.57809 C602.33279,3.01699 602.41914,2.64877 602.59184,2.47343 C602.76454,2.29808 603.00631,2.14028 603.31717,2 C603.66256,2 604.19792,2.21041 604.92325,2.63124 L613.05729,5.5244 C613.43723,5.59454 613.6272,5.80495 613.6272,6.15564 C613.6272,6.40112 613.4545,6.62907 613.1091,6.83948 L609.37884,8.73319 C609.10252,8.87346 608.89529,9.04881 608.75713,9.25922 C608.61897,9.46963 608.54989,9.71511 608.54989,9.99566 L608.54989,16.38752 C609.37884,16.38752 614.14529,16.38752 615.80318,14.5067 L619.32621,19.67462 C619.80976,19.95517 620.17242,20.21818 620.4142,20.46367 C620.65598,20.70915 620.77686,21.07737 620.77686,21.56833 L608.54989,21.56833 L608.54989,31.03688 L614.14529,31.03688 C614.55976,30.61605 615.00877,30.30043 615.49233,30.09002 C615.97588,29.87961 616.56305,29.7744 617.25384,29.7744 C617.94463,29.7744 618.5318,29.94975 619.01535,30.30043 C619.49891,30.65112 619.94791,31.24728 620.36239,32.08894 L621.60581,34.61388 L620.36239,35.87636 L620.36239,65.96529 L615.80318,68.27983 L614.14529,68.27983 L614.14529,65.96529 L608.54989,65.96529 L608.54989,74.17137 C609.65516,73.46999 610.41502,73.11931 610.8295,73.11931 C611.62391,73.11931 612.72916,73.57519 614.14529,74.48698 L620.77686,79.01085 C621.26042,79.2914 621.62308,79.55441 621.86486,79.79989 C622.10663,80.04537 622.22752,80.41359 622.22752,80.90456 L608.54989,80.90456 L608.54989,96.68547 L603.99069,99 L602.33279,99 L602.33279,99 Z M596.91952,60 L602.75983,60 L602.75983,51 L596.91952,51 L596.91952,60 L596.91952,60 Z M608.60013,60 L614.44044,60 L614.44044,51 L608.60013,51 L608.60013,60 L608.60013,60 Z M596.91952,46 L602.75983,46 L602.75983,37 L596.91952,37 L596.91952,46 L596.91952,46 Z M608.60013,46 L614.44044,46 L614.44044,37 L608.60013,37 L608.60013,46 L608.60013,46 Z M625.03601,99 L623.30286,97.62515 L623.20091,94.13514 L624.47529,92.12573 C626.75219,93.32433 635.09506,93.71211 649.50414,93.28907 L649.50414,61.98472 L629.26696,62.14336 L627.99258,61.0329 L628.96111,55.79788 L671.72935,55.79788 L674.58397,54 L677.43858,56.0094 L678.66199,58.86486 L678.66199,62.14336 L656.43678,61.98472 L656.43678,93.07756 L677.18371,93.07756 L680.03832,90.64512 L684.52415,94.34665 L684.26927,99 L625.03601,99 L625.03601,99 Z M640.62928,52 L638.58677,51.1 C637.59955,47.00586 636.1698,43.64413 634.29749,41.01471 C632.42518,38.38528 630.34865,36.18824 628.06783,34.42353 L628.98696,31.3 C632.83371,26.3588 636.03361,21.25885 638.58677,16 L640.83353,17.58824 L641.75266,25 C639.09738,28.21178 636.22087,30.69999 633.12305,32.46471 C637.41234,35.81766 640.91862,40.05292 643.64199,45.17059 C643.36965,47.95884 642.36542,50.23529 640.62928,52 L640.62928,52 L640.62928,52 Z M658.13032,52 L656.07433,51.1 C655.08059,47.00586 653.64997,43.64413 651.78244,41.01471 C649.9149,38.38528 647.85036,36.18824 645.58875,34.42353 L646.41115,31.3 C650.35183,26.3588 653.57285,21.25885 656.07433,16 L658.43872,17.58824 L659.26112,25 C656.58831,28.21178 653.72708,30.69999 650.67734,32.46471 C654.92642,35.81766 658.42157,40.05292 661.16291,45.17059 C660.88878,47.95884 659.87792,50.23529 658.13032,52 L658.13032,52 L658.13032,52 Z M674.74881,52 L672.65523,51.1 C671.66801,47.00586 670.23827,43.64413 668.36596,41.01471 C666.49365,38.38528 664.41711,36.18824 662.1363,34.42353 L663.05543,31.3 C666.90218,26.3588 670.10208,21.25885 672.65523,16 L674.95306,17.58824 L675.82113,25 C673.16585,28.21178 670.28934,30.69999 667.19151,32.46471 C671.48081,35.81766 674.98709,40.05292 677.71045,45.17059 C677.43812,47.95884 676.45091,50.23529 674.74881,52 L674.74881,52 L674.74881,52 Z M625.14767,13 L625.30221,6.55556 L675.47415,6.11111 L676.86496,4 L678.97692,5.16667 L681.60399,9.11111 L681.60399,13 L625.14767,13 L625.14767,13 Z M853.66803,102 C852.85781,101.85751 852.36831,101.60814 852.19952,101.25191 C852.03072,100.89567 851.94632,100.36133 851.94632,99.64885 C857.51659,91.95416 861.53387,83.40463 863.99829,74 C865.38242,74 866.52177,74.64121 867.41639,75.92366 C868.31101,77.20611 868.99462,79.201 869.46725,81.9084 C866.39517,88.89062 861.12881,95.58775 853.66803,102 L853.66803,102 L853.66803,102 Z M895.69372,102 C895.21649,102 894.78188,101.82345 894.38988,101.47034 C893.99787,101.11723 893.80187,100.51695 893.80187,99.66949 C896.42661,93.59601 898.53149,85.89835 900.11656,76.57627 C901.70163,67.25419 902.49416,58.14411 902.49416,49.24576 L902.49416,4.33051 C902.49416,3.76553 902.61346,3.3065 902.85208,2.95339 C903.09069,2.60028 903.48269,2.42373 904.02809,2.42373 C904.36897,2.42373 904.82914,2.49435 905.40863,2.63559 C905.98812,2.77684 906.72099,3.12994 907.60727,3.69492 L908.62989,4.33051 L932.20133,4.33051 C932.64447,4.33051 933.37734,3.9774 934.39997,3.27119 C935.55895,2.42372 936.30886,2 936.64974,2 C937.2974,2 938.20071,2.45903 939.35969,3.37712 L944.83071,7.9322 C945.23976,8.21469 945.53803,8.47952 945.72551,8.72669 C945.91299,8.97387 946.00673,9.34463 946.00673,9.83898 L908.62989,9.83898 L908.62989,27.42373 L936.34295,27.42373 L938.49046,28.27119 L939.30855,32.08475 L938.95064,39.71186 L936.08729,53.05932 L931.94567,65.55932 L927.70179,74.24576 L933.37735,81.87288 L941.40493,88.01695 L945.49542,89.92373 L946.36465,97.55085 L942.78547,99.66949 L937.16105,95.64407 L929.49138,86.74576 L924.53166,79.54237 L915.83938,91.19492 L905.91994,99.66949 L904.6928,97.33898 L913.0783,88.01695 L921.77058,73.82203 L918.03801,65.34746 L913.89639,50.72881 L911.69776,32.9322 L908.62989,32.9322 L908.62989,49.24576 C908.62989,58.85033 907.43684,68.66662 905.05071,78.69492 C902.66458,88.72321 899.54562,96.4915 895.69372,102 L895.69372,102 L895.69372,102 Z M885.57845,99 C882.91561,89.6944 879.49202,82.05559 875.30756,76.08333 C875.65338,74.83333 876.36231,74.13889 877.43436,74 C882.86378,77.75002 887.67064,83.23607 891.8551,90.45833 C891.8551,92.12501 891.44876,93.68749 890.63608,95.14583 C889.8234,96.60417 888.13754,97.88888 885.57845,99 L885.57845,99 L885.57845,99 Z M857.78663,71 L857.78663,3.89329 C857.78663,3.33231 857.89968,2.87653 858.12577,2.52591 C858.35186,2.1753 858.76056,2 859.35188,2 C859.69971,2 860.16058,2.07012 860.73451,2.21037 C861.30843,2.35061 862.06496,2.70122 863.00411,3.2622 L864.0476,3.89329 L882.6218,3.89329 C882.8305,3.50762 883.11746,3.20084 883.48269,2.97294 C883.84791,2.74504 884.20444,2.6311 884.55227,2.6311 C885.03924,2.6311 885.43054,2.75381 885.7262,2.99924 C886.02186,3.24467 886.30882,3.64786 886.58708,4.20884 L888.93495,9.04726 L887.89145,10.83537 L887.89145,68.68598 L884.03052,71 L881.57831,71 L881.57831,68.68598 L864.0476,68.68598 L860.23885,71 L857.78663,71 L857.78663,71 Z M925.28416,69 L928.36702,61.46512 L931.96369,48.27907 L933.71064,34.88372 L932.99131,33 L916.18972,33 L917.57701,48.69767 L920.76263,58.74419 L925.28416,69 L925.28416,69 Z M863.62694,64 L881.14787,64 L881.14787,50 L863.62694,50 L863.62694,64 L863.62694,64 Z M863.62694,44 L881.14787,44 L881.14787,30 L863.62694,30 L863.62694,44 L863.62694,44 Z M863.62694,24 L881.14787,24 L881.14787,10 L863.62694,10 L863.62694,24 L863.62694,24 Z M12.472656,95.1543 L12.472656,38.42383 C8.851544,42.24611 5.3646,45.53189 2.011719,48.28125 C1.341142,48.28125 0.838218,48.08008 0.50293,47.67773 C0.167642,47.27539 0,46.77246 0,46.16895 L0.402344,44.86133 C4.626974,38.35674 8.382145,32.40546 11.667969,27.00732 C14.953792,21.60919 17.636057,16.42906 19.714844,11.4668 C19.983074,10.93034 20.301593,10.49447 20.67041,10.15918 C21.039227,9.82389 21.458331,9.65625 21.927734,9.65625 C22.732426,9.65625 23.704747,10.02506 24.844727,10.7627 C25.984706,11.50033 26.957027,12.43912 27.761719,13.5791 C28.56641,14.71908 28.96875,15.6914 28.96875,16.49609 L28.767578,17.9043 C27.627598,20.31837 24.610051,24.47588 19.714844,30.37695 L19.714844,92.94141 L15.289062,95.1543 L12.472656,95.1543 L12.472656,95.1543 Z M33.394531,100.18359 L32.1875,97.76953 C37.417995,94.55077 42.07843,91.03029 46.168945,87.20801 C50.259461,83.38572 53.779933,78.8594 56.730469,73.62891 L47.476562,62.9668 L40.837891,69.60547 C39.228508,69.73958 38.155602,69.4043 37.619141,68.59961 L41.240234,62.9668 L45.867188,56.5293 L48.683594,57.28369 L53.914062,63.36914 L58.541016,67.99609 C59.211592,65.04556 59.546875,62.22918 59.546875,59.54688 L59.546875,53.31055 L40.536133,54.06494 L39.027344,52.50586 L39.027344,26.55469 L41.039062,24.14062 L46.269531,25.14648 L59.546875,25.14648 L59.546875,14.88672 L35.003906,14.88672 L33.595703,11.66797 L35.003906,9.65625 L88.917969,9.65625 L91.935547,10.86328 L90.929688,14.88672 L66.789062,14.88672 L66.789062,25.14648 L85.900391,24.39209 L87.308594,25.75 L87.308594,53.31055 L84.693359,55.52344 L81.675781,55.52344 L80.066406,53.31055 L66.990234,53.31055 L66.990234,59.54688 C66.856119,64.77737 65.716157,69.53839 63.570312,73.83008 C64.643235,75.03712 67.392556,77.51821 71.818359,81.27344 C78.792353,86.77216 85.632128,90.32616 92.337891,91.93555 C91.667314,95.69077 89.990899,98.4401 87.308594,100.18359 L75.439453,92.13672 C70.611304,88.51561 65.716171,83.95576 60.753906,78.45703 C56.998679,84.08987 52.371772,88.88442 46.873047,92.84082 C41.374321,96.79722 36.881528,99.24479 33.394531,100.18359 L33.394531,100.18359 L33.394531,100.18359 Z M46.269531,48.08008 L59.546875,48.08008 L59.546875,41.84375 L46.269531,41.84375 L46.269531,48.08008 L46.269531,48.08008 Z M66.789062,48.08008 L80.066406,48.08008 L80.066406,41.84375 L66.789062,41.84375 L66.789062,48.08008 L66.789062,48.08008 Z M46.269531,36.61328 L59.546875,36.61328 L59.546875,30.37695 L46.269531,30.37695 L46.269531,36.61328 L46.269531,36.61328 Z M66.789062,36.61328 L80.066406,36.61328 L80.066406,30.37695 L66.789062,30.37695 L66.789062,36.61328 L66.789062,36.61328 Z M149.31781,102.39648 L149.31781,55.92578 C145.83082,65.98443 140.33217,77.38405 132.82172,90.125 C131.34645,89.99088 130.60883,89.38738 130.60883,88.31445 C136.10755,73.96412 140.93563,59.68106 145.0932,45.46484 L131.21234,45.46484 L131.21234,40.23438 L149.31781,40.23438 L149.31781,21.12305 C144.75789,21.79362 140.33216,22.26302 136.04047,22.53125 C134.69932,22.1289 133.96169,21.39128 133.82758,20.31836 C142.14272,18.30663 148.91544,16.2614 154.14594,14.18262 C159.37643,12.10383 163.86923,9.85743 167.62445,7.44336 C168.56326,7.44336 169.40147,8.04687 170.1391,9.25391 C170.87674,10.46094 171.37966,12.33853 171.64789,14.88672 C167.75855,17.03256 162.7293,18.77603 156.56,20.11719 L156.56,40.23438 L159.77875,40.23438 C160.31521,40.23438 161.18695,39.89909 162.39398,39.22852 C163.73514,38.42382 164.60687,38.02148 165.00922,38.02148 C165.78038,38.02148 166.85329,38.45735 168.22797,39.3291 L174.66547,43.6543 C175.13487,43.92253 175.48692,44.17399 175.72162,44.40869 C175.95632,44.64339 176.07367,44.99544 176.07367,45.46484 L157.56586,45.46484 C164.67397,51.36591 170.37378,59.34565 174.66547,69.4043 C174.66547,71.68426 173.9949,73.49478 172.65375,74.83594 C171.3126,76.17709 169.83735,77.04883 168.22797,77.45117 C167.02093,72.22068 165.4451,67.42613 163.50043,63.06738 C161.55576,58.70864 159.24231,54.58465 156.56,50.69531 L156.56,100.18359 L152.13422,102.39648 L149.31781,102.39648 L149.31781,102.39648 Z M204.84125,102.39648 C201.7566,98.64126 198.40377,96.22722 194.78266,95.1543 C193.97797,95.02018 193.37446,94.75196 192.97211,94.34961 C192.56976,93.94726 192.36859,93.47787 192.36859,92.94141 C192.36859,92.40495 192.56976,92.00261 192.97211,91.73438 C193.37446,91.46614 193.97797,91.33203 194.78266,91.33203 C195.72146,91.33203 196.92848,91.46614 198.40375,91.73438 C199.87902,92.00261 201.67278,92.58935 203.7851,93.49463 L207.45648,95.35547 C207.99295,92.67316 208.26117,90.72852 208.26117,89.52148 L208.26117,8.95215 C208.26117,8.41569 208.34499,8.06364 208.51264,7.896 C208.68028,7.72835 208.91498,7.57747 209.21674,7.44336 C209.55203,7.44336 210.07172,7.64453 210.77582,8.04688 L219.87885,10.81299 C220.24767,10.88005 220.43207,11.08122 220.43207,11.4165 C220.43207,11.65121 220.26443,11.86914 219.92914,12.07031 L216.30805,13.88086 C216.03982,14.01497 215.83865,14.18262 215.70453,14.38379 C215.57042,14.58496 215.50336,14.81966 215.50336,15.08789 L215.50336,91.33203 L212.08344,100.18359 L207.65766,102.39648 L204.84125,102.39648 L204.84125,102.39648 Z M184.52289,73.02539 L184.52289,28.06348 C184.52289,27.52702 184.60671,27.17497 184.77436,27.00732 C184.942,26.83968 185.1767,26.6888 185.47846,26.55469 C185.81375,26.55469 186.33343,26.75586 187.03754,27.1582 L196.14057,29.92432 C196.50938,29.99137 196.69379,30.19254 196.69379,30.52783 C196.69379,30.76253 196.52615,30.98047 196.19086,31.18164 L192.56977,32.99219 C192.30154,33.1263 192.10037,33.29394 191.96625,33.49512 C191.83214,33.69629 191.76508,33.93099 191.76508,34.19922 L191.76508,70.8125 L187.3393,73.02539 L184.52289,73.02539 L184.52289,73.02539 Z M276.50672,98.37305 C275.23262,98.37305 273.94178,97.70248 272.63416,96.36133 C271.32654,95.02018 270.63921,92.94142 270.57215,90.125 L271.47742,85.69922 C270.94096,83.95572 270.16981,82.48047 269.16395,81.27344 C268.15808,80.0664 266.91753,78.79232 265.44227,77.45117 C264.77169,76.91471 264.36935,76.3112 264.23524,75.64062 C264.50347,74.83593 265.24109,74.29948 266.44813,74.03125 C268.05751,74.03125 270.5386,74.76887 273.89149,76.24414 C275.36675,69.40426 277.3114,61.1563 279.72547,51.5 L287.77234,20.31836 C288.97938,20.31836 289.88465,20.62011 290.48817,21.22363 C291.09168,21.82715 291.39344,22.46419 291.39344,23.13477 L284.35242,52.9082 C281.67012,64.84446 280.39604,74.97001 280.53016,83.28516 C281.46896,87.71096 281.93836,90.86262 281.93836,92.74023 C281.93836,94.2155 281.38514,95.52311 280.27869,96.66309 C279.17224,97.80307 277.91493,98.37305 276.50672,98.37305 L276.50672,98.37305 L276.50672,98.37305 Z M269.4657,53.51172 C268.39278,50.36001 267.23606,47.61069 265.99549,45.26367 C264.75492,42.91665 263.16233,40.63673 261.21766,38.42383 C261.21766,37.61914 261.36853,37.04916 261.67029,36.71387 C261.97205,36.37858 262.42469,36.21094 263.0282,36.21094 C264.90582,36.68034 267.23604,37.83707 270.01893,39.68115 C272.80182,41.52524 274.89734,43.38606 276.30555,45.26367 C276.17143,47.20834 275.45057,48.95182 274.14295,50.49414 C272.83533,52.03647 271.27626,53.04232 269.4657,53.51172 L269.4657,53.51172 L269.4657,53.51172 Z M276.10438,27.76172 C275.03145,24.61001 273.87473,21.86069 272.63416,19.51367 C271.3936,17.16665 269.801,14.88673 267.85633,12.67383 C267.85633,11.86914 268.00721,11.29916 268.30897,10.96387 C268.61073,10.62858 269.06336,10.46094 269.66688,10.46094 C271.54449,10.93034 273.87471,12.08707 276.6576,13.93115 C279.44049,15.77524 281.53601,17.63606 282.94422,19.51367 C282.8101,21.45834 282.08925,23.20182 280.78162,24.74414 C279.474,26.28647 277.91493,27.29232 276.10438,27.76172 L276.10438,27.76172 L276.10438,27.76172 Z M300.44617,102.39648 L300.44617,83.23486 L293.8075,83.08398 L293.8075,77.85352 L300.44617,77.85352 L300.44617,71.41602 L293.8075,71.41602 L293.8075,66.18555 L300.44617,66.18555 L300.44617,54.51758 C300.44617,53.98112 300.58029,53.54525 300.84852,53.20996 C301.11675,52.87467 301.58614,52.70703 302.25672,52.70703 C302.65907,52.70703 303.19552,52.77409 303.86609,52.9082 C304.53667,53.04232 305.40841,53.3776 306.48133,53.91406 L307.68836,54.51758 L320.36219,54.51758 L320.36219,47.27539 L293.8075,47.27539 L293.8075,42.04492 L310.30359,42.04492 L310.30359,35.20508 L299.84266,35.20508 L299.84266,29.97461 L310.30359,29.97461 L310.30359,23.13477 L296.22156,23.13477 L296.22156,17.9043 L310.30359,17.9043 L310.30359,8.95215 C310.30359,8.41569 310.38742,8.06364 310.55506,7.896 C310.7227,7.72835 310.9574,7.57747 311.25916,7.44336 C311.59445,7.44336 312.11414,7.64453 312.81824,8.04688 L321.92127,10.81299 C322.29009,10.88005 322.47449,11.08122 322.47449,11.4165 C322.47449,11.65121 322.30685,11.86914 321.97156,12.07031 L318.35047,13.88086 C318.08224,14.01497 317.88107,14.18262 317.74695,14.38379 C317.61284,14.58496 317.54578,14.81966 317.54578,15.08789 L317.54578,17.9043 L330.42078,17.9043 L330.42078,8.95215 C330.42078,8.41569 330.5046,8.06364 330.67225,7.896 C330.83989,7.72835 331.07459,7.57747 331.37635,7.44336 C331.71164,7.44336 332.23133,7.64453 332.93543,8.04688 L342.03846,10.81299 C342.40727,10.88005 342.59168,11.08122 342.59168,11.4165 C342.59168,11.65121 342.42404,11.86914 342.08875,12.07031 L338.46766,13.88086 C338.19943,14.01497 337.99826,14.18262 337.86414,14.38379 C337.73003,14.58496 337.66297,14.81966 337.66297,15.08789 L337.66297,17.9043 L346.51453,17.9043 C347.58745,17.50195 348.32508,16.76433 348.72742,15.69141 C350.47092,16.76433 351.47677,18.30663 351.745,20.31836 L351.745,21.92773 C351.61089,22.59831 351.20855,23.00065 350.53797,23.13477 L337.66297,23.13477 L337.66297,29.97461 L342.89344,29.97461 C343.96636,29.57226 344.70398,28.83464 345.10633,27.76172 C346.84983,28.83464 347.85568,30.37694 348.12391,32.38867 L348.12391,33.99805 C347.98979,34.66862 347.58745,35.07096 346.91688,35.20508 L337.66297,35.20508 L337.66297,42.04492 L339.27234,42.04492 C339.80881,42.04492 340.68054,41.70964 341.88758,41.03906 C343.22873,40.23437 344.10047,39.83203 344.50281,39.83203 C345.27398,39.83203 346.34688,40.2679 347.72156,41.13965 L354.15906,45.46484 C354.62847,45.73307 354.98051,45.98454 355.21522,46.21924 C355.44992,46.45394 355.56727,46.80599 355.56727,47.27539 L327.60438,47.27539 L327.60438,54.51758 L341.48524,54.51758 C341.88758,54.11523 342.32345,53.81348 342.79285,53.6123 C343.26226,53.41113 343.83224,53.31055 344.50281,53.31055 C345.17339,53.31055 345.74337,53.47819 346.21277,53.81348 C346.68218,54.14876 347.11805,54.71875 347.52039,55.52344 L348.72742,57.9375 L347.52039,59.14453 L347.52039,64.57617 L353.65613,68.85107 C354.12554,69.15283 354.47758,69.42106 354.71229,69.65576 C354.94699,69.89046 355.06434,70.20898 355.06434,70.61133 C355.06434,70.91309 354.96375,71.14779 354.76258,71.31543 C354.56141,71.48307 354.19259,71.56689 353.65613,71.56689 L347.52039,71.41602 L347.52039,76.24414 L353.65613,80.51904 C354.12554,80.8208 354.47758,81.08903 354.71229,81.32373 C354.94699,81.55843 355.06434,81.87695 355.06434,82.2793 C355.06434,82.58106 354.96375,82.81575 354.76258,82.9834 C354.56141,83.15104 354.19259,83.23486 353.65613,83.23486 L347.52039,83.08398 L347.52039,91.43262 L344.10047,100.18359 L339.67469,102.39648 L336.85828,102.39648 C333.77363,98.64126 330.4208,96.22722 326.79969,95.1543 C325.995,95.02018 325.39149,94.75196 324.98914,94.34961 C324.5868,93.94726 324.38563,93.47787 324.38563,92.94141 C324.38563,92.40495 324.5868,92.00261 324.98914,91.73438 C325.39149,91.46614 325.995,91.33203 326.79969,91.33203 C327.7385,91.33203 328.94551,91.46614 330.42078,91.73438 C331.89605,92.00261 333.68981,92.58935 335.80213,93.49463 L339.47352,95.35547 C340.00998,92.67316 340.2782,90.72852 340.2782,89.52148 L340.2782,83.08398 L307.68836,83.23486 L307.68836,100.18359 L303.26258,102.39648 L300.44617,102.39648 L300.44617,102.39648 Z M307.68836,77.85352 L320.36219,77.85352 L320.36219,71.41602 L307.68836,71.41602 L307.68836,77.85352 L307.68836,77.85352 Z M327.60438,77.85352 L334.84656,77.85352 C336.0536,77.85352 337.19356,77.67749 338.26649,77.32544 C339.33941,76.97339 340.00997,76.69678 340.2782,76.49561 L340.47938,71.41602 L327.60438,71.41602 L327.60438,77.85352 L327.60438,77.85352 Z M307.68836,66.18555 L320.36219,66.18555 L320.36219,59.74805 L307.68836,59.74805 L307.68836,66.18555 L307.68836,66.18555 Z M327.60438,66.18555 L334.84656,66.18555 C336.0536,66.18555 337.19356,66.00952 338.26649,65.65747 C339.33941,65.30542 340.00997,65.02881 340.2782,64.82764 L340.47938,59.74805 L327.60438,59.74805 L327.60438,66.18555 L327.60438,66.18555 Z M317.54578,42.04492 L330.42078,42.04492 L330.42078,35.20508 L317.54578,35.20508 L317.54578,42.04492 L317.54578,42.04492 Z M317.54578,29.97461 L330.42078,29.97461 L330.42078,23.13477 L317.54578,23.13477 L317.54578,29.97461 L317.54578,29.97461 Z M445.94172,100.18359 C428.23851,99.51302 416.77182,94.2826 411.54133,84.49219 L401.68391,99.58008 L399.87336,99.78125 C398.66632,99.78125 397.25813,99.11068 395.64875,97.76953 C394.03937,96.42838 393.23469,95.42253 393.23469,94.75195 L394.44172,92.74023 L409.12727,78.05469 C408.59081,75.70767 408.25552,73.29363 408.12141,70.8125 L408.12141,56.32812 L392.63117,56.32812 L392.63117,51.09766 L409.32844,51.09766 C409.73078,50.69531 410.16665,50.39356 410.63606,50.19238 C411.10546,49.99121 411.67544,49.89062 412.34602,49.89062 C413.01659,49.89062 413.58657,50.05827 414.05598,50.39355 C414.52538,50.72884 414.96125,51.29882 415.3636,52.10352 L416.57063,54.51758 L415.3636,55.72461 L415.3636,70.8125 C415.76594,84.35814 425.95855,91.46614 445.94172,92.13672 L467.86945,92.13672 C472.29526,91.80143 476.05043,91.13086 479.13508,90.125 L481.54914,89.72266 C483.29264,89.72266 484.56672,91.6673 485.37141,95.55664 C485.37141,96.62956 484.86848,98.17186 483.86262,100.18359 L445.94172,100.18359 L445.94172,100.18359 Z M424.6175,85.0957 L424.6175,30.0752 C425.82454,28.66699 426.89744,27.96289 427.83625,27.96289 L431.85969,30.0752 L453.18391,30.0752 C452.11099,26.28644 450.63574,22.22951 448.75813,17.9043 L451.17219,16.49609 C452.07747,17.4349 453.95505,19.94952 456.805,24.04004 L466.8636,14.13232 L424.01399,14.13232 L424.01399,9.05273 L471.28938,9.05273 L473.3011,7.8457 L475.31281,9.80713 C476.65397,11.5171 477.32453,13.04264 477.32453,14.38379 L475.11164,16.69727 L458.2132,26.15234 L460.82844,30.0752 L480.74445,30.0752 C483.15853,30.37695 484.56672,31.70132 484.96906,34.04834 L484.96906,79.16113 L481.1468,85.0957 L477.92805,85.0957 L474.30695,81.92725 C472.16111,80.85432 470.0153,80.25081 467.86945,80.1167 C468.00357,78.77555 468.54002,77.80323 469.47883,77.19971 C470.9541,76.39502 473.09991,76.57942 475.91633,77.75293 L477.72688,75.99268 L477.72688,60.8042 L458.41438,60.8042 L458.41438,82.88281 L453.9886,85.0957 L451.17219,85.0957 L451.17219,60.8042 L431.85969,60.8042 L431.85969,82.88281 L427.43391,85.0957 L424.6175,85.0957 L424.6175,85.0957 Z M431.85969,55.67432 L451.17219,55.67432 L451.17219,48.02979 L431.85969,48.02979 L431.85969,55.67432 L431.85969,55.67432 Z M458.41438,55.67432 L477.72688,55.67432 L477.72688,48.02979 L458.41438,48.02979 L458.41438,55.67432 L458.41438,55.67432 Z M431.85969,42.84961 L451.17219,42.84961 L451.17219,35.20508 L431.85969,35.20508 L431.85969,42.84961 L431.85969,42.84961 Z M458.41438,42.84961 L477.72688,42.84961 L477.72688,35.20508 L458.41438,35.20508 L458.41438,42.84961 L458.41438,42.84961 Z M411.34016,42.44727 C407.58493,37.485 402.89097,32.99221 397.25813,28.96875 C397.25813,27.6276 397.79458,26.75586 398.8675,26.35352 C406.24384,28.49936 412.81539,31.65102 418.58235,35.80859 C418.58235,37.01563 417.91178,38.42382 416.57063,40.0332 C415.22947,41.64259 413.486,42.44727 411.34016,42.44727 L411.34016,42.44727 L411.34016,42.44727 Z M415.16242,25.95117 C411.4072,20.98891 406.71323,16.49611 401.08039,12.47266 C401.08039,11.1315 401.61685,10.25977 402.68977,9.85742 C410.06611,12.00327 416.63765,15.15493 422.40461,19.3125 C422.40461,20.51954 421.73404,21.92773 420.39289,23.53711 C419.05174,25.14649 417.30827,25.95117 415.16242,25.95117 L415.16242,25.95117 L415.16242,25.95117 Z" id="slogan" fill="#000000" sketch:type="MSShapeGroup"></path>
            <circle id="Oval-1" opacity="0.5" fill="#191919" sketch:type="MSShapeGroup" cx="540" cy="58" r="6"></circle>
        </g>
    </g>
</svg>