<?xml version="1.0" encoding="UTF-8" standalone="no"?>
<svg width="401px" height="151px" viewBox="0 0 401 151" version="1.1" xmlns="http://www.w3.org/2000/svg" xmlns:xlink="http://www.w3.org/1999/xlink" xmlns:sketch="http://www.bohemiancoding.com/sketch/ns">
    <!-- Generator: Sketch 3.0.1 (7597) - http://www.bohemiancoding.com/sketch -->
    <title>logo-with-slogan</title>
    <description>Created with Sketch.</description>
    <defs></defs>
    <g id="Web-Login" stroke="none" stroke-width="1" fill="none" fill-rule="evenodd" sketch:type="MSPage">
        <g id="Login" sketch:type="MSArtboardGroup" transform="translate(-120.000000, -263.000000)">
            <g id="logo" sketch:type="MSLayerGroup" transform="translate(105.000000, 232.000000)">
                <path d="M89,89.425 C89,73.9361111 74.5201699,66.9888889 65.4118896,63.4583333 C56.1868365,59.8138889 52.6836518,56.625 52.6836518,52.4111111 C52.6836518,49.3361111 55.836518,46.6027778 60.0403397,46.6027778 C67.163482,46.6027778 75.6878981,52.8666667 76.7388535,53.4361111 C77.7898089,54.2333333 79.8917197,53.2083333 80.7091295,51.9555556 L86.6645435,43.1861111 C87.1316348,42.3888889 87.3651805,40.3388889 85.9639066,39.5416667 C82.4607219,37.0361111 73.118896,31 60.9745223,31 C42.9915074,31 34,42.3888889 34,53.6638889 C34,67.3305556 46.611465,74.9611111 56.6539278,78.8333333 C64.5944798,81.9083333 68.6815287,85.5527778 68.6815287,90.3361111 C68.6815287,94.3222222 65.2951168,97.1694444 60.6242038,97.1694444 C52.9171975,97.1694444 44.5095541,91.1333333 44.0424628,90.9055556 C43.2250531,90.3361111 41.0063694,90.1083333 40.0721868,91.5888889 L34.5838641,101.041667 C33.6496815,102.636111 34,103.091667 35.1677282,104.230556 C37.8535032,106.85 46.2611465,113 61.4416136,113 C78.6072187,113 89,101.155556 89,89.425 Z M137.942976,113 C160.752434,113 179,94.8916667 179,72.1138889 C179,49.3361111 160.752434,31 137.942976,31 C115.133519,31 97,49.3361111 97,72.1138889 C97,94.8916667 115.133519,113 137.942976,113 Z M195.248792,113 L239.751208,113 C241.05314,113 242,111.958571 242,110.801429 L242,98.1885714 C242,97.0314286 241.05314,95.99 239.751208,95.99 L211.582126,95.99 L211.582126,34.1985714 C211.582126,33.0414286 210.516908,32 209.333333,32 L195.248792,32 C193.94686,32 193,33.0414286 193,34.1985714 L193,110.801429 C193,111.958571 193.94686,113 195.248792,113 Z M254.084829,113 L282.34584,113 C304.699837,113 323,94.8328571 323,72.3842857 C323,50.1671429 304.699837,32 282.34584,32 L254.084829,32 C252.926591,32 252,33.0414286 252,34.1985714 L252,110.801429 C252,111.958571 252.926591,113 254.084829,113 Z M270,50 L281.216495,50 C294.419244,50 304,60.108642 304,72.9432099 C304,85.891358 294.419244,96 281.216495,96 L270,96 L270,50 Z M402.768125,109.033803 L366.545966,32.2549296 C366.198789,31.5704225 365.388709,31 364.578629,31 L363.421371,31 C362.611291,31 361.801211,31.5704225 361.454034,32.2549296 L325.231875,109.033803 C324.537521,110.516901 325.463327,112 327.199213,112 L400.800787,112 C402.536673,112 403.462479,110.516901 402.768125,109.033803 Z M363.877925,64 L364,64 L379,94 L349,94 L363.877925,64 Z M144.854265,42.1563387 C141.122052,42.6808676 113.515701,68.2970935 113.960461,71.4617236 C114.405221,74.6263536 136.184351,81.9318696 136.184351,81.9318696 C136.184351,81.9318696 120.588125,97.8722543 125.232647,101.464321 C135.549461,100.014386 159.552635,81.1765498 159.864724,75.1140348 C160.176812,69.0515197 140.400331,63.8345501 140.400331,63.8345501 C140.400331,63.8345501 148.586477,41.6318097 144.854265,42.1563387 Z" id="SOLDA-2" fill="#F55F55" sketch:type="MSShapeGroup"></path>
                <path d="M279.939805,143.39378 C279.939805,143.174372 279.973649,143.030388 280.041338,142.961823 C280.109027,142.893258 280.203789,142.831551 280.325629,142.776699 C280.461006,142.776699 280.670838,142.858976 280.955131,143.023531 L284.630609,144.154846 C284.779524,144.182272 284.853981,144.264549 284.853981,144.401678 C284.853981,144.497669 284.786293,144.586802 284.650916,144.66908 L283.188847,145.409577 C283.080545,145.464429 282.99932,145.532993 282.945169,145.615271 C282.891018,145.697549 282.863943,145.793538 282.863943,145.903242 L282.863943,180.706599 L281.07697,181.61165 L279.939805,181.61165 L279.939805,143.39378 L279.939805,143.39378 Z M275.992142,160.423301 C275.553987,160.019415 275.23182,159.548223 275.02563,159.009709 C275.850391,156.963355 276.623592,154.270826 277.345258,150.932039 C277.860734,150.932039 278.221561,151.201292 278.427751,151.739806 C278.273109,154.917039 278.041148,158.013448 277.731863,161.029126 C277.010197,161.029126 276.430296,160.827186 275.992142,160.423301 L275.992142,160.423301 L275.992142,160.423301 Z M284.097954,151.375867 C284.37455,150.876558 284.734121,150.599168 285.176675,150.543689 C286.338381,153.428586 287.11284,155.647704 287.500075,157.20111 C287.500075,157.922334 287.237312,158.490983 286.711779,158.907074 C286.186245,159.323164 285.425616,159.642163 284.429868,159.864078 C284.485187,157.755884 284.37455,154.926509 284.097954,151.375867 L284.097954,151.375867 L284.097954,151.375867 Z M286.884169,180.649201 C286.790755,180.525366 286.744048,180.339618 286.744048,180.091949 C286.744048,179.926836 286.850806,179.761726 287.064324,179.596614 C289.226199,178.110601 291.221232,176.074243 293.049484,173.48748 C294.877736,170.900716 296.165501,167.708588 296.912815,163.911 L297.072953,163.333109 L287.35969,163.333109 L287.35969,161.186656 L297.233091,161.186656 L297.233091,152.353179 L291.122935,152.353179 L291.122935,150.206727 L297.233091,150.206727 L297.233091,143.395868 C297.233091,143.175718 297.266453,143.031247 297.333178,142.96245 C297.399902,142.893653 297.493315,142.831737 297.613419,142.776699 C297.746868,142.776699 297.953711,142.859254 298.233954,143.024367 L301.857078,144.15951 C302.003872,144.187028 302.077268,144.269584 302.077268,144.407177 C302.077268,144.503493 302.010544,144.592928 301.877095,144.675484 L300.435853,145.418487 C300.329093,145.473524 300.249025,145.54232 300.195645,145.624876 C300.142266,145.707433 300.115576,145.803747 300.115576,145.913822 L300.115576,150.206727 L306.101181,150.206727 C306.194596,150.055373 306.324707,149.934981 306.491518,149.845545 C306.658329,149.756109 306.821802,149.711391 306.981941,149.711391 C307.195459,149.711391 307.372276,149.759549 307.512398,149.855864 C307.652519,149.95218 307.78263,150.11041 307.902734,150.33056 L308.983666,152.229345 L308.503252,152.93107 L308.503252,160.278542 C308.756805,160.278542 309.157147,160.457411 309.704288,160.815155 L312.266497,162.590106 C312.453325,162.700181 312.593445,162.803375 312.686859,162.89969 C312.780273,162.996006 312.82698,163.140477 312.82698,163.333109 L301.156474,163.333109 C302.063927,166.305135 304.12258,169.015692 305.51045,171.464861 C306.89832,173.914031 308.7132,175.661446 310.955144,176.707158 C311.328801,176.872271 311.595695,177.078658 311.755834,177.326327 C311.915973,177.573996 311.996041,177.807902 311.996041,178.028052 C311.996041,178.468352 311.862594,178.908646 311.595696,179.348946 C311.328798,179.789246 311.008525,180.146985 310.634868,180.422172 C310.26121,180.69736 309.914248,180.834951 309.59397,180.834951 L308.953418,180.752396 C307.912516,180.312095 306.424581,178.57844 304.48957,175.551376 C302.554558,172.524313 300.355787,168.864373 299.715231,164.571447 C299.394954,166.662872 298.714374,168.740507 297.673471,170.804414 C296.632568,172.868321 295.311443,174.698291 293.710054,176.294379 C292.108665,177.890467 290.133649,179.376458 287.784946,180.752396 L287.344566,180.834951 C287.131048,180.834951 286.977583,180.773035 286.884169,180.649201 L286.884169,180.649201 L286.884169,180.649201 Z M305.644723,161.417476 L305.644723,152.485437 L299.974521,152.485437 L299.974521,161.417476 L305.644723,161.417476 L305.644723,161.417476 Z M383.305332,182 C382.717487,181.858781 382.604442,181.435132 382.966193,180.729038 C386.357603,179.45807 389.296781,177.939991 391.783815,176.174757 C392.823847,176.245367 393.343855,177.339795 393.343855,179.458076 L383.305332,182 L383.305332,182 Z M408.088489,182 C406.423168,180.890424 403.717061,179.558954 399.970087,178.005548 C399.646275,177.413774 399.715662,176.932965 400.178251,176.563107 C405.914359,177.450767 409.684405,178.412385 411.488503,179.447989 C411.395986,181.149338 410.262659,182 408.088489,182 L408.088489,182 L408.088489,182 Z M386.161599,176.563107 L386.161599,162.973213 C386.161599,162.742386 386.2147,162.554841 386.320905,162.410574 C386.427109,162.266307 386.612964,162.194175 386.878475,162.194175 C387.037781,162.194175 387.250187,162.223028 387.515697,162.280735 C387.781208,162.338441 388.126367,162.482706 388.551184,162.713534 L389.029101,162.973213 L405.596893,162.973213 C405.689822,162.814519 405.819256,162.688288 405.985201,162.594514 C406.151145,162.50074 406.313768,162.453854 406.473074,162.453854 C406.685483,162.453854 406.861381,162.504347 407.000774,162.605334 C407.140168,162.706321 407.269602,162.872226 407.389082,163.103053 L408.464395,165.093929 L407.986478,165.829688 L407.986478,175.610949 L406.234116,176.563107 L405.118976,176.563107 L405.118976,175.610949 L389.029101,175.610949 L387.276739,176.563107 L386.161599,176.563107 L386.161599,176.563107 Z M388.807693,173.456311 L405.062274,173.456311 L405.062274,171.902913 L388.807693,171.902913 L388.807693,173.456311 L388.807693,173.456311 Z M388.807693,170.737864 L405.062274,170.737864 L405.062274,168.796117 L388.807693,168.796117 L388.807693,170.737864 L388.807693,170.737864 Z M388.807693,166.854369 L405.062274,166.854369 L405.062274,164.912621 L388.807693,164.912621 L388.807693,166.854369 L388.807693,166.854369 Z M381.247423,162.194175 L381.247423,153.955139 C381.247423,153.749804 381.300611,153.582971 381.406987,153.454637 C381.513363,153.326302 381.699519,153.262136 381.965459,153.262136 C382.125023,153.262136 382.337773,153.287802 382.603713,153.339136 C382.869654,153.39047 383.215371,153.518803 383.640876,153.724138 L384.119566,153.955139 L410.128415,153.955139 C410.221494,153.813971 410.351138,153.70168 410.517351,153.618262 C410.683564,153.534845 410.84645,153.493137 411.006014,153.493137 C411.218766,153.493137 411.394949,153.538053 411.534568,153.627888 C411.674187,153.717722 411.803831,153.865304 411.923504,154.070639 L413.000557,155.841647 L412.521867,156.49615 L412.521867,161.19317 L410.766669,162.040174 L409.649724,162.040174 L409.649724,161.19317 L384.119566,161.19317 L381.247423,162.194175 L381.247423,162.194175 Z M384.271531,159.087379 L390.697761,159.087379 L390.697761,155.592233 L384.271531,155.592233 L384.271531,159.087379 L384.271531,159.087379 Z M393.343855,159.087379 L400.526112,159.087379 L400.526112,155.592233 L393.343855,155.592233 L393.343855,159.087379 L393.343855,159.087379 Z M403.172206,159.087379 L409.598436,159.087379 L409.598436,155.592233 L403.172206,155.592233 L403.172206,159.087379 L403.172206,159.087379 Z M384.195357,152.097087 L384.195357,150.265565 L395.590343,150.265565 L395.590343,147.279308 L378.979342,147.279308 L378.979342,145.447786 L395.590343,145.447786 L395.590343,142.615676 C395.590343,142.396768 395.623779,142.253112 395.690651,142.184703 C395.757524,142.116294 395.851144,142.054727 395.971514,142 C396.105258,142 396.312559,142.082089 396.593423,142.24627 L399.768059,143.37501 C399.915178,143.402373 399.988737,143.484463 399.988737,143.62128 C399.988737,143.717053 399.921865,143.805983 399.788121,143.888073 L398.800199,144.626885 C398.693203,144.681612 398.612957,144.750019 398.55946,144.83211 C398.505962,144.9142 398.479213,145.009971 398.479213,145.119425 L398.479213,145.447786 L410.75691,145.447786 C410.75691,145.447786 410.871929,145.201516 411.54299,144.626885 C412.21405,144.052254 414.688759,146.065072 415.090214,146.679138 C415.491669,147.293205 415.090214,147.279308 415.090214,147.279308 L398.479213,147.279308 L398.479213,150.265565 L405.540895,150.265565 C405.540895,150.265565 405.722341,149.962529 406.377798,149.610226 C407.033255,149.257922 409.42638,150.908846 409.874199,151.496917 C410.322019,152.084989 409.874199,152.097087 409.874199,152.097087 L384.195357,152.097087 L384.195357,152.097087 Z M229.498172,180.446602 L229.498172,173.419245 L224.749834,173.419245 L224.749834,171.294695 L229.498172,171.294695 L229.498172,167.617589 L227.325204,167.617589 L225.554637,168.516437 L224.910795,168.516437 L224.910795,154.053156 C224.910795,153.835252 224.964448,153.658208 225.071755,153.522018 C225.179063,153.385829 225.366849,153.317735 225.635117,153.317735 C225.796079,153.317735 225.990571,153.341568 226.2186,153.389234 C226.446628,153.4369 226.667947,153.532232 226.882562,153.675231 C227.097177,153.81823 227.271549,153.944204 227.405684,154.053156 L229.498172,154.053156 L229.498172,150.37605 L225.313196,150.37605 L225.313196,148.251501 L229.498172,148.251501 L229.498172,143.38955 C229.498172,143.171646 229.531705,143.028649 229.598772,142.960554 C229.665839,142.892459 229.759732,142.831175 229.880453,142.776699 C230.014587,142.776699 230.222493,142.858412 230.504175,143.021839 L233.663027,144.145399 C233.810575,144.172637 233.884348,144.25435 233.884348,144.39054 C233.884348,144.485873 233.817281,144.574395 233.683147,144.656109 L232.234502,145.39153 C232.127194,145.446006 232.046714,145.514099 231.993061,145.595813 C231.939407,145.677527 231.91258,145.772859 231.91258,145.88181 L231.91258,148.364084 C232.234502,148.364084 234.085548,148.364084 234.729391,147.633669 L236.097556,149.640629 C236.285344,149.749581 236.426183,149.851722 236.520077,149.947055 C236.613971,150.042388 236.660918,150.185385 236.660918,150.37605 L231.91258,150.37605 L231.91258,154.053156 L234.085548,154.053156 C234.24651,153.889728 234.420882,153.767159 234.60867,153.685445 C234.796459,153.603731 235.024484,153.562875 235.292753,153.562875 C235.561022,153.562875 235.789047,153.630969 235.976835,153.767159 C236.164624,153.903349 236.338996,154.134868 236.499957,154.461723 L236.982839,155.442285 L236.499957,155.932565 L236.499957,167.617589 L234.729391,168.516437 L234.085548,168.516437 L234.085548,167.617589 L231.91258,167.617589 L231.91258,170.804414 C232.341811,170.532035 232.636902,170.395847 232.797864,170.395847 C233.106373,170.395847 233.535597,170.572891 234.085548,170.926984 L236.660918,172.683824 C236.848706,172.792776 236.989545,172.894916 237.083439,172.990249 C237.177333,173.085582 237.22428,173.228579 237.22428,173.419245 L231.91258,173.419245 L231.91258,179.547754 L230.142014,180.446602 L229.498172,180.446602 L229.498172,180.446602 Z M227.395929,165.300971 L229.66401,165.300971 L229.66401,161.805825 L227.395929,161.805825 L227.395929,165.300971 L227.395929,165.300971 Z M231.932091,165.300971 L234.200172,165.300971 L234.200172,161.805825 L231.932091,161.805825 L231.932091,165.300971 L231.932091,165.300971 Z M227.395929,159.864078 L229.66401,159.864078 L229.66401,156.368932 L227.395929,156.368932 L227.395929,159.864078 L227.395929,159.864078 Z M231.932091,159.864078 L234.200172,159.864078 L234.200172,156.368932 L231.932091,156.368932 L231.932091,159.864078 L231.932091,159.864078 Z M238.314957,180.446602 L237.641886,179.912678 L237.602293,178.557334 L238.097199,177.776984 C238.981434,178.242458 242.221383,178.393051 247.817142,178.228766 L247.817142,166.071737 L239.958043,166.133344 L239.463138,165.702098 L239.839266,163.669081 L256.448293,163.669081 L257.556881,162.970874 L258.665469,163.751224 L259.140579,164.860142 L259.140579,166.133344 L250.509428,166.071737 L250.509428,178.146624 L258.566488,178.146624 L259.675077,177.20199 L261.417144,178.639476 L261.318163,180.446602 L238.314957,180.446602 L238.314957,180.446602 Z M244.370594,162.194175 L243.577385,161.84466 C243.193999,160.254704 242.638759,158.949177 241.911647,157.928041 C241.184536,156.906905 240.378115,156.053687 239.492361,155.368361 L239.849305,154.15534 C241.343188,152.236427 242.58587,150.255864 243.577385,148.213592 L244.449915,148.830383 L244.806859,151.708738 C243.775682,152.956031 242.658591,153.922327 241.455552,154.607653 C243.121299,155.909772 244.48296,157.55453 245.540577,159.541976 C245.434815,160.624791 245.044825,161.508849 244.370594,162.194175 L244.370594,162.194175 L244.370594,162.194175 Z M251.167114,162.194175 L250.36867,161.84466 C249.982753,160.254704 249.427175,158.949177 248.701917,157.928041 C247.97666,156.906905 247.174897,156.053687 246.296604,155.368361 L246.615982,154.15534 C248.146341,152.236427 249.397225,150.255864 250.36867,148.213592 L251.286881,148.830383 L251.606259,151.708738 C250.568276,152.956031 249.457119,153.922327 248.272754,154.607653 C249.92288,155.909772 251.280222,157.55453 252.34482,159.541976 C252.23836,160.624791 251.845795,161.508849 251.167114,162.194175 L251.167114,162.194175 L251.167114,162.194175 Z M257.620897,162.194175 L256.807858,161.84466 C256.424472,160.254704 255.869231,158.949177 255.14212,157.928041 C254.415008,156.906905 253.608587,156.053687 252.722833,155.368361 L253.079777,154.15534 C254.573661,152.236427 255.816342,150.255864 256.807858,148.213592 L257.700218,148.830383 L258.037331,151.708738 C257.006155,152.956031 255.889064,153.922327 254.686025,154.607653 C256.351771,155.909772 257.713432,157.55453 258.771049,159.541976 C258.665288,160.624791 258.281907,161.508849 257.620897,162.194175 L257.620897,162.194175 L257.620897,162.194175 Z M238.35832,147.048544 L238.418333,144.545847 L257.902584,144.373247 L258.442702,143.553398 L259.262881,144.006472 L260.283103,145.538296 L260.283103,147.048544 L238.35832,147.048544 L238.35832,147.048544 Z M327.104091,181.61165 C326.789442,181.556313 326.599345,181.459474 326.533793,181.321129 C326.468241,181.182785 326.435466,180.975273 326.435466,180.698584 C328.598675,177.710353 330.158785,174.390146 331.115841,170.737864 C331.653366,170.737864 332.095834,170.98688 332.443258,171.484918 C332.790683,171.982957 333.056164,172.757672 333.239709,173.809086 C332.046666,176.520629 330.001481,179.121458 327.104091,181.61165 L327.104091,181.61165 L327.104091,181.61165 Z M343.424746,181.61165 C343.239415,181.61165 343.070635,181.543087 342.918399,181.405957 C342.766163,181.268827 342.690046,181.03571 342.690046,180.706599 C343.709364,178.347967 344.526792,175.358583 345.142354,171.738358 C345.757916,168.118132 346.065692,164.580238 346.065692,161.124568 L346.065692,143.681751 C346.065692,143.462343 346.112024,143.284077 346.204689,143.146948 C346.297355,143.009818 346.449588,142.941254 346.661394,142.941254 C346.793773,142.941254 346.972482,142.968679 347.197526,143.023531 C347.422571,143.078383 347.707181,143.215511 348.051366,143.434919 L348.448501,143.681751 L357.602458,143.681751 C357.774551,143.681751 358.059161,143.544623 358.456298,143.270364 C358.906387,142.941252 359.197616,142.776699 359.329995,142.776699 C359.581515,142.776699 359.932314,142.954965 360.382402,143.311502 L362.507073,145.080467 C362.665928,145.190171 362.781758,145.293017 362.854566,145.389008 C362.927375,145.484999 362.963778,145.628983 362.963778,145.820964 L348.448501,145.820964 L348.448501,152.649992 L359.210854,152.649992 L360.044837,152.979102 L360.362545,154.460095 L360.223548,157.422083 L359.111571,162.605562 L357.503175,167.459931 L355.855065,170.833306 L358.059163,173.795294 L361.176672,176.181339 L362.765211,176.921836 L363.102775,179.883824 L361.712804,180.706599 L359.528562,179.143327 L356.550051,175.687675 L354.623947,172.890242 L351.248301,177.415501 L347.396094,180.706599 L346.919532,179.801547 L350.176038,176.181339 L353.551683,170.668751 L352.102141,167.377653 L350.493745,161.70051 L349.639906,154.789205 L348.448501,154.789205 L348.448501,161.124568 C348.448501,164.854497 347.985182,168.666647 347.058529,172.561132 C346.131877,176.455617 344.920628,179.472426 343.424746,181.61165 L343.424746,181.61165 L343.424746,181.61165 Z M339.496484,180.446602 C338.462373,176.832776 337.132822,173.866247 335.50779,171.546926 C335.64209,171.061486 335.917401,170.791802 336.333732,170.737864 C338.442244,172.194182 340.308988,174.324689 341.934019,177.12945 C341.934019,177.776702 341.776219,178.383492 341.460614,178.949838 C341.145008,179.516184 340.490305,180.0151 339.496484,180.446602 L339.496484,180.446602 L339.496484,180.446602 Z M328.703547,169.572816 L328.703547,143.511958 C328.703547,143.294103 328.747448,143.117098 328.83525,142.980938 C328.923053,142.844778 329.08177,142.776699 329.311408,142.776699 C329.446489,142.776699 329.625468,142.803931 329.848352,142.858395 C330.071235,142.912858 330.365032,143.049016 330.72975,143.266872 L331.134991,143.511958 L338.348273,143.511958 C338.429322,143.362183 338.540762,143.243044 338.682597,143.154541 C338.824432,143.066037 338.962887,143.021785 339.097968,143.021785 C339.287082,143.021785 339.439045,143.069441 339.553864,143.164753 C339.668683,143.260064 339.780123,143.416646 339.888188,143.634502 L340.799979,145.513498 L340.394738,146.207909 L340.394738,168.674165 L338.895348,169.572816 L337.943033,169.572816 L337.943033,168.674165 L331.134991,168.674165 L329.655862,169.572816 L328.703547,169.572816 L328.703547,169.572816 Z M354.916178,168.796117 L356.113406,165.869948 L357.510171,160.749153 L358.1886,155.547076 L357.909247,154.815534 L351.384357,154.815534 L351.923109,160.911718 L353.160244,164.813276 L354.916178,168.796117 L354.916178,168.796117 Z M330.971628,166.854369 L337.775871,166.854369 L337.775871,161.417476 L330.971628,161.417476 L330.971628,166.854369 L330.971628,166.854369 Z M330.971628,159.087379 L337.775871,159.087379 L337.775871,153.650485 L330.971628,153.650485 L330.971628,159.087379 L330.971628,159.087379 Z M330.971628,151.320388 L337.775871,151.320388 L337.775871,145.883495 L330.971628,145.883495 L330.971628,151.320388 L330.971628,151.320388 Z M19.84375,178.953125 L19.84375,156.921875 C18.437493,158.406257 17.0833398,159.682286 15.78125,160.75 C15.520832,160.75 15.3255215,160.671876 15.1953125,160.515625 C15.0651035,160.359374 15,160.164064 15,159.929688 L15.15625,159.421875 C16.7968832,156.895821 18.255202,154.584646 19.53125,152.488281 C20.807298,150.391917 21.8489543,148.380218 22.65625,146.453125 C22.7604172,146.244791 22.8841139,146.075521 23.0273438,145.945312 C23.1705736,145.815104 23.3333324,145.75 23.515625,145.75 C23.8281266,145.75 24.205727,145.893228 24.6484375,146.179688 C25.091148,146.466147 25.4687484,146.830727 25.78125,147.273438 C26.0937516,147.716148 26.25,148.093748 26.25,148.40625 L26.171875,148.953125 C25.7291645,149.89063 24.5573012,151.505197 22.65625,153.796875 L22.65625,178.09375 L20.9375,178.953125 L19.84375,178.953125 L19.84375,178.953125 Z M27.96875,180.90625 L27.5,179.96875 C29.5312602,178.718744 31.3411379,177.35157 32.9296875,175.867188 C34.5182371,174.382805 35.8854109,172.62501 37.03125,170.59375 L33.4375,166.453125 L30.859375,169.03125 C30.2343719,169.083334 29.8177094,168.953127 29.609375,168.640625 L31.015625,166.453125 L32.8125,163.953125 L33.90625,164.246094 L35.9375,166.609375 L37.734375,168.40625 C37.994793,167.260411 38.125,166.166672 38.125,165.125 L38.125,162.703125 L30.7421875,162.996094 L30.15625,162.390625 L30.15625,152.3125 L30.9375,151.375 L32.96875,151.765625 L38.125,151.765625 L38.125,147.78125 L28.59375,147.78125 L28.046875,146.53125 L28.59375,145.75 L49.53125,145.75 L50.703125,146.21875 L50.3125,147.78125 L40.9375,147.78125 L40.9375,151.765625 L48.359375,151.472656 L48.90625,152 L48.90625,162.703125 L47.890625,163.5625 L46.71875,163.5625 L46.09375,162.703125 L41.015625,162.703125 L41.015625,165.125 C40.9635414,167.15626 40.5208375,169.0052 39.6875,170.671875 C40.1041687,171.140627 41.1718664,172.104159 42.890625,173.5625 C45.5989719,175.697927 48.2551953,177.078122 50.859375,177.703125 C50.598957,179.161466 49.9479219,180.229163 48.90625,180.90625 L44.296875,177.78125 C42.4218656,176.374993 40.520843,174.604177 38.59375,172.46875 C37.1354094,174.656261 35.3385523,176.518221 33.203125,178.054688 C31.0676977,179.591154 29.3229234,180.541665 27.96875,180.90625 L27.96875,180.90625 Z M32.96875,160.671875 L38.125,160.671875 L38.125,158.25 L32.96875,158.25 L32.96875,160.671875 L32.96875,160.671875 Z M40.9375,160.671875 L46.09375,160.671875 L46.09375,158.25 L40.9375,158.25 L40.9375,160.671875 L40.9375,160.671875 Z M32.96875,156.21875 L38.125,156.21875 L38.125,153.796875 L32.96875,153.796875 L32.96875,156.21875 L32.96875,156.21875 Z M40.9375,156.21875 L46.09375,156.21875 L46.09375,153.796875 L40.9375,153.796875 L40.9375,156.21875 L40.9375,156.21875 Z M72.9875002,181.765625 L72.9875002,163.71875 C71.6333268,167.62502 69.4979314,172.052059 66.5812502,177 C66.0083307,176.947916 65.7218752,176.713544 65.7218752,176.296875 C67.8573025,170.72393 69.7322838,165.177111 71.3468752,159.65625 L65.9562502,159.65625 L65.9562502,157.625 L72.9875002,157.625 L72.9875002,150.203125 C71.216658,150.463543 69.4979252,150.645833 67.8312502,150.75 C67.3104143,150.593749 67.0239588,150.307294 66.9718752,149.890625 C70.201058,149.109371 72.83124,148.315108 74.8625002,147.507812 C76.8937603,146.700517 78.6385346,145.82813 80.0968752,144.890625 C80.4614603,144.890625 80.7869779,145.124998 81.0734377,145.59375 C81.3598975,146.062502 81.555208,146.791662 81.6593752,147.78125 C80.148951,148.614587 78.1958455,149.291664 75.8000002,149.8125 L75.8000002,157.625 L77.0500002,157.625 C77.2583346,157.625 77.5968728,157.494793 78.0656252,157.234375 C78.5864611,156.921873 78.9249994,156.765625 79.0812502,156.765625 C79.3807309,156.765625 79.7973934,156.934894 80.3312502,157.273438 L82.8312502,158.953125 C83.0135428,159.057292 83.1502602,159.154947 83.2414064,159.246094 C83.3325527,159.33724 83.3781252,159.473957 83.3781252,159.65625 L76.1906252,159.65625 C78.9510557,161.947928 81.1645752,165.046855 82.8312502,168.953125 C82.8312502,169.838546 82.5708361,170.541664 82.0500002,171.0625 C81.5291643,171.583336 80.9562533,171.921874 80.3312502,172.078125 C79.8624978,170.046865 79.2505248,168.184904 78.4953127,166.492188 C77.7401006,164.799471 76.8416721,163.197924 75.8000002,161.6875 L75.8000002,180.90625 L74.0812502,181.765625 L72.9875002,181.765625 L72.9875002,181.765625 Z M94.5500002,181.765625 C93.3520775,180.307284 92.0500072,179.369794 90.6437502,178.953125 C90.3312486,178.901041 90.096876,178.796876 89.9406252,178.640625 C89.7843744,178.484374 89.7062502,178.302084 89.7062502,178.09375 C89.7062502,177.885416 89.7843744,177.729167 89.9406252,177.625 C90.096876,177.520833 90.3312486,177.46875 90.6437502,177.46875 C91.0083353,177.46875 91.4770807,177.520833 92.0500002,177.625 C92.6229197,177.729167 93.3195273,177.957029 94.1398439,178.308594 L95.5656252,179.03125 C95.7739596,177.989578 95.8781252,177.234377 95.8781252,176.765625 L95.8781252,145.476562 C95.8781252,145.268228 95.9106769,145.131511 95.9757814,145.066406 C96.0408859,145.001302 96.1320309,144.942709 96.2492189,144.890625 C96.3794279,144.890625 96.5812488,144.968749 96.8546877,145.125 L100.389844,146.199219 C100.533074,146.225261 100.604688,146.303385 100.604688,146.433594 C100.604688,146.52474 100.539584,146.609375 100.409375,146.6875 L99.0031252,147.390625 C98.898958,147.442709 98.8208338,147.507812 98.7687502,147.585938 C98.7166666,147.664063 98.6906252,147.755208 98.6906252,147.859375 L98.6906252,177.46875 L97.3625002,180.90625 L95.6437502,181.765625 L94.5500002,181.765625 L94.5500002,181.765625 Z M86.6593752,170.359375 L86.6593752,152.898438 C86.6593752,152.690103 86.6919269,152.553386 86.7570314,152.488281 C86.8221359,152.423177 86.9132809,152.364584 87.0304689,152.3125 C87.1606779,152.3125 87.3624988,152.390624 87.6359377,152.546875 L91.1710939,153.621094 C91.3143238,153.647136 91.3859377,153.72526 91.3859377,153.855469 C91.3859377,153.946615 91.3208342,154.03125 91.1906252,154.109375 L89.7843752,154.8125 C89.680208,154.864584 89.6020838,154.929687 89.5500002,155.007812 C89.4979166,155.085938 89.4718752,155.177083 89.4718752,155.28125 L89.4718752,169.5 L87.7531252,170.359375 L86.6593752,170.359375 L86.6593752,170.359375 Z M122.38125,180.203125 C121.886456,180.203125 121.385159,179.942711 120.877344,179.421875 C120.369529,178.901039 120.102605,178.093755 120.076563,177 L120.428125,175.28125 C120.219791,174.604163 119.920315,174.031252 119.529688,173.5625 C119.139061,173.093748 118.657295,172.598961 118.084375,172.078125 C117.823957,171.869791 117.667709,171.635418 117.615625,171.375 C117.719793,171.062498 118.006248,170.854167 118.475,170.75 C119.100004,170.75 120.063536,171.036455 121.365625,171.609375 C121.938545,168.953112 122.693746,165.750019 123.63125,162 L126.75625,149.890625 C127.225003,149.890625 127.576562,150.007811 127.810938,150.242188 C128.045314,150.476564 128.1625,150.723957 128.1625,150.984375 L125.428125,162.546875 C124.386454,167.182315 123.891667,171.114567 123.94375,174.34375 C124.308336,176.062509 124.490625,177.286455 124.490625,178.015625 C124.490625,178.588545 124.275784,179.096352 123.846094,179.539062 C123.416404,179.981773 122.928128,180.203125 122.38125,180.203125 L122.38125,180.203125 Z M119.646875,162.78125 C119.230207,161.557286 118.780992,160.489588 118.299219,159.578125 C117.817446,158.666662 117.198962,157.781254 116.44375,156.921875 C116.44375,156.609373 116.502344,156.388021 116.619532,156.257812 C116.73672,156.127604 116.912499,156.0625 117.146875,156.0625 C117.876046,156.244793 118.780985,156.694007 119.861719,157.410156 C120.942454,158.126306 121.756248,158.848955 122.303125,159.578125 C122.251042,160.333337 121.971097,161.010414 121.463282,161.609375 C120.955467,162.208336 120.350004,162.598957 119.646875,162.78125 L119.646875,162.78125 Z M122.225,152.78125 C121.808332,151.557286 121.359117,150.489588 120.877344,149.578125 C120.395571,148.666662 119.777087,147.781254 119.021875,146.921875 C119.021875,146.609373 119.080469,146.388021 119.197657,146.257812 C119.314845,146.127604 119.490624,146.0625 119.725,146.0625 C120.454171,146.244793 121.35911,146.694007 122.439844,147.410156 C123.520579,148.126306 124.334373,148.848955 124.88125,149.578125 C124.829167,150.333337 124.549222,151.010414 124.041407,151.609375 C123.533592,152.208336 122.928129,152.598957 122.225,152.78125 L122.225,152.78125 Z M131.678125,181.765625 L131.678125,174.324219 L129.1,174.265625 L129.1,172.234375 L131.678125,172.234375 L131.678125,169.734375 L129.1,169.734375 L129.1,167.703125 L131.678125,167.703125 L131.678125,163.171875 C131.678125,162.963541 131.730208,162.794271 131.834375,162.664062 C131.938543,162.533854 132.120832,162.46875 132.38125,162.46875 C132.537501,162.46875 132.745832,162.494791 133.00625,162.546875 C133.266668,162.598959 133.605207,162.729166 134.021875,162.9375 L134.490625,163.171875 L139.4125,163.171875 L139.4125,160.359375 L129.1,160.359375 L129.1,158.328125 L135.50625,158.328125 L135.50625,155.671875 L131.44375,155.671875 L131.44375,153.640625 L135.50625,153.640625 L135.50625,150.984375 L130.0375,150.984375 L130.0375,148.953125 L135.50625,148.953125 L135.50625,145.476562 C135.50625,145.268228 135.538802,145.131511 135.603907,145.066406 C135.669011,145.001302 135.760156,144.942709 135.877344,144.890625 C136.007553,144.890625 136.209374,144.968749 136.482813,145.125 L140.017969,146.199219 C140.161199,146.225261 140.232813,146.303385 140.232813,146.433594 C140.232813,146.52474 140.167709,146.609375 140.0375,146.6875 L138.63125,147.390625 C138.527083,147.442709 138.448959,147.507812 138.396875,147.585938 C138.344792,147.664063 138.31875,147.755208 138.31875,147.859375 L138.31875,148.953125 L143.31875,148.953125 L143.31875,145.476562 C143.31875,145.268228 143.351302,145.131511 143.416407,145.066406 C143.481511,145.001302 143.572656,144.942709 143.689844,144.890625 C143.820053,144.890625 144.021874,144.968749 144.295313,145.125 L147.830469,146.199219 C147.973699,146.225261 148.045313,146.303385 148.045313,146.433594 C148.045313,146.52474 147.980209,146.609375 147.85,146.6875 L146.44375,147.390625 C146.339583,147.442709 146.261459,147.507812 146.209375,147.585938 C146.157292,147.664063 146.13125,147.755208 146.13125,147.859375 L146.13125,148.953125 L149.56875,148.953125 C149.985419,148.796874 150.271875,148.510419 150.428125,148.09375 C151.105212,148.510419 151.495833,149.109371 151.6,149.890625 L151.6,150.515625 C151.547917,150.776043 151.391668,150.932291 151.13125,150.984375 L146.13125,150.984375 L146.13125,153.640625 L148.1625,153.640625 C148.579169,153.484374 148.865625,153.197919 149.021875,152.78125 C149.698962,153.197919 150.089583,153.796871 150.19375,154.578125 L150.19375,155.203125 C150.141667,155.463543 149.985418,155.619791 149.725,155.671875 L146.13125,155.671875 L146.13125,158.328125 L146.75625,158.328125 C146.964585,158.328125 147.303123,158.197918 147.771875,157.9375 C148.292711,157.624998 148.63125,157.46875 148.7875,157.46875 C149.086981,157.46875 149.503644,157.638019 150.0375,157.976562 L152.5375,159.65625 C152.719793,159.760417 152.85651,159.858072 152.947657,159.949219 C153.038803,160.040365 153.084375,160.177082 153.084375,160.359375 L142.225,160.359375 L142.225,163.171875 L147.615625,163.171875 C147.771876,163.015624 147.941145,162.898438 148.123438,162.820312 C148.30573,162.742187 148.527082,162.703125 148.7875,162.703125 C149.047918,162.703125 149.26927,162.768229 149.451563,162.898438 C149.633855,163.028646 149.803125,163.249998 149.959375,163.5625 L150.428125,164.5 L149.959375,164.96875 L149.959375,167.078125 L152.342188,168.738281 C152.52448,168.855469 152.661198,168.959635 152.752344,169.050781 C152.84349,169.141928 152.889063,169.265624 152.889063,169.421875 C152.889063,169.539063 152.850001,169.630208 152.771875,169.695312 C152.69375,169.760417 152.550522,169.792969 152.342188,169.792969 L149.959375,169.734375 L149.959375,171.609375 L152.342188,173.269531 C152.52448,173.386719 152.661198,173.490885 152.752344,173.582031 C152.84349,173.673178 152.889063,173.796874 152.889063,173.953125 C152.889063,174.070313 152.850001,174.161458 152.771875,174.226562 C152.69375,174.291667 152.550522,174.324219 152.342188,174.324219 L149.959375,174.265625 L149.959375,177.507812 L148.63125,180.90625 L146.9125,181.765625 L145.81875,181.765625 C144.620828,180.307284 143.318757,179.369794 141.9125,178.953125 C141.599999,178.901041 141.365626,178.796876 141.209375,178.640625 C141.053125,178.484374 140.975,178.302084 140.975,178.09375 C140.975,177.885416 141.053125,177.729167 141.209375,177.625 C141.365626,177.520833 141.599999,177.46875 141.9125,177.46875 C142.277086,177.46875 142.745831,177.520833 143.31875,177.625 C143.89167,177.729167 144.588278,177.957029 145.408594,178.308594 L146.834375,179.03125 C147.04271,177.989578 147.146875,177.234377 147.146875,176.765625 L147.146875,174.265625 L134.490625,174.324219 L134.490625,180.90625 L132.771875,181.765625 L131.678125,181.765625 L131.678125,181.765625 Z M134.490625,172.234375 L139.4125,172.234375 L139.4125,169.734375 L134.490625,169.734375 L134.490625,172.234375 L134.490625,172.234375 Z M142.225,172.234375 L145.0375,172.234375 C145.506253,172.234375 145.948957,172.166016 146.365625,172.029297 C146.782294,171.892577 147.042708,171.785157 147.146875,171.707031 L147.225,169.734375 L142.225,169.734375 L142.225,172.234375 L142.225,172.234375 Z M134.490625,167.703125 L139.4125,167.703125 L139.4125,165.203125 L134.490625,165.203125 L134.490625,167.703125 L134.490625,167.703125 Z M142.225,167.703125 L145.0375,167.703125 C145.506253,167.703125 145.948957,167.634766 146.365625,167.498047 C146.782294,167.361327 147.042708,167.253907 147.146875,167.175781 L147.225,165.203125 L142.225,165.203125 L142.225,167.703125 L142.225,167.703125 Z M138.31875,158.328125 L143.31875,158.328125 L143.31875,155.671875 L138.31875,155.671875 L138.31875,158.328125 L138.31875,158.328125 Z M138.31875,153.640625 L143.31875,153.640625 L143.31875,150.984375 L138.31875,150.984375 L138.31875,153.640625 L138.31875,153.640625 Z M188.181251,180.90625 C181.306216,180.645832 176.853136,178.614602 174.821876,174.8125 L170.993751,180.671875 L170.290626,180.75 C169.821873,180.75 169.275004,180.489586 168.650001,179.96875 C168.024997,179.447914 167.712501,179.057293 167.712501,178.796875 L168.181251,178.015625 L173.884376,172.3125 C173.676041,171.401037 173.545834,170.463546 173.493751,169.5 L173.493751,163.875 L167.478126,163.875 L167.478126,161.84375 L173.962501,161.84375 C174.118751,161.687499 174.28802,161.570313 174.470313,161.492188 C174.652606,161.414062 174.873958,161.375 175.134376,161.375 C175.394794,161.375 175.616145,161.440104 175.798438,161.570312 C175.980731,161.700521 176.15,161.921873 176.306251,162.234375 L176.775001,163.171875 L176.306251,163.640625 L176.306251,169.5 C176.462501,174.760443 180.420795,177.520832 188.181251,177.78125 L196.696876,177.78125 C198.415634,177.651041 199.873953,177.390627 201.071876,177 L202.009376,176.84375 C202.686462,176.84375 203.181249,177.598951 203.493751,179.109375 C203.493751,179.526044 203.29844,180.124996 202.907813,180.90625 L188.181251,180.90625 L188.181251,180.90625 Z M179.900001,175.046875 L179.900001,153.679688 C180.368753,153.13281 180.785415,152.859375 181.150001,152.859375 L182.712501,153.679688 L190.993751,153.679688 C190.577082,152.208326 190.004171,150.632821 189.275001,148.953125 L190.212501,148.40625 C190.564065,148.770835 191.293224,149.747388 192.400001,151.335938 L196.306251,147.488281 L179.665626,147.488281 L179.665626,145.515625 L198.025001,145.515625 L198.806251,145.046875 L199.587501,145.808594 C200.108337,146.47266 200.368751,147.065102 200.368751,147.585938 L199.509376,148.484375 L192.946876,152.15625 L193.962501,153.679688 L201.696876,153.679688 C202.63438,153.796876 203.18125,154.311193 203.337501,155.222656 L203.337501,172.742188 L201.853126,175.046875 L200.603126,175.046875 L199.196876,173.816406 C198.363538,173.399738 197.530213,173.165365 196.696876,173.113281 C196.748959,172.592445 196.95729,172.214845 197.321876,171.980469 C197.894795,171.667967 198.72812,171.739581 199.821876,172.195312 L200.525001,171.511719 L200.525001,165.613281 L193.025001,165.613281 L193.025001,174.1875 L191.306251,175.046875 L190.212501,175.046875 L190.212501,165.613281 L182.712501,165.613281 L182.712501,174.1875 L180.993751,175.046875 L179.900001,175.046875 L179.900001,175.046875 Z M182.712501,163.621094 L190.212501,163.621094 L190.212501,160.652344 L182.712501,160.652344 L182.712501,163.621094 L182.712501,163.621094 Z M193.025001,163.621094 L200.525001,163.621094 L200.525001,160.652344 L193.025001,160.652344 L193.025001,163.621094 L193.025001,163.621094 Z M182.712501,158.640625 L190.212501,158.640625 L190.212501,155.671875 L182.712501,155.671875 L182.712501,158.640625 L182.712501,158.640625 Z M193.025001,158.640625 L200.525001,158.640625 L200.525001,155.671875 L193.025001,155.671875 L193.025001,158.640625 L193.025001,158.640625 Z M174.743751,158.484375 C173.28541,156.557282 171.462512,154.812508 169.275001,153.25 C169.275001,152.729164 169.483332,152.390626 169.900001,152.234375 C172.764598,153.067712 175.316656,154.291659 177.556251,155.90625 C177.556251,156.375002 177.295837,156.921872 176.775001,157.546875 C176.254165,158.171878 175.577088,158.484375 174.743751,158.484375 L174.743751,158.484375 Z M176.228126,152.078125 C174.769785,150.151032 172.946887,148.406258 170.759376,146.84375 C170.759376,146.322914 170.967707,145.984376 171.384376,145.828125 C174.248973,146.661462 176.801031,147.885409 179.040626,149.5 C179.040626,149.968752 178.780212,150.515622 178.259376,151.140625 C177.73854,151.765628 177.061463,152.078125 176.228126,152.078125 L176.228126,152.078125 Z" id="Text-2" opacity="0.7" fill="#000000" sketch:type="MSShapeGroup"></path>
            </g>
        </g>
    </g>
</svg>