<?xml version="1.0" encoding="utf-8"?>
<!-- Generator: Adobe Illustrator 17.0.0, SVG Export Plug-In . SVG Version: 6.00 Build 0)  -->
<!DOCTYPE svg PUBLIC "-//W3C//DTD SVG 1.1//EN" "http://www.w3.org/Graphics/SVG/1.1/DTD/svg11.dtd">
<svg version="1.1" id="Layer_1" xmlns:sketch="http://www.bohemiancoding.com/sketch/ns"
	 xmlns="http://www.w3.org/2000/svg" xmlns:xlink="http://www.w3.org/1999/xlink" x="0px" y="0px" width="70px" height="70px"
	 viewBox="0 0 70 70" enable-background="new 0 0 70 70" xml:space="preserve">
<title>purchased</title>
<description>Created with Sketch (http://www.bohemiancoding.com/sketch)</description>
<g id="Web" sketch:type="MSPage">
	<g id="Items" transform="translate(-21.000000, -424.000000)" sketch:type="MSArtboardGroup">
		<path id="purchased" sketch:type="MSShapeGroup" fill="#F75E50" d="M50,487.857l6.985-6.985l2.121,2.121l-8.485,8.485
			l-2.121,2.121l-2.121-2.121l-8.485-8.485l2.121-2.121L47,487.857v-27.985c0.548-7.265,6.604-13,14-13c7.732,0,14,6.268,14,14
			c0,7.732-6.268,14-14,14h-6v-3h5.774c0.075-0.001,0.151,0,0.226,0c6.075,0,11-4.925,11-11s-4.925-11-11-11
			c-5.872,0-10.669,4.6-10.984,10.393L50,487.857z"/>
	</g>
</g>
</svg>
