<?xml version="1.0" encoding="UTF-8" standalone="no"?>
<svg width="64px" height="64px" viewBox="0 0 64 64" version="1.1" xmlns="http://www.w3.org/2000/svg" xmlns:xlink="http://www.w3.org/1999/xlink" xmlns:sketch="http://www.bohemiancoding.com/sketch/ns">
    <title>convenient-store</title>
    <description>Created with Sketch (http://www.bohemiancoding.com/sketch)</description>
    <defs></defs>
    <g id="Items" stroke="none" stroke-width="1" fill="none" fill-rule="evenodd" sketch:type="MSPage">
        <g id="Artboard-1" sketch:type="MSArtboardGroup" transform="translate(-123.000000, -96.000000)" fill="#F75E50">
            <path d="M169.4081,103.029808 C166.18159,104.225674 156.36027,110.798739 153.90732,115.217764 L136.679206,115.217764 L136.641803,103.029808 L169.4081,103.029808 Z M162.271288,153.388 L148.069408,153.388 C148.069408,147.744195 148.302326,142.368342 148.769182,137.954696 L162.755485,137.954696 C162.288629,142.368342 162.271288,147.744195 162.271288,153.388 Z M140.788084,127.834712 L140.788084,129.866038 L138.516368,129.866038 L138.516368,131.576965 L140.788084,131.576965 L140.788084,133.287891 L138.516368,133.287891 L138.516368,134.998145 L140.788084,134.998145 L140.788084,136.958197 L135.597922,136.958197 L135.597922,127.834712 L140.788084,127.834712 Z M152.863439,127.834712 L152.863439,129.866038 L150.592063,129.866038 L150.592063,131.576965 L152.863439,131.576965 L152.863439,133.287891 L150.592063,133.287891 L150.592063,134.998145 L152.863439,134.998145 L152.863439,136.958197 L147.672937,136.958197 L147.672937,127.834712 L152.863439,127.834712 Z M166.163909,127.834712 L166.163909,129.866038 L163.891853,129.866038 L163.891853,131.576965 L166.163909,131.576965 L166.163909,133.287891 L163.891853,133.287891 L163.891853,134.998145 L166.163909,134.998145 L166.163909,136.958197 L160.973747,136.958197 L160.973747,127.834712 L166.163909,127.834712 Z M146.951741,134.998145 L146.951741,136.958197 L141.761579,136.958197 L141.761579,127.834712 L144.680705,127.834712 L144.680705,134.998145 L146.951741,134.998145 Z M154.840692,136.958197 L158.593563,136.958197 L160.350819,127.834712 L158.179751,127.834712 L157.043383,133.999965 L155.942377,127.834712 L153.3932,127.834712 L154.840692,136.958197 Z M170.200362,127.834712 L170.200362,136.958533 L167.389024,136.958533 L167.389024,127.834712 L170.200362,127.834712 Z M171.786924,130.382779 L171.786924,136.958197 L174.597922,136.958197 L174.597922,129.224567 C174.597922,127.585251 172.256501,126.925961 170.218043,128.369272 L170.200362,130.543819 C170.345553,129.545639 171.786924,129.812582 171.786924,130.382779 Z M173.878086,115.860244 L173.878086,102.388 C160.991768,108.089968 152.609099,116.715203 150.797439,126.516805 L164.073767,126.551097 C164.361089,123.058978 169.192183,117.356674 173.878086,115.860244 Z M166.491354,142.375739 C165.974854,142.375739 165.53486,142.194862 165.173752,141.834119 C164.812984,141.475392 164.63243,141.039676 164.63243,140.528314 C164.63243,140.023341 164.815025,139.589978 165.179533,139.22957 C165.540981,138.872861 165.977915,138.693666 166.491354,138.693666 C167.006494,138.693666 167.446828,138.872861 167.809976,139.22957 C168.174825,139.587288 168.356739,140.020651 168.356739,140.528314 C168.356739,141.037995 168.174825,141.473375 167.809976,141.834119 C167.446828,142.194862 167.006494,142.375739 166.491354,142.375739 Z M164.88881,140.530668 C164.88881,140.9721 165.042502,141.3473 165.354986,141.657277 C165.66577,141.968263 166.0449,142.123252 166.490674,142.123252 C166.936789,142.123252 167.314898,141.968263 167.628062,141.657277 C167.939526,141.3473 168.094918,140.9721 168.094918,140.530668 C168.094918,140.093943 167.939526,139.72076 167.628062,139.411791 C167.312858,139.101478 166.934069,138.946489 166.490674,138.946489 C166.0483,138.946489 165.669851,139.101478 165.355666,139.411791 C165.043522,139.72076 164.88881,140.093943 164.88881,140.530668 Z M167.016015,139.584262 C167.228191,139.671338 167.33462,139.842801 167.33462,140.096969 C167.33462,140.277509 167.268314,140.411317 167.136044,140.496039 C167.066339,140.541426 166.967391,140.574038 166.841921,140.593201 C166.999014,140.618416 167.114963,140.684984 167.187388,140.792232 C167.261514,140.898808 167.299597,141.00303 167.299597,141.105235 L167.299597,141.253164 C167.299597,141.299896 167.299597,141.349653 167.303337,141.403109 C167.306057,141.455893 167.312858,141.492203 167.321359,141.50834 L167.33462,141.534228 L166.997994,141.534228 C166.997994,141.526831 166.994933,141.52078 166.993913,141.514392 C166.992553,141.507332 166.991193,141.498927 166.988473,141.491194 L166.982692,141.426643 L166.982692,141.266612 C166.982692,141.033288 166.917067,140.879308 166.788197,140.803999 C166.710331,140.760293 166.576361,140.739112 166.384926,140.739112 L166.098624,140.739112 L166.098624,141.534228 L165.740916,141.534228 L165.740916,139.511643 L166.457352,139.511643 C166.711691,139.511643 166.899046,139.536858 167.016015,139.584262 Z M166.409408,139.76413 L166.098624,139.76413 L166.098624,140.486626 L166.427429,140.486626 C166.582141,140.486626 166.69707,140.472169 166.774256,140.443256 C166.917067,140.388119 166.987453,140.284233 166.987453,140.130253 C166.987453,139.986022 166.941549,139.887852 166.850422,139.83843 C166.758275,139.789345 166.612404,139.76413 166.409408,139.76413 Z" id="convenient-store" sketch:type="MSShapeGroup"></path>
        </g>
    </g>
</svg>