<?xml version="1.0" encoding="UTF-8" standalone="no"?>
<svg width="70px" height="70px" viewBox="0 0 70 70" version="1.1" xmlns="http://www.w3.org/2000/svg" xmlns:xlink="http://www.w3.org/1999/xlink" xmlns:sketch="http://www.bohemiancoding.com/sketch/ns">
    <title>facebook</title>
    <description>Created with Sketch (http://www.bohemiancoding.com/sketch)</description>
    <defs></defs>
    <g id="Web" stroke="none" stroke-width="1" fill="none" fill-rule="evenodd" sketch:type="MSPage">
        <g id="Product-Detail---Landscape" sketch:type="MSArtboardGroup" transform="translate(-1222.000000, -416.000000)" fill="#F75E50">
            <path d="M1257,429 C1243.15723,429 1232,440.230469 1232,454 C1232,467.842773 1243.15723,479 1257,479 C1270.76953,479 1282,467.842773 1282,454 C1282,440.230469 1270.76953,429 1257,429 Z M1259.0752,449.898438 L1265.3252,449.898438 L1264.93457,456.075195 L1259.0752,456.075195 L1259.0752,471.700195 L1251.7998,471.700195 L1251.7998,456.075195 L1247.625,456.075195 L1247.625,449.825195 L1251.7998,449.825195 L1251.7998,444.161133 C1251.7998,439.986328 1254.46094,436.299805 1260.58887,436.299805 C1263.5918,436.299805 1265.3252,436.641602 1265.3252,436.641602 L1265.03223,442.549805 L1261.63867,442.549805 C1259.44141,442.549805 1259.0752,443.648438 1259.0752,445.381836 L1259.0752,449.898438 Z" id="facebook" sketch:type="MSShapeGroup"></path>
        </g>
    </g>
</svg>