<?xml version="1.0" encoding="utf-8"?>
<!-- Generator: Adobe Illustrator 17.0.0, SVG Export Plug-In . SVG Version: 6.00 Build 0)  -->
<!DOCTYPE svg PUBLIC "-//W3C//DTD SVG 1.1//EN" "http://www.w3.org/Graphics/SVG/1.1/DTD/svg11.dtd">
<svg version="1.1" id="Layer_1" xmlns:sketch="http://www.bohemiancoding.com/sketch/ns"
	 xmlns="http://www.w3.org/2000/svg" xmlns:xlink="http://www.w3.org/1999/xlink" x="0px" y="0px" width="70px" height="70px"
	 viewBox="0 0 70 70" enable-background="new 0 0 70 70" xml:space="preserve">
<title>orders</title>
<description>Created with Sketch (http://www.bohemiancoding.com/sketch)</description>
<g id="Web" sketch:type="MSPage">
	<g id="Items" transform="translate(-21.000000, -338.000000)" sketch:type="MSArtboardGroup">
		<path id="orders" sketch:type="MSShapeGroup" fill="#F75E50" d="M62,404v3h-3v-3h-3v3h-3v-3h-3v3h-3v-3h-3v3h-3v-3v-45h33v45v3h-3
			v-3h-3v3h-3v-3H62z M71,401v-39H44v39H71z M55.621,390.743l-6.364-6.364l2.121-2.121l4.121,4.121l9.95-9.95l2.121,2.121
			l-9.95,9.95l0.121,0.121L55.621,390.743z M47,368h12v-3H47V368z M47,373h16v-3H47V373z"/>
	</g>
</g>
</svg>
