<?xml version="1.0" encoding="utf-8"?>
<!-- Generator: Adobe Illustrator 17.0.0, SVG Export Plug-In . SVG Version: 6.00 Build 0)  -->
<!DOCTYPE svg PUBLIC "-//W3C//DTD SVG 1.1//EN" "http://www.w3.org/Graphics/SVG/1.1/DTD/svg11.dtd">
<svg version="1.1" id="Layer_1" xmlns:sketch="http://www.bohemiancoding.com/sketch/ns"
	 xmlns="http://www.w3.org/2000/svg" xmlns:xlink="http://www.w3.org/1999/xlink" x="0px" y="0px" width="64px" height="64px"
	 viewBox="0 0 64 64" enable-background="new 0 0 64 64" xml:space="preserve">
<title>pickup</title>
<description>Created with Sketch (http://www.bohemiancoding.com/sketch)</description>
<g id="Items" sketch:type="MSPage">
	<g id="Artboard-1" transform="translate(-537.000000, -96.000000)" sketch:type="MSArtboardGroup">
		<path id="pickup" sketch:type="MSShapeGroup" fill="#F75E50" d="M568.5,136.667c1.021,0,2.042-0.057,3.062-0.227v14.519
			c0,0,0,2.042-3.062,2.042s-3.062-2.042-3.062-2.042V136.44C566.458,136.61,567.479,136.667,568.5,136.667z M568.5,104
			c7.883,0,14.292,6.409,14.292,14.292s-6.409,14.292-14.292,14.292s-14.292-6.409-14.292-14.292S560.617,104,568.5,104z
			 M572.073,119.312c2.552,0,4.594-2.042,4.594-4.594c0-2.552-2.042-4.594-4.594-4.594c-2.552,0-4.594,2.042-4.594,4.594
			C567.479,117.271,569.521,119.312,572.073,119.312z"/>
	</g>
</g>
</svg>
