<?xml version="1.0" encoding="utf-8"?>
<!-- Generator: Adobe Illustrator 17.0.0, SVG Export Plug-In . SVG Version: 6.00 Build 0)  -->
<!DOCTYPE svg PUBLIC "-//W3C//DTD SVG 1.1//EN" "http://www.w3.org/Graphics/SVG/1.1/DTD/svg11.dtd">
<svg version="1.1" id="Layer_1" xmlns:sketch="http://www.bohemiancoding.com/sketch/ns"
	 xmlns="http://www.w3.org/2000/svg" xmlns:xlink="http://www.w3.org/1999/xlink" x="0px" y="0px" width="70px" height="70px"
	 viewBox="0 0 70 70" enable-background="new 0 0 70 70" xml:space="preserve">
<title>profile</title>
<description>Created with Sketch (http://www.bohemiancoding.com/sketch)</description>
<g id="Web" sketch:type="MSPage">
	<g id="Profile---Selling" transform="translate(-14.000000, -89.000000)" sketch:type="MSArtboardGroup">
		<path id="profile" sketch:type="MSShapeGroup" fill="#979290" d="M49,110c-12.703,0-23,10.297-23,23
			c0,7.216,3.323,13.656,8.522,17.872c0.764-0.559,1.924-0.928,1.924-0.928s2.553-0.873,5.869-1.576
			c0.711-2.462,2.527-5.401,0.871-7.813c-1.007-3.207-1.64-2.688-2.342-5.887c-0.338-1.542-1.349-1.172-1.62-1.882
			s-1.562-3.96,0.53-4.311c-0.451-1.541-0.079-1.232-0.53-2.174c0,0-0.958-5.584,2.34-7.625s0.699-3.143,7.948-3.143
			s8.631,4.394,8.631,6.113s1.003,2.824,0.083,4.738s0.9,1.356,1.084,2.693c-0.184,1.454-0.569,3.277-0.569,3.277l-0.943,0.771
			c0,0-0.63,5.111-2.619,7.429c-1.196,1.394-0.372,4.978,0.475,7.615c2.996,0.601,6.83,1.485,8.501,2.131
			C68.964,146.085,72,139.897,72,133C72,120.297,61.703,110,49,110z M49,108c13.807,0,25,11.193,25,25s-11.193,25-25,25
			s-25-11.193-25-25S35.193,108,49,108z"/>
	</g>
</g>
</svg>
