<?xml version="1.0" encoding="utf-8"?>
<!-- Generator: Adobe Illustrator 17.0.0, SVG Export Plug-In . SVG Version: 6.00 Build 0)  -->
<!DOCTYPE svg PUBLIC "-//W3C//DTD SVG 1.1//EN" "http://www.w3.org/Graphics/SVG/1.1/DTD/svg11.dtd">
<svg version="1.1" id="Layer_1" xmlns:sketch="http://www.bohemiancoding.com/sketch/ns"
	 xmlns="http://www.w3.org/2000/svg" xmlns:xlink="http://www.w3.org/1999/xlink" x="0px" y="0px" width="70px" height="70px"
	 viewBox="0 0 70 70" enable-background="new 0 0 70 70" xml:space="preserve">
<title>selling</title>
<description>Created with Sketch (http://www.bohemiancoding.com/sketch)</description>
<g>
	<path fill="#F75E50" d="M63.385,48.151l-15.56-15.56c-5.075-5.075-13.304-5.073-18.381,0.004
		c-5.075,5.075-5.076,13.308-0.004,18.381L45,66.536c1.95,1.95,5.118,1.953,7.065,0.006l11.327-11.327
		C65.343,53.264,65.337,50.104,63.385,48.151z M61.418,53.094L50.091,64.421c-0.773,0.773-2.041,0.775-2.822-0.006l-15.56-15.56
		c-3.899-3.899-3.901-10.233,0.004-14.138c3.906-3.906,10.235-3.907,14.138-0.004l15.56,15.56
		C62.195,51.056,62.195,52.317,61.418,53.094z"/>
	<path fill="#F75E50" d="M17.906,39.515c-1.465,0.874-2.409,2.22-2.409,4.028v12.242c0,2.178-1.148,4.171-2.971,5.185
		c-2.7,1.501-6.056,0.441-7.515-2.399l-2.669,1.371c2.226,4.335,7.446,5.983,11.641,3.65c2.784-1.548,4.513-4.549,4.513-7.806
		V43.543c0-0.627,0.314-1.075,0.946-1.451c0.26-0.155,0.238-0.289,0.842-0.373s3.119,0.084,3.119,0.084l0.147-2.996
		c0,0-2.825-0.131-3.467-0.131C19.443,38.675,18.716,39.032,17.906,39.515z"/>
	<circle fill="#F75E50" cx="38.148" cy="40.657" r="3"/>
</g>
</svg>
