<?xml version="1.0" encoding="utf-8"?>
<!-- Generator: Adobe Illustrator 17.0.0, SVG Export Plug-In . SVG Version: 6.00 Build 0)  -->
<!DOCTYPE svg PUBLIC "-//W3C//DTD SVG 1.1//EN" "http://www.w3.org/Graphics/SVG/1.1/DTD/svg11.dtd">
<svg version="1.1" id="Layer_1" xmlns:sketch="http://www.bohemiancoding.com/sketch/ns"
	 xmlns="http://www.w3.org/2000/svg" xmlns:xlink="http://www.w3.org/1999/xlink" x="0px" y="0px" width="70px" height="70px"
	 viewBox="0 0 70 70" enable-background="new 0 0 70 70" xml:space="preserve">
<title>shipping</title>
<description>Created with Sketch (http://www.bohemiancoding.com/sketch)</description>
<g id="Web" sketch:type="MSPage">
	<g id="Message---Landscape" transform="translate(-785.000000, -339.000000)" sketch:type="MSArtboardGroup">
		<path id="shipping" sketch:type="MSShapeGroup" fill="#F75E50" d="M842,384.056c0-12.426-10.074-22.5-22.5-22.5
			s-22.5,10.074-22.5,22.5s10.074,22.5,22.5,22.5S842,396.482,842,384.056z M800,384.056c0-10.77,8.73-19.5,19.5-19.5
			s19.5,8.73,19.5,19.5s-8.73,19.5-19.5,19.5S800,394.825,800,384.056z M835.5,384.056c0-8.837-7.163-16-16-16s-16,7.163-16,16
			s7.163,16,16,16S835.5,392.892,835.5,384.056z M805.5,384.056c0-7.732,6.268-14,14-14s14,6.268,14,14s-6.268,14-14,14
			S805.5,391.788,805.5,384.056z M817.121,381.185l2.702-3.523l2.864,3.463l0.395,0.478l0.383-0.488l2.764-3.488l2.768,3.49
			l0.783-0.621l-3.173-4L826.215,376l-0.391,0.498l-2.762,3.511l-2.883-3.486l-0.402-0.486l-0.382,0.502l-2.671,3.537l-2.765-3.504
			l-0.388-0.492l-0.393,0.488L810,380.512l0.779,0.627l2.784-3.456l2.768,3.508l0.4,0.507L817.121,381.185z M817.121,386.185
			l2.702-3.523l2.864,3.463l0.395,0.478l0.383-0.488l2.764-3.488l2.768,3.49l0.783-0.621l-3.173-4L826.215,381l-0.391,0.498
			l-2.762,3.511l-2.883-3.486l-0.402-0.486l-0.382,0.502l-2.671,3.537l-2.765-3.504l-0.388-0.492l-0.393,0.488L810,385.512
			l0.779,0.627l2.784-3.456l2.768,3.508l0.4,0.507L817.121,386.185z M817.121,391.185l2.702-3.523l2.864,3.463l0.395,0.478
			l0.383-0.488l2.764-3.488l2.768,3.49l0.783-0.621l-3.173-4L826.215,386l-0.391,0.498l-2.762,3.511l-2.883-3.486l-0.402-0.486
			l-0.382,0.502l-2.671,3.537l-2.765-3.504l-0.388-0.492l-0.393,0.488L810,390.512l0.779,0.627l2.784-3.456l2.768,3.508l0.4,0.507
			L817.121,391.185z"/>
	</g>
</g>
</svg>
