<?xml version="1.0" encoding="utf-8"?>
<!-- Generator: Adobe Illustrator 17.0.0, SVG Export Plug-In . SVG Version: 6.00 Build 0)  -->
<!DOCTYPE svg PUBLIC "-//W3C//DTD SVG 1.1//EN" "http://www.w3.org/Graphics/SVG/1.1/DTD/svg11.dtd">
<svg version="1.1" id="Layer_1" xmlns:sketch="http://www.bohemiancoding.com/sketch/ns"
	 xmlns="http://www.w3.org/2000/svg" xmlns:xlink="http://www.w3.org/1999/xlink" x="0px" y="0px" width="65px" height="65px"
	 viewBox="0 0 65 65" enable-background="new 0 0 65 65" xml:space="preserve">
<g id="Web" sketch:type="MSPage">
	<g id="Product-Detail---iPhone" transform="translate(-17.000000, -1227.000000)" sketch:type="MSArtboardGroup">
		<g id="Oval-21-_x2B_-smile" transform="translate(17.000000, 1227.000000)" sketch:type="MSLayerGroup">
			<g id="Oval-21" sketch:type="MSShapeGroup">
				<g>
					<g>
						<ellipse fill="#F75E50" cx="23.362" cy="35.52" rx="2.779" ry="2.815"/>
						<ellipse fill="#F75E50" cx="35.142" cy="35.52" rx="2.779" ry="2.815"/>
						<path fill="#F75E50" d="M21.966,43.333h-1.422v1.378c0,5.091,3.482,8.14,9.798,8.14c6.263,0,9.798-3.14,9.798-8.14v-1.378
							h-1.422H21.966z M38.602,46.089c-0.548,3.159-3.098,5.383-8.261,5.383c-5.184,0-7.733-2.133-8.267-5.383l-0.014-0.09
							c-0.063-0.412-0.093-0.842-0.093-1.288h16.75C38.716,45.152,38.602,46.089,38.602,46.089z"/>
						<path fill="#F75E50" d="M33.269,19.947c-11.478,0-20.781,9.423-20.781,21.051c0,11.627,9.302,21.051,20.781,21.051
							c11.478,0,20.781-9.423,20.781-21.051C54.05,29.371,44.748,19.947,33.269,19.947z M33.269,59.416
							c-10.044,0-18.183-8.246-18.183-18.419c0-10.174,8.14-18.419,18.183-18.419c10.044,0,18.183,8.246,18.183,18.419
							C51.452,51.171,43.312,59.416,33.269,59.416z"/>
					</g>
				</g>
			</g>
		</g>
	</g>
</g>
</svg>
