<?xml version="1.0" encoding="UTF-8" standalone="no"?>
<svg width="70px" height="70px" viewBox="0 0 70 70" version="1.1" xmlns="http://www.w3.org/2000/svg" xmlns:xlink="http://www.w3.org/1999/xlink" xmlns:sketch="http://www.bohemiancoding.com/sketch/ns">
    <title>twitter</title>
    <description>Created with Sketch (http://www.bohemiancoding.com/sketch)</description>
    <defs></defs>
    <g id="Web" stroke="none" stroke-width="1" fill="none" fill-rule="evenodd" sketch:type="MSPage">
        <g id="Product-Detail---Landscape" sketch:type="MSArtboardGroup" transform="translate(-1296.000000, -416.000000)" fill="#F75E50">
            <path d="M1331,429 C1317.15723,429 1306,440.157227 1306,454 C1306,467.842773 1317.15723,479 1331,479 C1344.84277,479 1356,467.842773 1356,454 C1356,440.157227 1344.84277,429 1331,429 Z M1346.20996,448.506836 L1346.20996,449.43457 C1346.20996,458.80957 1339.10547,469.625 1326.01953,469.625 C1322.04004,469.625 1318.28027,468.526367 1315.15527,466.5 C1315.66797,466.548828 1316.25391,466.62207 1316.81543,466.62207 C1320.18457,466.62207 1323.1875,465.279297 1325.62891,463.375 C1322.55273,463.326172 1319.8916,461.397461 1319.0127,458.56543 C1319.42773,458.638672 1319.8916,458.6875 1320.35547,458.6875 C1320.99023,458.6875 1321.625,458.638672 1322.21094,458.467773 C1318.96387,457.759766 1316.52246,454.927734 1316.52246,451.460938 L1316.52246,451.387695 C1317.4502,451.924805 1318.54883,452.266602 1319.7207,452.266602 C1317.81641,450.99707 1316.5957,448.848633 1316.5957,446.358398 C1316.5957,445.088867 1316.9375,443.868164 1317.52344,442.769531 C1321.03906,447.115234 1326.3125,449.947266 1332.2207,450.240234 C1332.09863,449.727539 1332.0498,449.141602 1332.0498,448.628906 C1332.0498,444.673828 1335.1748,441.5 1339.10547,441.5 C1341.13184,441.5 1342.9873,442.378906 1344.25684,443.746094 C1345.86816,443.404297 1347.30859,442.842773 1348.7002,442.012695 C1348.1875,443.697266 1347.1377,445.088867 1345.64844,445.967773 C1347.08887,445.772461 1348.48047,445.381836 1349.75,444.844727 C1348.77344,446.236328 1347.60156,447.530273 1346.20996,448.506836 Z" id="twitter" sketch:type="MSShapeGroup"></path>
        </g>
    </g>
</svg>