<?xml version="1.0" encoding="utf-8"?>
<!-- Generator: Adobe Illustrator 17.0.0, SVG Export Plug-In . SVG Version: 6.00 Build 0)  -->
<!DOCTYPE svg PUBLIC "-//W3C//DTD SVG 1.1//EN" "http://www.w3.org/Graphics/SVG/1.1/DTD/svg11.dtd">
<svg version="1.1" id="Layer_1" xmlns:sketch="http://www.bohemiancoding.com/sketch/ns"
	 xmlns="http://www.w3.org/2000/svg" xmlns:xlink="http://www.w3.org/1999/xlink" x="0px" y="0px" width="70px" height="70px"
	 viewBox="0 0 70 70" enable-background="new 0 0 70 70" xml:space="preserve">
<title>bookmark</title>
<description>Created with Sketch (http://www.bohemiancoding.com/sketch)</description>
<g id="Web" sketch:type="MSPage">
	
		<g id="Product-Detail---Hero---Portrait-_x28_Impossible_x29_" transform="translate(-1375.000000, -910.000000)" sketch:type="MSArtboardGroup">
		<g id="Group" transform="translate(1369.000000, 894.000000)" sketch:type="MSLayerGroup">
			<path id="bookmark" sketch:type="MSShapeGroup" fill="#F75E50" d="M44.003,76c-1.637,0-2.974,5-4.004,5c-0.949,0-2.369-5-4.003-5
				H34h-8.997C22.247,76,20,73.764,20,71.006V47.994C20,45.242,22.24,43,25.003,43h10.993c1.634,0,3.089,0.786,4.003,2.001
				C40.913,43.787,42.366,43,44.003,43h10.993C57.753,43,60,45.236,60,47.994v23.012C60,73.758,57.76,76,54.997,76H46H44.003z
				 M35.997,74.424c1.657,0,3.003,3.825,3.003,2.152V48.038C39,46.364,37.652,45,35.997,45H25.003C23.346,45,22,46.365,22,48.038
				v23.349c0,1.674,1.348,3.038,3.003,3.038L35.997,74.424L35.997,74.424z M54.997,74.387c1.657,0,3.003-1.363,3.003-3.034V48.034
				C58,46.362,56.652,45,54.997,45H44.003C42.346,45,41,46.363,41,48.034V76.58c0,1.672,1.348-2.193,3.003-2.193H54.997z"/>
		</g>
	</g>
</g>
</svg>
