<?xml version="1.0" encoding="utf-8"?>
<!-- Generator: Adobe Illustrator 17.0.0, SVG Export Plug-In . SVG Version: 6.00 Build 0)  -->
<!DOCTYPE svg PUBLIC "-//W3C//DTD SVG 1.1//EN" "http://www.w3.org/Graphics/SVG/1.1/DTD/svg11.dtd">
<svg version="1.1" id="Layer_1" xmlns:sketch="http://www.bohemiancoding.com/sketch/ns"
	 xmlns="http://www.w3.org/2000/svg" xmlns:xlink="http://www.w3.org/1999/xlink" x="0px" y="0px" width="70px" height="70px"
	 viewBox="0 0 70 70" enable-background="new 0 0 70 70" xml:space="preserve">
<title>items</title>
<description>Created with Sketch (http://www.bohemiancoding.com/sketch)</description>
<g id="Web" sketch:type="MSPage">
	<g id="Profile---Selling" transform="translate(-14.000000, -268.000000)" sketch:type="MSArtboardGroup">
		<path id="items" sketch:type="MSShapeGroup" fill="#979290" d="M33.574,303.126l-2.354-2.016l3.089-0.248L35.5,298l1.19,2.862
			l3.089,0.248l-2.354,2.016l0.719,3.015l-2.645-1.616l-2.645,1.616L33.574,303.126z M66,303H43v-2h23V303z M33.574,315.126
			l-2.354-2.016l3.089-0.248L35.5,310l1.19,2.862l3.089,0.248l-2.354,2.016l0.719,3.015l-2.645-1.616l-2.645,1.616L33.574,315.126z
			 M66,315H43v-2h23V315z M33.574,327.126l-2.354-2.016l3.089-0.248L35.5,322l1.19,2.862l3.089,0.248l-2.354,2.016l0.719,3.015
			l-2.645-1.616l-2.645,1.616L33.574,327.126z M66,327H43v-2h23V327z M72,337H26v-46h46V337z M70,335v-42H28v42H70z"/>
	</g>
</g>
</svg>
