<?xml version="1.0" encoding="utf-8"?>
<!-- Generator: Adobe Illustrator 17.0.0, SVG Export Plug-In . SVG Version: 6.00 Build 0)  -->
<!DOCTYPE svg PUBLIC "-//W3C//DTD SVG 1.1//EN" "http://www.w3.org/Graphics/SVG/1.1/DTD/svg11.dtd">
<svg version="1.1" id="Layer_1" xmlns:sketch="http://www.bohemiancoding.com/sketch/ns"
	 xmlns="http://www.w3.org/2000/svg" xmlns:xlink="http://www.w3.org/1999/xlink" x="0px" y="0px" width="70px" height="70px"
	 viewBox="0 0 70 70" enable-background="new 0 0 70 70" xml:space="preserve">
<title>total</title>
<description>Created with Sketch (http://www.bohemiancoding.com/sketch)</description>
<g id="Web" sketch:type="MSPage">
	<g id="Message---Landscape" transform="translate(-785.000000, -427.000000)" sketch:type="MSArtboardGroup">
		<path id="total" sketch:type="MSShapeGroup" fill="#F75E50" d="M806.508,477.172c0.139,3.952,1.135,6.933,2.99,8.944
			s4.81,3.207,8.866,3.588v4.472h2.028v-4.42c1.525,0,3.007-0.217,4.446-0.65c1.439-0.433,2.721-1.083,3.848-1.95
			s2.028-1.95,2.704-3.25c0.676-1.3,1.014-2.799,1.014-4.498c0-1.837-0.347-3.354-1.04-4.55c-0.693-1.196-1.603-2.193-2.73-2.99
			c-1.127-0.797-2.409-1.421-3.848-1.872s-2.903-0.832-4.394-1.144v-14.976c2.288,0,4.143,0.771,5.564,2.314
			s2.149,3.614,2.184,6.214h3.276c0.035-1.699-0.234-3.241-0.806-4.628s-1.369-2.574-2.392-3.562s-2.201-1.751-3.536-2.288
			s-2.765-0.806-4.29-0.806v-4.056h-2.028v4.056c-1.491,0-2.903,0.234-4.238,0.702c-1.335,0.468-2.496,1.144-3.484,2.028
			c-0.988,0.884-1.768,1.95-2.34,3.198s-0.858,2.652-0.858,4.212c0,1.803,0.295,3.302,0.884,4.498s1.378,2.184,2.366,2.964
			c0.988,0.78,2.149,1.387,3.484,1.82s2.73,0.806,4.186,1.118v15.392c-2.739-0.312-4.845-1.274-6.318-2.886
			s-2.227-3.943-2.262-6.994L806.508,477.172L806.508,477.172z M818.364,468.384c-0.971-0.243-1.915-0.503-2.834-0.78
			s-1.733-0.659-2.444-1.144c-0.711-0.485-1.283-1.109-1.716-1.872s-0.65-1.751-0.65-2.964c0-1.352,0.199-2.522,0.598-3.51
			s0.953-1.794,1.664-2.418s1.525-1.083,2.444-1.378c0.919-0.295,1.898-0.442,2.938-0.442V468.384z M820.392,472.076
			c1.005,0.243,2.028,0.537,3.068,0.884c1.04,0.347,1.976,0.789,2.808,1.326s1.517,1.222,2.054,2.054s0.806,1.872,0.806,3.12
			c0,1.352-0.251,2.505-0.754,3.458c-0.503,0.953-1.161,1.742-1.976,2.366s-1.742,1.075-2.782,1.352
			c-1.04,0.277-2.115,0.416-3.224,0.416V472.076z"/>
	</g>
</g>
</svg>
