<?xml version="1.0" encoding="UTF-8" standalone="no"?>
<svg width="130px" height="124px" viewBox="0 0 130 124" version="1.1" xmlns="http://www.w3.org/2000/svg" xmlns:xlink="http://www.w3.org/1999/xlink" xmlns:sketch="http://www.bohemiancoding.com/sketch/ns">
    <title>kanban</title>
    <description>Created with Sketch (http://www.bohemiancoding.com/sketch)</description>
    <defs></defs>
    <g id="Introduction" stroke="none" stroke-width="1" fill="none" fill-rule="evenodd" sketch:type="MSPage">
        <g id="iPad" sketch:type="MSArtboardGroup" transform="translate(-1526.000000, -6800.000000)" fill="#7ED3E4">
            <path d="M1571.12458,6892.71698 L1567,6892.71698 L1567.31634,6888.69461 L1572.60487,6806.44932 L1572.87614,6803 L1576.41311,6803 L1634.58689,6803 L1638.12386,6803 L1638.39513,6806.44932 L1643.68366,6888.69461 L1644,6892.71698 L1639.87542,6892.71698 L1633.09177,6892.71698 L1634.29012,6909.5 L1628.75216,6910.5 L1627.58364,6893.04649 L1583.41749,6892.71698 L1582.21914,6910.5 L1576.68117,6909.5 L1577.87952,6892.71698 L1571.12458,6892.71698 Z M1633.87542,6808.15869 L1577.12458,6808.14453 L1571.98633,6887.69189 L1638.97705,6887.74414 L1633.87542,6808.15869 Z M1598.76703,6857.87388 C1604.95712,6857.00392 1619.3438,6845.5929 1619.52513,6841.91323 C1619.70646,6838.23357 1607.8327,6835.04737 1607.8327,6835.04737 C1607.8327,6835.04737 1612.72366,6821.57827 1610.48434,6821.89299 C1608.24501,6822.2077 1591.7026,6837.72969 1591.97263,6839.65108 C1592.24266,6841.57246 1605.32034,6846.02838 1605.32034,6846.02838 C1605.32034,6846.02838 1595.97614,6855.68891 1598.76703,6857.87388 Z M1618,6870 L1618,6867 L1593,6867 L1593,6870 L1618,6870 Z M1621,6876 L1621,6873 L1590,6873 L1590,6876 L1621,6876 Z" id="Rectangle-81" sketch:type="MSShapeGroup"></path>
        </g>
    </g>
</svg>