<?xml version="1.0" standalone="no"?>
<!DOCTYPE svg PUBLIC "-//W3C//DTD SVG 1.1//EN" "http://www.w3.org/Graphics/SVG/1.1/DTD/svg11.dtd">
<svg xmlns="http://www.w3.org/2000/svg">
<metadata>Generated by Fontastic.me</metadata>
<defs>
<font id="solda" horiz-adv-x="512">
<font-face font-family="solda" units-per-em="512" ascent="480" descent="-32"/>
<missing-glyph horiz-adv-x="512" />

<glyph unicode="&#108;" d="M256 439c-101 0-183-82-183-183 0-101 82-183 183-183 101 0 183 82 183 183 0 101-82 183-183 183z m0-22c89 0 161-72 161-161 0-89-72-161-161-161-89 0-161 72-161 161 0 89 72 161 161 161z m-80-117l76-78 77 78 15-16-92-94-91 94z"/>
<glyph unicode="&#111;" d="M9 16c0 0-21 3 0 13 65 33 234 142 234 478 255 0 314-257 170-396-123-119-404-95-404-95z"/>
<glyph unicode="&#112;" d="M256 417c-101 0-183-82-183-183 0-101 82-183 183-183 101 0 183 82 183 183 0 101-82 183-183 183z m15-153l46 0-3-45-43 0 0-114-53 0 0 114-31 0 0 46 31 0 0 41c0 31 19 58 64 58 22 0 35-3 35-3l-2-43-25 0c-16 0-19-8-19-21z"/>
<glyph unicode="&#113;" d="M256 417c-101 0-183-82-183-183 0-101 82-183 183-183 101 0 183 82 183 183 0 101-82 183-183 183z m111-143l0-7c0-68-52-147-147-147-30 0-57 8-80 23 4-1 8-1 12-1 25 0 47 10 65 23-23 1-42 15-49 36 3-1 7-1 10-1 5 0 9 0 14 1-24 6-42 26-42 52l0 0c7-4 15-6 24-6-14 9-23 25-23 43 0 9 2 18 6 26 26-32 65-52 108-54-1 3-1 8-1 11 0 29 23 52 51 52 15 0 29-6 38-16 12 3 22 7 32 13-3-13-11-23-22-29 11 1 21 4 30 8-7-10-16-20-26-27z"/>
<glyph unicode="&#108;" d="M256 439c-101 0-183-82-183-183 0-101 82-183 183-183 101 0 183 82 183 183 0 101-82 183-183 183z m0-22c89 0 161-72 161-161 0-89-72-161-161-161-89 0-161 72-161 161 0 89 72 161 161 161z m-80-117l76-78 77 78 15-16-92-94-91 94z"/>
<glyph unicode="&#114;" d="M256 271l15 0 0-139-15 0z m-44-139l-15 139-14 0 14-139z m132 139l-15 0-14-139 14 0z m-172-198c-18 0-33-15-33-33 0-18 15-33 33-33 18 0 33 15 33 33 0 18-15 33-33 33z m0-51c-10 0-18 8-18 18 0 10 8 19 18 19 10 0 18-9 18-19 0-10-8-18-18-18z m183 51c-18 0-33-15-33-33 0-18 15-33 33-33 18 0 33 15 33 33 0 18-15 33-33 33z m0-51c-10 0-19 8-19 18 0 10 9 19 19 19 10 0 18-9 18-19 0-10-8-18-18-18z m29 80l29 198-285 0-7 45-66 0 0-15 54 0 7-46 27-182z m12 183l-25-168-215 0-25 168z"/>
<glyph unicode="&#99;" d="M356 27l-107 75-108-75 38 126-105 79 132 3 43 124 43-124 131-3-105-79z"/>
<glyph unicode="&#98;" d="M356 27l-107 75-108-75 38 126-105 79 132 3 43 124 43-124 131-3-105-79z m-107 93l81-57-29 95 80 60-100 2-32 94-33-94-99-2 79-60-29-95z"/>
<glyph unicode="&#97;" d="M278 73c-12 0-22-36-29-36-7 0-18 36-30 36l-80 0c-20 0-37 16-37 37l0 168c0 20 17 37 37 37l80 0c12 0 23-6 30-15 6 9 17 15 29 15l80 0c21 0 37-17 37-37l0-168c0-20-16-37-37-37z m-59 12c13 0 22-28 22-16l0 209c0 12-9 22-22 22l-80 0c-12 0-22-10-22-22l0-171c0-12 10-22 22-22z m139 0c12 0 22 10 22 22l0 171c0 12-10 22-22 22l-80 0c-12 0-22-10-22-22l0-209c0-12 10 16 22 16z"/>
<glyph unicode="&#100;" d="M66 180c5 97 83 169 193 163 109-5 180-75 175-172-1-28-9-54-22-77 10-35 27-74 27-74 0 0-46 5-84 15-31-19-70-30-114-27-110 5-180 75-175 172z m174-158c40-2 76 7 105 25l6 4 6-2c5-1 11-3 17-4 12-3 26-5 39-7-2 7-5 13-7 20-4 11-8 22-11 32l-1 6 3 5c11 21 18 45 20 71 4 88-59 152-160 157-99 5-172-58-176-149-5-89 59-152 159-158z"/>
<glyph unicode="&#110;" d="M256 358c-93 0-168-75-168-168 0-53 24-100 62-131 6 5 14 7 14 7 0 0 19 7 43 12 5 18 19 39 6 57-7 23-12 20-17 43-2 11-10 9-12 14-1 5-11 29 4 31-3 12 0 9-4 16 0 0-7 41 18 56 24 15 5 23 58 23 53 0 63-32 63-45 0-12 7-20 0-34-6-14 7-10 8-20-1-11-4-24-4-24l-7-6c0 0-4-37-19-54-9-10-3-36 4-56 22-4 50-11 62-15 35 30 57 76 57 126 0 93-75 168-168 168z m0 15c101 0 183-82 183-183 0-101-82-183-183-183-101 0-183 82-183 183 0 101 82 183 183 183z"/>
<glyph unicode="&#109;" d="M143 255l-17 15 23 2 8 21 9-21 23-2-18-15 6-22-20 12-19-12z m237 1l-168 0 0 15 168 0z m-237-89l-17 15 23 2 8 21 9-21 23-2-18-15 6-22-20 12-19-12z m237 1l-168 0 0 15 168 0z m-237-88l-17 14 23 2 8 21 9-21 23-2-18-14 6-23-20 12-19-12z m237 0l-168 0 0 15 168 0z m44-73l-336 0 0 337 336 0z m-14 15l0 307-308 0 0-307z"/>
<glyph unicode="&#105;" d="M417 182c0 91-74 165-165 165-91 0-164-74-164-165 0-90 73-164 164-164 91 0 165 74 165 164z m-307 0c0 79 64 143 142 143 79 0 143-64 143-143 0-78-64-142-143-142-78 0-142 64-142 142z m259 0c0 65-52 117-117 117-64 0-117-52-117-117 0-64 53-117 117-117 65 0 117 53 117 117z m-219 0c0 57 46 103 102 103 57 0 103-46 103-103 0-56-46-102-103-102-56 0-102 46-102 102z m85 21l20 26 21-25 3-4 2 4 21 25 20-25 6 4-24 30-3 3-2-3-21-26-21 26-3 3-2-4-20-25-20 25-3 4-3-4-23-29 6-4 20 25 20-26 3-3z m0-36l20 26 21-26 3-3 2 3 21 26 20-26 6 5-24 29-3 4-2-4-21-26-21 26-3 4-2-4-20-26-20 26-3 3-3-3-23-29 6-5 20 25 20-25 3-4z m0-37l20 26 21-25 3-4 2 4 21 25 20-25 6 4-24 30-3 3-2-3-21-26-21 25-3 4-2-4-20-26-20 26-3 4-3-4-23-29 6-4 20 25 20-26 3-3z"/>
<glyph unicode="&#107;" d="M157 145c1-29 9-51 22-65 14-15 35-24 65-27l0-32 15 0 0 32c11 0 22 2 32 5 11 3 20 8 29 14 8 6 14 14 19 24 5 9 8 20 8 33 0 13-3 24-8 33-5 9-12 16-20 22-8 6-17 10-28 14-11 3-21 6-32 8l0 109c17 0 30-5 41-17 10-11 15-26 16-45l24 0c0 12-2 24-6 34-5 10-10 19-18 26-7 7-16 13-26 17-10 4-20 6-31 6l0 29-15 0 0-29c-11 0-21-2-31-6-10-3-18-8-25-14-8-7-13-15-18-24-4-9-6-19-6-31 0-13 2-24 7-32 4-9 10-16 17-22 7-6 16-10 25-13 10-4 20-6 31-9l0-112c-20 2-35 9-46 21-11 12-16 29-17 51z m87 64c-7 2-14 4-21 6-6 2-12 5-18 8-5 4-9 8-12 14-3 6-5 13-5 22 0 10 2 18 4 25 3 8 7 14 13 18 5 5 11 8 18 10 6 2 13 3 21 3z m15-27c7-1 15-4 22-6 8-3 15-6 21-10 6-4 11-9 15-15 4-6 6-14 6-23 0-10-2-18-6-25-3-7-8-13-14-17-6-5-13-8-21-10-7-2-15-3-23-3z"/>
<glyph unicode="&#106;" d="M380 294c-4 11-17 21-29 21l-190 0c-12 0-25-10-29-21l-15-45 278 0z m-232-23l5 16c1 2 5 6 8 6l190 0c3 0 7-4 8-6l6-16z m240-44l-264 0c-16 0-29-13-29-30l0-131c0-16 13-29 29-29l264 0c16 0 29 13 29 29l0 131c0 17-13 30-29 30z m7-161c0-4-3-7-7-7l-264 0c-4 0-7 3-7 7l0 131c0 5 3 8 7 8l264 0c4 0 7-4 7-8z m-190 51l102 0 0-15-102 0z m0 59l102 0 0-15-102 0z m0-30l102 0 0-14-102 0z"/>
<glyph unicode="&#101;" d="M252 146l0 221-51-51-11 11 59 58 10 10 11-10 59-59-10-11-52 52 0-221z m-120-124l248 0 0 249-86 0 0 14 101 0 0-278-278 0 0 278 103 0 0-14-88 0z"/>
<glyph unicode="&#104;" d="M464 160l-114 114c-37 37-98 37-135 0-37-38-37-98 0-135l114-114c14-14 38-14 52 0l83 83c14 14 14 38 0 52z m-15-36l-83-83c-5-6-15-6-20 0l-114 114c-29 28-29 75 0 103 29 29 75 29 103 0l114-114c6-5 6-15 0-20z m-318 99c-11-6-18-16-18-29l0-90c0-16-8-31-21-38-20-11-45-3-55 18l-20-10c16-32 55-44 85-27 21 11 33 33 33 57l0 90c0 4 3 7 7 10 2 1 2 2 6 3 5 0 23-1 23-1l1 22c0 0-20 1-25 1-5 0-10-2-16-6z m170-8c0-12-10-22-22-22-12 0-22 10-22 22 0 12 10 22 22 22 12 0 22-10 22-22z"/>
<glyph unicode="&#102;" d="M300 29l0-22-22 0 0 22-22 0 0-22-22 0 0 22-22 0 0-22-22 0 0 22-22 0 0-22-22 0 0 351 242 0 0-351-22 0 0 22-22 0 0-22-22 0 0 22z m66 22l0 285-198 0 0-285z m-113 75l-46 47 15 15 30-30 73 73 16-16-73-72 1-1z m-63 167l88 0 0 22-88 0z m0-37l117 0 0 22-117 0z"/>
<glyph unicode="&#103;" d="M212 45l51 51 16-15-78-78-15 15-62 63 15 15 51-51 0 205c4 53 48 95 103 95 56 0 102-46 102-103 0-56-46-102-102-102l-44 0 0 22 42 0c0 0 1 0 2 0 44 0 80 36 80 80 0 45-36 81-80 81-43 0-78-34-81-76z"/>
<glyph unicode="&#115;" d="M371 456c-26-10-104-62-124-98l-138 0 0 98z m-57-403l-113 0c0 45 1 88 5 123l112 0c-4-35-4-78-4-123z m-172 204l0-16-18 0 0-14 18 0 0-13-18 0 0-14 18 0 0-16-41 0 0 73z m97 0l0-16-18 0 0-14 18 0 0-13-18 0 0-14 18 0 0-16-42 0 0 73z m106 0l0-16-18 0 0-14 18 0 0-13-18 0 0-14 18 0 0-16-41 0 0 73z m-153-57l0-16-42 0 0 73 23 0 0-57z m63-16l30 0 14 73-18 0-9-49-8 49-21 0z m123 73l0-73-23 0 0 73z m12-20l0-53 23 0 0 62c0 13-19 19-35 7l0-17c1 8 12 5 12 1z m17 116l0 108c-103-46-170-115-185-193l107 0c2 28 41 73 78 85z m-59-212c-4 0-8 1-11 4-2 3-4 7-4 11 0 4 2 7 4 10 3 3 7 4 11 4 4 0 8-1 10-4 3-3 5-6 5-10 0-4-2-8-5-11-2-3-6-4-10-4z m-13 15c0-4 1-7 4-9 2-3 5-4 9-4 3 0 7 1 9 4 3 2 4 5 4 9 0 3-1 6-4 9-2 2-6 3-9 3-4 0-7-1-9-3-3-3-4-6-4-9z m17 7c2 0 3-2 3-4 0-1-1-2-2-3 0 0-1-1-2-1 1 0 2 0 3-1 0-1 0-2 0-3l0-1c0 0 0-1 0-1 0-1 1-1 1-1l0 0-3 0c0 0 0 0 0 0 0 0 0 0 0 0l0 1 0 1c0 2-1 3-2 4 0 0-1 0-3 0l-2 0 0-6-3 0 0 16 6 0c2 0 3 0 4-1z m-5-1l-2 0 0-6 2 0c2 0 3 0 3 0 1 1 2 2 2 3 0 1 0 2-1 2-1 1-2 1-4 1z"/>
<glyph unicode="&#116;" d="M253 252c54 0 98 44 98 98 0 54-44 98-98 98-54 0-98-44-98-98 0-54 44-98 98-98z m201-40c-10 10-27 9-37-2-1-1-8-8-10-10 1 7 0 17-5 23-10 11-26 12-37 2-3-2-7-5-10-8 0 6-2 13-6 18-9 11-26 13-37 4-12-9-32-26-32-26 6-8 10-21 9-32-2-19-22-34-42-34l-5 0-99 14 91 0c14 0 26 11 26 26 0 14-12 26-26 26l-170 0 0-98c29-14 125-59 200-59 81 0 181 107 192 119 10 11 9 28-2 37z"/>
<glyph unicode="&#117;" d="M252 187c8 0 16 0 24 1l0-116c0 0 0-16-24-16-24 0-24 16-24 16l0 116c8-1 16-1 24-1z m0 261c63 0 114-51 114-114 0-63-51-115-114-115-63 0-114 52-114 115 0 63 51 114 114 114z m29-122c20 0 36 16 36 36 0 21-16 37-36 37-21 0-37-16-37-37 0-20 16-36 37-36z"/>
<glyph unicode="&#118;" d="M256 33c124 0 224 100 224 224 0 123-100 224-224 224-124 0-224-101-224-224 0-124 100-224 224-224z m0 422c109 0 198-89 198-198 0-110-89-198-198-198-109 0-198 88-198 198 0 109 89 198 198 198z m121-66l-112 0 0-89 112 0z m-29-61l-55 0 0 32 55 0z m-52-109l-34 0 0-89 115 0 0 29-81 0 0 29 81 0 0 92-112 0 0-32 31 0z m55 0l-29 0 0 29 29 0z m-98 95l-28 31-26-17 0 32 46 0 0 29-75 0 0-61-23 18-32-32 15-20 20 17 16-16 4 5 0-32-23 17-32-31 15-20 20 17 16-16 4 4 0-20-46 0 0-28 46 0 0-32-46 0 0-29 120 0 0 29-45 0 0 32 45 0 0 28-45 0 0 14 25 17 12-13 17 17-28 31-26-18 0 26 25 17 12-13z"/>
<glyph unicode="&#119;" d="M451 359l5 6c-46 41-119 67-200 67-55 0-107-12-148-33l3-8c41 20 91 32 145 32 79 0 150-25 195-64z m38-47c9-17 14-36 14-56 0-92-110-167-247-167-137 0-247 75-247 167 0 34 14 65 40 92l-6 6c-27-28-43-62-43-98 0-97 115-176 256-176 141 0 256 79 256 176 0 21-6 42-16 61z m-261-182l24 8-14 64-36-32z m-89 169l46 21-1-9c-1-14-3-26-8-37 2 0 11 1 25 10 20 13 25 38 32 62 7 24 6 58 6 58l-60-40-65 0-49 38c0 0-2-28 8-63 9-29 28-40 28-40z m53 42c3 0 5-3 4-7 0-3-3-5-6-4-5 1-16-1-22-4-2-2-6-1-8 2-1 2 0 6 3 8 7 4 20 7 29 5z m-61-5c3-2 4-6 2-8-1-3-5-4-7-2-6 3-16 5-22 4-3-1-6 1-6 4-1 4 1 7 4 7 9 2 22-1 29-5z m72-56c-6-5-12-7-17-9-3-1-8-2-13-2-1-3-3-5-4-7-12-17-29-26-49-26-12 0-23 5-33 12l-9-2 0-11 18-3-8-3 0-10 21-6 0-19-18-20 6-8 7 2-3-6 6-9 40 21-19-28 24-15 90 81 51 0-20-71 21-11 49 62 59-56 18 11-37 121 107 67-7 17-118-46-140 0c-5-10-11-19-22-26z m-45-44l14-21-14-23z m7 28c10 15 14 30 15 48l-39-18-42 0-39 27c0-44 27-80 60-80 18 0 34 8 45 23z m-20 13c2 0 4-2 4-5 0-2-2-4-4-4-3 0-9-1-12-3-2-1-5-1-6 1-1 2-1 5 1 6 5 4 14 5 17 5z m-36-5c1-1 2-4 1-6-1-2-4-2-6-1-3 2-9 3-12 3-3 0-4 2-4 4 0 3 1 5 4 5 3 0 11-1 17-5z"/>
<glyph unicode="&#120;" d="M256 410c-101 0-183-82-183-183 0-101 82-183 183-183 101 0 183 82 183 183 0 101-82 183-183 183z m100-284c-11-10-26-15-43-15-35 0-79 20-116 57-55 55-75 128-43 160 10 9 25 14 39 15 4 0 6-2 8-5l31-57c1-2 2-3 2-5 0-3-2-5-3-7l-25-24c-3-3-3-7-1-10 7-12 15-23 26-33 10-11 21-20 33-27 3-2 7-1 10 2l25 22c1 2 4 3 6 3 2 0 5-1 5-1l57-29c3-2 5-5 5-8-1-14-7-28-16-38z"/>
<glyph unicode="&#121;" d="M206 232c0 12-10 22-22 22-12 0-22-10-22-22 0-12 10-22 22-22 12 0 22 10 22 22z m93 0c0 12-10 22-22 22-12 0-22-10-22-22 0-12 10-22 22-22 12 0 22 10 22 22z m-126-61l-11 0 0-11c0-40 27-64 77-64 49 0 77 24 77 64l0 11z m131-22c-4-25-24-42-65-42-41 0-61 16-65 42l0 1c-1 3-1 6-1 10l132 0c0-4-1-11-1-11z m-42 206c-90 0-164-74-164-166 0-92 74-166 164-166 90 0 164 74 164 166 0 92-74 166-164 166z m0-311c-79 0-143 65-143 145 0 80 64 145 143 145 79 0 143-65 143-145 0-80-64-145-143-145z"/>
</font>
</defs>
</svg>
