<?xml version="1.0" encoding="UTF-8" standalone="no"?>
<svg width="494px" height="494px" viewBox="0 0 494 494" version="1.1" xmlns="http://www.w3.org/2000/svg" xmlns:xlink="http://www.w3.org/1999/xlink" xmlns:sketch="http://www.bohemiancoding.com/sketch/ns">
    <!-- Generator: Sketch 3.0.3 (7891) - http://www.bohemiancoding.com/sketch -->
    <title>localman</title>
    <desc>Created with Sketch.</desc>
    <defs></defs>
    <g id="Page-1" stroke="none" stroke-width="1" fill="none" fill-rule="evenodd" sketch:type="MSPage">
        <g id="localman" sketch:type="MSLayerGroup" transform="translate(1.000000, 1.000000)">
            <path d="M-0.393627907,-0.104511628 L492.043442,-0.104511628 L492.043442,492.332558 L-0.393627907,492.332558 L-0.393627907,-0.104511628 Z" id="Fill-1" fill="#F9F0DE" sketch:type="MSShapeGroup"></path>
            <path d="M245.826837,447.196 C357.629767,447.196 448.273488,356.552279 448.273488,244.749349 C448.273488,132.942558 357.629767,42.2988372 245.826837,42.2988372 C134.008465,42.2988372 43.3763256,132.942558 43.3763256,244.749349 C43.3763256,356.552279 134.008465,447.196 245.826837,447.196 L245.826837,447.196 Z M257.30786,203.955814 C258.554791,204.365023 259.21493,204.770372 259.871209,204.774233 C303.089116,204.882326 346.299302,204.890047 389.513349,205.102372 C396.211256,205.133256 396.543256,200.736186 396.99493,196.068884 C399.183814,173.21107 381.491302,147.508093 359.081302,141.740558 C354.595442,140.586279 351.881535,139.578698 350.379814,134.544651 C343.400093,111.12707 321.159953,91.3035814 291.08693,95.2103721 C286.956233,95.7431163 283.342837,95.333907 279.443767,92.2918605 C260.237953,77.3286977 239.893302,74.3908837 218.274698,87.755814 C211.337442,92.0409302 205.060326,96.9514419 195.204558,95.4265581 C170.609535,91.624 145.597581,111.015116 140.196791,134.394093 C139.169907,138.818186 137.104558,140.435721 132.665023,141.532093 C109.131628,147.330512 87.2505116,172.975581 95.3574884,204.179721 C96.4654419,204.411349 97.7818605,204.913209 99.0982791,204.913209 C140.567395,204.986558 182.02493,204.986558 223.494047,205.090791 C226.51293,205.098512 229.508651,204.901628 230.504651,201.805535 C231.809488,197.721163 228.277163,196.45107 225.447442,195.080605 C214.800279,189.903721 203.736186,185.425581 193.548419,179.461163 C173.230791,167.563209 165.251209,139.976326 176.203349,119.006279 C200.690279,127.692326 227.597721,131.772837 244.467953,157.244186 C263.090837,133.884512 288.886465,125.804558 315.720558,119.438651 C325.02814,146.925163 315.245721,171.280837 290.878465,183.325488 C282.404744,187.514093 273.765023,191.316651 264.530791,193.737163 C259.979302,194.933907 254.296698,196.312093 257.30786,203.955814 L257.30786,203.955814 Z M182.565395,385.61386 C210.642558,395.326791 239.495674,396.724279 268.661488,394.149349 C287.34614,392.489349 305.000047,386.60214 320.661953,376.248372 C328.440791,371.110093 334.219907,360.613488 334.219907,352.711116 L154.125349,352.711116 C154.175535,364.933349 168.671581,380.79986 182.565395,385.61386 L182.565395,385.61386 Z M157.333395,285.909628 C157.314093,272.328512 147.134047,261.974744 133.572233,261.723814 C120.647395,261.484465 109.737721,272.459767 109.772465,285.68186 C109.795628,299.027488 120.083767,309.655349 133.255674,309.948744 C145.991349,310.230558 157.352698,298.884651 157.333395,285.909628 L157.333395,285.909628 Z M370.322977,285.909628 C370.311395,272.328512 360.135209,261.974744 346.573395,261.723814 C333.636977,261.484465 322.727302,272.459767 322.758186,285.68186 C322.785209,299.027488 333.077209,309.655349 346.245256,309.948744 C358.97707,310.230558 370.334558,298.884651 370.322977,285.909628 L370.322977,285.909628 Z" id="Fill-2" fill="#669900" sketch:type="MSShapeGroup"></path>
        </g>
    </g>
</svg>