<?xml version="1.0" encoding="UTF-8" standalone="no"?>
<svg width="90px" height="90px" viewBox="0 0 90 90" version="1.1" xmlns="http://www.w3.org/2000/svg" xmlns:xlink="http://www.w3.org/1999/xlink" xmlns:sketch="http://www.bohemiancoding.com/sketch/ns">
    <title>okay</title>
    <description>Created with Sketch (http://www.bohemiancoding.com/sketch)</description>
    <defs></defs>
    <g id="Web" stroke="none" stroke-width="1" fill="none" fill-rule="evenodd" sketch:type="MSPage">
        <g id="Product-Detail--Portrait" sketch:type="MSArtboardGroup" transform="translate(-979.000000, -2562.000000)">
            <g id="Group-+-5-+-Okay" sketch:type="MSLayerGroup" transform="translate(979.000000, 2562.000000)">
                <g id="okay" sketch:type="MSShapeGroup">
                    <path d="M45,90 C69.852815,90 90,69.852815 90,45 C90,20.147185 69.852815,0 45,0 C20.147185,0 0,20.147185 0,45 C0,69.852815 20.147185,90 45,90 Z" id="Oval-19" fill="#CFE8FF"></path>
                    <path d="M22.5,45 C25.6066019,45 28.125,42.4816019 28.125,39.375 C28.125,36.2683981 25.6066019,33.75 22.5,33.75 C19.3933981,33.75 16.875,36.2683981 16.875,39.375 C16.875,42.4816019 19.3933981,45 22.5,45 Z" id="Oval-20" opacity="0.7" fill="#2B2B2B"></path>
                    <path d="M61.875,39.375 C64.9816019,39.375 67.5,36.8566019 67.5,33.75 C67.5,30.6433981 64.9816019,28.125 61.875,28.125 C58.7683981,28.125 56.25,30.6433981 56.25,33.75 C56.25,36.8566019 58.7683981,39.375 61.875,39.375 Z" id="Oval-20" opacity="0.8" fill="#2B2B2B"></path>
                    <path d="M28.1567995,66.2163654 L28.508719,68.4382978 C28.6545289,69.3589053 29.5157066,69.9875293 30.4486379,69.8397675 L60.431306,65.0909794 C61.3568837,64.9443823 61.9885395,64.0762691 61.8432005,63.1586346 L61.491281,60.9367022 C61.3454711,60.0160947 60.4842934,59.3874707 59.5513621,59.5352325 L29.568694,64.2840206 C28.6431163,64.4306177 28.0114605,65.2987309 28.1567995,66.2163654 Z" id="Rectangle-7" opacity="0.7" fill="#3A3A3A"></path>
                </g>
            </g>
        </g>
    </g>
</svg>