<?xml version="1.0" encoding="UTF-8" standalone="no"?>
<svg width="263px" height="187px" viewBox="0 0 263 187" version="1.1" xmlns="http://www.w3.org/2000/svg" xmlns:xlink="http://www.w3.org/1999/xlink" xmlns:sketch="http://www.bohemiancoding.com/sketch/ns">
    <title>company</title>
    <description>Created with Sketch (http://www.bohemiancoding.com/sketch)</description>
    <defs></defs>
    <g id="Introduction" stroke="none" stroke-width="1" fill="none" fill-rule="evenodd" sketch:type="MSPage">
        <g id="iPad" sketch:type="MSArtboardGroup" transform="translate(-698.000000, -8197.000000)" fill="#D9CFBF">
            <g id="Rectangle-108-+-手打-+-(股)" sketch:type="MSLayerGroup" transform="translate(699.000000, 8198.000000)">
                <path d="M0,179.92378 L0,185 L5.08695652,185 L189.913043,185 L195,185 L195,179.92378 L195,5.07621951 L195,0 L189.913043,0 L5.08695652,0 L0,0 L0,5.07621951 L0,179.92378 Z M5,180 L190,180 L190,5 L5,5 L5,180 Z" id="Rectangle-108" stroke="#D9CFBF" stroke-width="1.125" sketch:type="MSShapeGroup"></path>
                <path d="M63.9562363,87 C62.345725,85.022589 60.5951954,83.7514153 58.7045952,83.1864407 C58.2844618,83.1158189 57.9693665,82.9745773 57.7592998,82.7627119 C57.5492331,82.5508464 57.4442013,82.3036737 57.4442013,82.0211864 C57.4442013,81.7386992 57.5492331,81.5268369 57.7592998,81.3855932 C57.9693665,81.2443496 58.2844618,81.1737288 58.7045952,81.1737288 C59.1947508,81.1737288 59.8249414,81.2443496 60.595186,81.3855932 C61.3654305,81.5268369 62.3019639,81.8358027 63.404814,82.3125 L65.321663,83.2923729 C65.6017519,81.8799364 65.7417943,80.8559354 65.7417943,80.220339 L65.7417943,67.0847458 L44,67.0847458 L44,64.3305085 L65.7417943,64.3305085 L65.7417943,55.1144068 L47.4660832,55.1144068 L47.4660832,52.3601695 L65.7417943,52.3601695 L65.7417943,44.6271186 C62.030616,45.0508496 56.9190698,45.5805053 50.4070022,46.2161017 C49.8468243,45.8629926 49.5667396,45.439268 49.5667396,44.9449153 C56.4289183,43.7443443 62.3106976,42.5437913 67.2122538,41.3432203 C72.1138101,40.1426494 77.2603669,38.6949237 82.6520788,37 C83.2822789,37 83.8949642,37.3177934 84.4901532,37.9533898 C85.0853421,38.5889862 85.4529533,39.5070561 85.5929978,40.7076271 C81.1815972,41.8375763 75.8249768,42.9321981 69.5229759,43.9915254 L69.5229759,52.3601695 L80.0262582,52.3601695 C80.3063471,52.3601695 80.7614848,52.1836176 81.3916849,51.8305085 C82.0919072,51.4067775 82.5470449,51.1949153 82.7571116,51.1949153 C83.1597394,51.1949153 83.7199089,51.4244327 84.4376368,51.8834746 L87.7986871,54.1610169 C88.0437649,54.3022606 88.2275705,54.4346745 88.3501094,54.5582627 C88.4726483,54.6818509 88.5339168,54.8672304 88.5339168,55.1144068 L69.5229759,55.1144068 L69.5229759,64.3305085 L83.4923414,64.3305085 C83.7724303,64.3305085 84.227568,64.1539566 84.8577681,63.8008475 C85.5579904,63.3771165 86.0131281,63.1652542 86.2231947,63.1652542 C86.6258226,63.1652542 87.185992,63.3947717 87.9037199,63.8538136 L91.2647702,66.1313559 C91.5098481,66.2725996 91.6936537,66.4050135 91.8161926,66.5286017 C91.9387315,66.6521899 92,66.8375694 92,67.0847458 L69.5229759,67.0847458 L69.5229759,81.1737288 L67.7374179,85.8347458 L65.4266958,87 L63.9562363,87 Z M128.455253,87 C126.84435,85.039564 125.093395,83.7793026 123.202335,83.2191781 C122.782099,83.1491625 122.466927,83.0091335 122.256809,82.7990868 C122.046692,82.58904 121.941634,82.3439892 121.941634,82.0639269 C121.941634,81.7838647 122.046692,81.5738211 122.256809,81.43379 C122.466927,81.2937588 122.782099,81.2237443 123.202335,81.2237443 C123.692609,81.2237443 124.322953,81.2937588 125.093385,81.43379 C125.863817,81.5738211 126.800578,81.8801346 127.903696,82.3527397 L129.821012,83.3242009 C130.101169,81.9238895 130.241245,80.9086789 130.241245,80.2785388 L130.241245,44.8858447 L119,44.8858447 L119,42.1552511 L137.490272,42.1552511 C137.770429,42.1552511 138.225678,41.9802148 138.856031,41.630137 C139.556424,41.2100436 140.011672,41 140.22179,41 C140.624516,41 141.184821,41.2275472 141.902724,41.6826484 L145.264591,43.9406393 C145.509729,44.0806704 145.693579,44.2119476 145.816148,44.3344749 C145.938717,44.4570021 146,44.6407903 146,44.8858447 L145.264591,44.8858447 L134.023346,44.8858447 L134.023346,81.2762557 L132.237354,85.8447489 L129.92607,87 L128.455253,87 Z M106.210526,86 C105.754384,85.4862592 105.30702,85.056672 104.868421,84.7112256 C104.429822,84.3657792 103.982458,84.086769 103.526316,83.8741866 C103.140349,83.6616041 102.842106,83.4490249 102.631579,83.2364425 C102.421052,83.0238601 102.315789,82.775851 102.315789,82.4924078 C102.315789,82.2089646 102.421052,81.9963854 102.631579,81.8546638 C102.842106,81.7129422 103.157893,81.6420824 103.578947,81.6420824 C104.070178,81.6420824 104.631576,81.6952272 105.263158,81.8015184 C105.89474,81.9078096 106.666662,82.0672441 107.578947,82.2798265 C107.859651,80.8626104 108,79.8351442 108,79.197397 L108,69.5249458 L100.315789,73.4577007 C99.47368,72.8199534 98.8771947,72.0404963 98.5263158,71.1193059 C98.1754368,70.1981154 98,69.4186583 98,68.7809111 L108,65.2733189 L108,54.0065076 L98.7368421,54.0065076 L98.7368421,51.2429501 L108,51.2429501 L108,37.79718 C108,37.5137368 108.043859,37.32773 108.131579,37.239154 C108.219299,37.150578 108.342104,37.0708608 108.5,37 C108.675439,37 108.947367,37.1062896 109.315789,37.318872 L114.078947,38.7803688 C114.271931,38.8157992 114.368421,38.9220888 114.368421,39.0992408 C114.368421,39.2232472 114.280703,39.3383943 114.105263,39.4446855 L112.210526,40.4013015 C112.070175,40.4721623 111.964913,40.560737 111.894737,40.6670282 C111.824561,40.7733194 111.789474,40.8973239 111.789474,41.0390456 L111.789474,51.2429501 L113.263158,51.2429501 C113.543861,51.2429501 113.999997,51.0658008 114.631579,50.7114967 C115.333337,50.2863319 115.789473,50.0737527 116,50.0737527 C116.403511,50.0737527 116.964909,50.3040469 117.684211,50.7646421 L121.052632,53.0498915 C121.298247,53.1916131 121.482456,53.3244752 121.605263,53.4484816 C121.728071,53.572488 121.789474,53.7584948 121.789474,54.0065076 L111.789474,54.0065076 L111.789474,63.9978308 L120.631579,60.9154013 C120.982458,60.9154013 121.298244,61.0748357 121.578947,61.3937093 C121.859651,61.7125829 122,62.0491667 122,62.4034707 L111.789474,67.6117137 L111.789474,80.154013 L110,84.8308026 L107.684211,86 L106.210526,86 Z M47,149 L47,108.533898 C47,108.251411 47.0707064,108.021894 47.2121212,107.845339 C47.3535361,107.668784 47.6010083,107.580508 47.9545455,107.580508 C48.1666677,107.580508 48.4494932,107.615819 48.8030303,107.686441 C49.1565674,107.757063 49.6161588,107.933614 50.1818182,108.216102 L50.8181818,108.533898 L56.4393939,108.533898 L61.2121212,99 C63.7575885,99 65.3838348,99.7768284 66.0909091,101.330508 L58.8787879,108.533898 L85.1818182,108.533898 C85.3939405,108.322033 85.6237361,108.163136 85.8712121,108.057203 C86.1186881,107.951271 86.4191902,107.898305 86.7727273,107.898305 C87.1262644,107.898305 87.4267664,107.986581 87.6742424,108.163136 C87.9217184,108.33969 88.1515141,108.639828 88.3636364,109.063559 L89,110.334746 L88.3636364,110.970339 L88.3636364,147.834746 L86.030303,149 L84.5454545,149 L84.5454545,147.834746 L50.8181818,147.834746 L48.4848485,149 L47,149 Z M51,145 L85,145 L85,136 L51,136 L51,145 Z M51,132 L85,132 L85,123 L51,123 L51,132 Z M51,120 L85,120 L85,111 L51,111 L51,120 Z M98.8843931,149 C98.468206,148.928753 98.2167634,148.804072 98.1300578,148.625954 C98.0433522,148.447836 98,148.180663 98,147.824427 C100.861286,143.97708 102.924849,139.702314 104.190751,135 C104.901738,135 105.486992,135.320607 105.946532,135.961832 C106.406072,136.603057 106.757224,137.600502 107,138.954198 C105.421957,142.44531 102.716782,145.793877 98.8843931,149 Z M119.97179,149 C119.726652,149 119.503406,148.911724 119.302043,148.735169 C119.10068,148.558615 119,148.258477 119,147.834746 C120.348256,144.798007 121.429471,140.949176 122.243677,136.288136 C123.057883,131.627095 123.464981,127.072056 123.464981,122.622881 L123.464981,100.165254 C123.464981,99.8827669 123.526264,99.6532495 123.648833,99.4766949 C123.771401,99.3001404 123.972761,99.2118644 124.252918,99.2118644 C124.428016,99.2118644 124.664395,99.2471748 124.962062,99.3177966 C125.259729,99.3884184 125.636184,99.5649703 126.09144,99.8474576 L126.616732,100.165254 L138.724708,100.165254 C138.952336,100.165254 139.328791,99.9887023 139.854086,99.6355932 C140.449419,99.2118623 140.834629,99 141.009728,99 C141.342414,99 141.806417,99.2295175 142.401751,99.6885593 L145.212062,101.966102 C145.42218,102.107345 145.575389,102.239759 145.671693,102.363347 C145.767997,102.486936 145.816148,102.672315 145.816148,102.919492 L126.616732,102.919492 L126.616732,111.711864 L140.85214,111.711864 L141.955253,112.135593 L142.375486,114.042373 L142.191634,117.855932 L140.720817,124.529661 L138.593385,130.779661 L136.413424,135.122881 L139.328794,138.936441 L143.452335,142.008475 L145.553502,142.961864 L146,146.775424 L144.161479,147.834746 L141.272374,145.822034 L137.332685,141.372881 L134.785019,137.771186 L130.320039,143.597458 L125.224708,147.834746 L124.594358,146.669492 L128.901751,142.008475 L133.366732,134.911017 L131.449416,130.673729 L129.321984,123.364407 L128.192607,114.466102 L126.616732,114.466102 L126.616732,122.622881 C126.616732,127.425165 126.003897,132.333308 124.77821,137.347458 C123.552523,142.361607 121.950399,146.245749 119.97179,149 Z M114.965517,148 C113.678154,143.161087 112.022999,139.188904 110,136.083333 C110.16719,135.43333 110.509924,135.072223 111.028213,135 C113.653096,136.95001 115.977001,139.802759 118,143.558333 C118,144.425004 117.803555,145.237496 117.410658,145.995833 C117.017762,146.75417 116.202723,147.422219 114.965517,148 Z M100,134 L100,99.9603659 C100,99.6758116 100.058068,99.4446147 100.174204,99.2667683 C100.290341,99.0889219 100.500278,99 100.80402,99 C100.982692,99 101.219429,99.0355687 101.514238,99.1067073 C101.809047,99.1778459 102.197653,99.3556896 102.680067,99.6402439 L103.21608,99.9603659 L112.757119,99.9603659 C112.864322,99.7647348 113.011724,99.6091215 113.19933,99.4935213 C113.386936,99.3779212 113.570072,99.320122 113.748744,99.320122 C113.998885,99.320122 114.199888,99.3823673 114.351759,99.5068598 C114.50363,99.6313522 114.651032,99.8358726 114.79397,100.120427 L116,102.574695 L115.463987,103.481707 L115.463987,132.82622 L113.480737,134 L112.221106,134 L112.221106,132.82622 L103.21608,132.82622 L101.259631,134 L100,134 Z M134.671554,132 L136.255132,128.232558 L138.102639,121.639535 L139,114.94186 L138.630499,114 L130,114 L130.71261,121.848837 L132.348974,126.872093 L134.671554,132 Z M104,130 L113,130 L113,123 L104,123 L104,130 Z M104,120 L113,120 L113,113 L104,113 L104,120 Z M104,110 L113,110 L113,103 L104,103 L104,110 Z" id="手打" stroke="#D9CFBF" stroke-width="1.125" sketch:type="MSShapeGroup"></path>
                <text id="(股)" sketch:type="MSTextLayer" font-family="Code2000" font-size="33" font-weight="normal" sketch:alignment="middle">
                    <tspan x="210" y="174">(股)</tspan>
                </text>
            </g>
        </g>
    </g>
</svg>