<?xml version="1.0" encoding="UTF-8" standalone="no"?>
<svg width="852px" height="463px" viewBox="0 0 852 463" version="1.1" xmlns="http://www.w3.org/2000/svg" xmlns:xlink="http://www.w3.org/1999/xlink" xmlns:sketch="http://www.bohemiancoding.com/sketch/ns">
    <title>devices</title>
    <description>Created with Sketch (http://www.bohemiancoding.com/sketch)</description>
    <defs></defs>
    <g id="Introduction" stroke="none" stroke-width="1" fill="none" fill-rule="evenodd" sketch:type="MSPage">
        <g id="iPad" sketch:type="MSArtboardGroup" transform="translate(-1416.000000, -2389.000000)">
            <g id="Group-+-Path-532" sketch:type="MSLayerGroup" transform="translate(1420.000000, 2389.000000)">
                <g id="Group" sketch:type="MSShapeGroup">
                    <g transform="translate(439.000000, 0.000000)">
                        <path d="M409,249.234136 L409,259.203501 C409,261.158288 408.02341,263.113046 406.070201,265.067834 C404.116991,267.022621 402.163811,268 400.210602,268 L8.78939828,268 C6.8361889,268 4.88300881,267.022621 2.92979943,265.067834 C0.976590043,263.113046 0,261.158288 0,259.203501 L0,249.234136 L0,248.061269 C0.390641877,247.670312 0.781277894,247.474836 1.17191977,247.474836 L2.34383954,246.888403 L31.6418338,228.708972 L31.6418338,8.21006565 C31.6418338,5.86432088 32.4231058,3.90956289 33.9856734,2.34573304 C35.5482409,0.781903195 37.5014209,0 39.8452722,0 L369.154728,0 C371.498579,0 373.451759,0.781903195 375.014327,2.34573304 C376.576894,3.90956289 377.358166,5.86432088 377.358166,8.21006565 L377.358166,228.708972 L407.24212,246.888403 L409,248.061269 L409,249.234136 Z M374,8.6997389 C374,7.91644517 374.000008,4 369.313692,4 L40.1005199,4 C36,4 36,7.91644517 36,8.6997389 L36,229 L374,229 L374,8.6997389 Z M187.982161,256 L222.017839,256 C228.509322,256.000001 229.06536,250.026213 229.06536,250.026213 L406,250.026213 L374.764923,230 L36.2353651,230 L4,250.026213 L181.020753,250.026213 C181.020753,250.026213 181.849605,256.000001 187.982161,256 Z M226.777778,255.727273 C225.605257,256.909097 223.846503,257.5 221.501462,257.5 L187.498538,257.5 C185.153497,257.5 183.394743,256.909097 182.222222,255.727273 C180.268021,253.757566 179.290936,252.181824 179.290936,251 L4,251 L4,259.272727 C4,260.848493 4.3908343,262.030299 5.17251462,262.818182 C5.95419494,263.606065 7.12669784,264 8.69005848,264 L400.309942,264 C401.873302,264 403.045805,263.606065 403.827485,262.818182 C404.609166,262.030299 405,260.848493 405,259.272727 L405,251 L229.709064,251 C229.709064,252.181824 228.731979,253.757566 226.777778,255.727273 Z" id="" fill="#000000"></path>
                        <rect id="Rectangle-106" fill="#F3F7F7" x="45" y="18" width="320" height="201"></rect>
                        <rect id="Rectangle-106" stroke="#555555" stroke-width="2" x="45" y="18" width="320" height="201"></rect>
                    </g>
                    <g transform="translate(0.000000, 139.000000)">
                        <path d="M65.4327393,0 L4.56726068,0 C2.04483226,0 0,2.54079627 0,5.68586037 L0,119.31414 C0,122.454354 2.04435833,125 4.56726068,125 L65.4327393,125 C67.9551677,125 70,122.459204 70,119.31414 L70,5.68586037 C70,2.5456464 67.9556417,0 65.4327393,0 Z" id="Rectangle-80" stroke="#000000" stroke-width="4" transform="translate(35.000000, 62.500000) scale(-1, 1) translate(-35.000000, -62.500000) "></path>
                        <path d="M35,122 C38.3137087,122 41,119.313709 41,116 C41,112.686291 38.3137087,110 35,110 C31.6862913,110 29,112.686291 29,116 C29,119.313709 31.6862913,122 35,122 Z" id="Oval-53" stroke="#000000" stroke-width="1.5" opacity="0.3"></path>
                        <rect id="Rectangle-82" stroke="#000000" stroke-width="1.5" opacity="0.3" x="29" y="9" width="13" height="2" rx="6"></rect>
                        <path d="M63.2902856,19 L7.70971439,19 C6.21318045,19 5,20.1610862 5,21.5860149 L5,104.413985 C5,105.842202 6.21849813,107 7.70971439,107 L63.2902856,107 C64.7868195,107 66,105.838914 66,104.413985 L66,21.5860149 C66,20.1577983 64.7815019,19 63.2902856,19 Z" id="Rectangle-81" fill="#F3F7F7"></path>
                        <path d="M63.2902856,19 L7.70971439,19 C6.21318045,19 5,20.1610862 5,21.5860149 L5,104.413985 C5,105.842202 6.21849813,107 7.70971439,107 L63.2902856,107 C64.7868195,107 66,105.838914 66,104.413985 L66,21.5860149 C66,20.1577983 64.7815019,19 63.2902856,19 Z" id="Rectangle-81" stroke="#555555" stroke-width="2"></path>
                    </g>
                    <rect id="Rectangle-81" fill="#F3F7F7" x="160" y="106" width="213" height="138" rx="6"></rect>
                    <rect id="Rectangle-80" stroke="#000000" stroke-width="4" x="140" y="85" width="260" height="179" rx="12"></rect>
                    <circle id="Oval-53" stroke="#000000" stroke-width="1.5" opacity="0.3" cx="387.5" cy="174.5" r="8.5"></circle>
                    <rect id="Rectangle-81" stroke="#555555" stroke-width="2" x="160" y="106" width="213" height="138" rx="6"></rect>
                    <circle id="Oval-53" stroke="#000000" stroke-width="1.5" opacity="0.3" cx="151" cy="173" r="3"></circle>
                </g>
                <path d="M32,298.053461 C32,298.053461 44.3871069,355.99999 145.800975,356 C247.214842,356.000012 260,295 260,295" id="Path-532" stroke="#F2EBE0" stroke-width="7" sketch:type="MSShapeGroup"></path>
                <path d="M34,302.459588 C34,302.459588 67.032285,462.999971 337.469265,463 C607.906246,463.000033 642,294 642,294" id="Path-532" stroke="#F2EBE0" stroke-width="7" sketch:type="MSShapeGroup"></path>
            </g>
        </g>
    </g>
</svg>