<?xml version="1.0" encoding="UTF-8" standalone="no"?>
<svg width="564px" height="528px" viewBox="0 0 564 528" version="1.1" xmlns="http://www.w3.org/2000/svg" xmlns:xlink="http://www.w3.org/1999/xlink" xmlns:sketch="http://www.bohemiancoding.com/sketch/ns">
    <title>fb2</title>
    <description>Created with Sketch (http://www.bohemiancoding.com/sketch)</description>
    <defs>
        <rect id="path-1" x="0" y="0" width="564" height="527.25" rx="7.5"></rect>
    </defs>
    <g id="Introduction" stroke="none" stroke-width="1" fill="none" fill-rule="evenodd" sketch:type="MSPage">
        <g id="iPad" sketch:type="MSArtboardGroup" transform="translate(-1482.000000, -4921.000000)">
            <g id="Group" sketch:type="MSLayerGroup" transform="translate(1482.000000, 4921.000000)">
                <g>
                    <mask id="mask-2" sketch:name="bg" fill="white">
                        <use xlink:href="#path-1"></use>
                    </mask>
                    <use id="bg" fill="#E9EAED" sketch:type="MSShapeGroup" xlink:href="#path-1"></use>
                    <rect id="Rectangle-128" opacity="0.9" fill="#425E9A" sketch:type="MSShapeGroup" mask="url(#mask-2)" x="0" y="0" width="564" height="44.25"></rect>
                    <rect id="Rectangle-132" fill="#F6F7F8" sketch:type="MSShapeGroup" mask="url(#mask-2)" x="211.5" y="124.5" width="81" height="9.75"></rect>
                    <g mask="url(#mask-2)" transform="translate(72.000000, 63.000000)">
                        <rect id="Rectangle-130" fill="#FFFFFF" sketch:type="MSShapeGroup" x="0" y="0" width="420" height="474.75" rx="4.5"></rect>
                        <g transform="translate(22.500000, 72.750000)" id="Rectangle-84" fill="#F3F7F7" sketch:type="MSShapeGroup">
                            <g>
                                <rect x="0" y="0" width="82.5" height="82.5"></rect>
                                <rect x="97.5" y="0" width="82.5" height="82.5"></rect>
                                <rect x="195" y="0" width="82.5" height="82.5"></rect>
                                <rect x="292.5" y="0" width="82.5" height="82.5"></rect>
                                <rect x="0" y="97.5" width="82.5" height="82.5"></rect>
                                <rect x="97.5" y="97.5" width="82.5" height="82.5"></rect>
                                <rect x="195" y="97.5" width="82.5" height="82.5"></rect>
                                <rect x="292.5" y="97.5" width="82.5" height="82.5"></rect>
                                <rect x="0" y="195" width="82.5" height="82.5"></rect>
                                <rect x="97.5" y="195" width="82.5" height="82.5"></rect>
                                <rect x="195" y="195" width="82.5" height="82.5"></rect>
                                <rect x="292.5" y="195" width="82.5" height="82.5"></rect>
                                <rect x="0" y="292.5" width="82.5" height="82.5"></rect>
                                <rect x="97.5" y="292.5" width="82.5" height="82.5"></rect>
                                <rect x="195" y="292.5" width="82.5" height="82.5"></rect>
                                <rect x="292.5" y="292.5" width="82.5" height="82.5"></rect>
                            </g>
                        </g>
                        <g transform="translate(22.500000, 177.750000)"></g>
                        <g transform="translate(22.500000, 275.250000)"></g>
                        <g transform="translate(22.500000, 372.750000)"></g>
                        <g id="Rectangle-132-+-Rectangle-132" transform="translate(22.500000, 19.500000)" fill="#F6F7F8" sketch:type="MSShapeGroup">
                            <rect id="Rectangle-132" x="0" y="0" width="73.5" height="9.75"></rect>
                            <rect id="Rectangle-132" x="0" y="23.25" width="51" height="9.75"></rect>
                        </g>
                    </g>
                </g>
                <polygon id="Triangle-1" fill="#D8E6EA" sketch:type="MSShapeGroup" points="137.5 153 166 200 109 200 "></polygon>
                <circle id="Oval-74" fill="#D8E6EA" sketch:type="MSShapeGroup" cx="233" cy="179" r="28"></circle>
                <polygon id="Star-1" fill="#D8E6EA" sketch:type="MSShapeGroup" points="330.999999 197.2 313.444815 206.717724 316.797556 186.558862 302.595112 172.282277 322.22241 169.341136 331 151 339.777596 169.341141 359.404893 172.282292 345.202443 186.558866 348.555184 206.717725 "></polygon>
                <rect id="Rectangle-284" fill="#D8E6EA" sketch:type="MSShapeGroup" x="406" y="155" width="47" height="47"></rect>
                <polygon id="Triangle-1" fill="#D8E6EA" sketch:type="MSShapeGroup" points="429.5 442 458 489 401 489 "></polygon>
                <circle id="Oval-74" fill="#D8E6EA" sketch:type="MSShapeGroup" cx="331" cy="375" r="28"></circle>
                <polygon id="Star-1" fill="#D8E6EA" sketch:type="MSShapeGroup" points="425.999999 292.2 408.444815 301.717724 411.797556 281.558862 397.595112 267.282277 417.22241 264.341136 426 246 434.777596 264.341141 454.404893 267.282292 440.202443 281.558866 443.555184 301.717725 "></polygon>
                <rect id="Rectangle-284" fill="#D8E6EA" sketch:type="MSShapeGroup" x="308" y="251" width="47" height="47"></rect>
                <polygon id="Triangle-1" fill="#D8E6EA" sketch:type="MSShapeGroup" points="233.5 351 262 398 205 398 "></polygon>
                <circle id="Oval-74" fill="#D8E6EA" sketch:type="MSShapeGroup" cx="136" cy="373" r="28"></circle>
                <polygon id="Star-1" fill="#D8E6EA" sketch:type="MSShapeGroup" points="232.999999 293.2 215.444815 302.717724 218.797556 282.558862 204.595112 268.282277 224.22241 265.341136 233 247 241.777596 265.341141 261.404893 268.282292 247.202443 282.558866 250.555184 302.717725 "></polygon>
                <rect id="Rectangle-284" fill="#D8E6EA" sketch:type="MSShapeGroup" x="406" y="351" width="47" height="47"></rect>
                <polygon id="Triangle-1" fill="#D8E6EA" sketch:type="MSShapeGroup" points="136.5 445 165 492 108 492 "></polygon>
                <circle id="Oval-74" fill="#D8E6EA" sketch:type="MSShapeGroup" cx="233" cy="471" r="28"></circle>
                <polygon id="Star-1" fill="#D8E6EA" sketch:type="MSShapeGroup" points="330.999999 489.2 313.444815 498.717724 316.797556 478.558862 302.595112 464.282277 322.22241 461.341136 331 443 339.777596 461.341141 359.404893 464.282292 345.202443 478.558866 348.555184 498.717725 "></polygon>
                <rect id="Rectangle-284" fill="#D8E6EA" sketch:type="MSShapeGroup" x="112" y="251" width="47" height="47"></rect>
            </g>
        </g>
    </g>
</svg>