<?xml version="1.0" encoding="UTF-8" standalone="no"?>
<svg width="522px" height="1097px" viewBox="0 0 522 1097" version="1.1" xmlns="http://www.w3.org/2000/svg" xmlns:xlink="http://www.w3.org/1999/xlink" xmlns:sketch="http://www.bohemiancoding.com/sketch/ns">
    <title>iphone</title>
    <description>Created with Sketch (http://www.bohemiancoding.com/sketch)</description>
    <defs></defs>
    <g id="Introduction" stroke="none" stroke-width="1" fill="none" fill-rule="evenodd" sketch:type="MSPage">
        <g id="iPad" sketch:type="MSArtboardGroup" transform="translate(-1140.000000, -3144.000000)">
            <g id="Group" sketch:type="MSLayerGroup" transform="translate(1144.000000, 3148.000000)">
                <g id="iphone" sketch:type="MSShapeGroup">
                    <rect id="Rectangle-109" stroke="#000000" stroke-width="4" fill-opacity="0.459070542" fill="#FFFFFF" x="0" y="0" width="514" height="1089" rx="52"></rect>
                    <path d="M259,1065 C286.061954,1065 308,1043.28581 308,1016.5 C308,989.714188 286.061954,968 259,968 C231.938046,968 210,989.714188 210,1016.5 C210,1043.28581 231.938046,1065 259,1065 Z" id="Oval-53" stroke="#000000" stroke-width="1.5" opacity="0.3"></path>
                    <circle id="Oval-58" stroke="#000000" stroke-width="1.5" opacity="0.3" cx="258" cy="56" r="10"></circle>
                    <path d="M211,97 C211,101.970563 215.021353,106 220.001573,106 L296.998427,106 C301.969859,106 306,101.971656 306,97 C306,92.0294373 301.978647,88 296.998427,88 L220.001573,88 C215.030141,88 211,92.0283444 211,97 Z M296.998427,89.5 C301.147017,89.5 304.5,92.8546597 304.5,97 C304.5,101.142764 301.141896,104.5 296.998427,104.5 L220.001573,104.5 C215.852983,104.5 212.5,101.14534 212.5,97 C212.5,92.8572358 215.858104,89.5 220.001573,89.5 L296.998427,89.5 Z" id="Rectangle-111" fill="#AFAFAD"></path>
                </g>
            </g>
        </g>
    </g>
</svg>