<?xml version="1.0" encoding="UTF-8" standalone="no"?>
<svg width="1038px" height="103px" viewBox="0 0 1038 103" version="1.1" xmlns="http://www.w3.org/2000/svg" xmlns:xlink="http://www.w3.org/1999/xlink" xmlns:sketch="http://www.bohemiancoding.com/sketch/ns">
    <title>Group</title>
    <description>Created with Sketch (http://www.bohemiancoding.com/sketch)</description>
    <defs></defs>
    <g id="Introduction" stroke="none" stroke-width="1" fill="none" fill-rule="evenodd" sketch:type="MSPage">
        <g id="iPad" sketch:type="MSArtboardGroup" transform="translate(-882.000000, -1344.000000)" fill="#000000" opacity="0.7">
            <g id="Group" sketch:type="MSLayerGroup" transform="translate(882.000000, 1344.000000)">
                <path d="M680,3.58898305 C680,3.02400847 680.089531,2.65324947 680.268595,2.47669492 C680.447659,2.30014036 680.698345,2.14124364 681.020661,2 C681.37879,2 681.933881,2.21186229 682.68595,2.63559322 L692.409091,5.54872881 C692.803032,5.61935064 693,5.83121292 693,6.18432203 C693,6.43149841 692.820938,6.66101589 692.46281,6.87288136 L688.595041,8.77966102 C688.308539,8.92090466 688.093665,9.09745657 687.950413,9.30932203 C687.807162,9.5211875 687.735537,9.76836017 687.735537,10.0508475 L687.735537,99.6694915 L683.008264,102 L680,102 L680,3.58898305 Z M669.556818,47.44 C668.397721,46.3999948 667.545457,45.1866736 667,43.8 C669.181829,38.5306403 671.227263,31.5973763 673.136364,23 C674.500007,23 675.454543,23.6933264 676,25.08 C675.590907,33.2613742 674.977277,41.2346278 674.159091,49 C672.24999,49 670.715915,48.4800052 669.556818,47.44 Z M691,24.1428571 C691.731711,22.8571364 692.682921,22.1428579 693.853659,22 C696.926845,29.4286086 698.975605,35.1428371 700,39.1428571 C700,41.0000093 699.304885,42.4642804 697.914634,43.5357143 C696.524383,44.6071482 694.512208,45.4285686 691.878049,46 C692.024391,40.5714014 691.731711,33.28576 691,24.1428571 Z M698.370677,99.521692 C698.123558,99.2028184 698,98.7245151 698,98.0867679 C698,97.6616031 698.282418,97.2364446 698.847261,96.8112798 C704.566302,92.9847965 709.84398,87.7411757 714.680452,81.0802603 C719.516925,74.4193449 722.923587,66.1996151 724.900539,56.4208243 L725.324169,54.9327549 L699.628624,54.9327549 L699.628624,49.4056399 L725.7478,49.4056399 L725.7478,26.659436 L709.583942,26.659436 L709.583942,21.132321 L725.7478,21.132321 L725.7478,3.59436009 C725.7478,3.02747367 725.836055,2.65546003 726.012569,2.47830803 C726.189083,2.30115602 726.436198,2.14172161 726.753923,2 C727.10695,2 727.654134,2.21257922 728.395491,2.63774403 L737.980132,5.56073753 C738.368462,5.63159833 738.562624,5.84417755 738.562624,6.19848156 C738.562624,6.44649437 738.386113,6.67678852 738.033085,6.88937093 L734.220411,8.80260304 C733.937989,8.94432464 733.726176,9.12147399 733.584965,9.3340564 C733.443754,9.54663881 733.37315,9.7946479 733.37315,10.0780911 L733.37315,21.132321 L749.207518,21.132321 C749.454637,20.7425866 749.798833,20.4325753 750.240117,20.2022777 C750.681401,19.97198 751.113853,19.856833 751.537486,19.856833 C752.102329,19.856833 752.570083,19.9808375 752.940762,20.2288503 C753.31144,20.4768631 753.655637,20.8843066 753.973361,21.4511931 L756.832867,26.340564 L755.561976,28.1475054 L755.561976,47.0672451 C756.232727,47.0672451 757.291793,47.5278334 758.739205,48.4490239 L765.517293,53.0195228 C766.011531,53.302966 766.382204,53.56869 766.629323,53.8167028 C766.876442,54.0647156 767,54.4367293 767,54.9327549 L736.126748,54.9327549 C738.527333,62.5857216 743.973309,69.5654059 747.644792,75.8720174 C751.316275,82.1786288 756.117373,86.6782223 762.04823,89.3709328 C763.036706,89.7960976 763.74275,90.3275456 764.166382,90.9652928 C764.590015,91.6030401 764.801828,92.2053479 764.801828,92.7722343 C764.801828,93.9060071 764.448806,95.039763 763.742752,96.1735358 C763.036697,97.3073086 762.189445,98.2284852 761.200969,98.9370933 C760.212492,99.6457013 759.294636,100 758.44737,100 L756.752848,99.7874187 C753.999236,98.6536458 750.063041,94.1894822 744.944147,86.3947939 C739.825252,78.6001056 734.008604,69.1757603 732.314073,58.1214751 C731.466808,63.5068961 729.666396,68.8568064 726.912784,74.1713666 C724.159172,79.4859268 720.664255,84.1980995 716.427928,88.308026 C712.191602,92.4179526 706.966877,96.2443785 700.753598,99.7874187 L699.588615,100 C699.023771,100 698.617796,99.8405656 698.370677,99.521692 Z M748,50 L748,27 L733,27 L733,50 L748,50 Z" id="Text" sketch:type="MSShapeGroup"></path>
                <path d="M194.368696,102.751454 C194.368696,102.751454 200.01602,104.087827 203.150914,100.56305 C206.285808,97.0382733 205.898165,90.9457018 205.898165,90.9457018 L205.922892,17.5833581 L228.161128,17.5833582 L229.639547,17.5833582 L230,17.5833582 L230,17.2208806 C230,16.6365085 229.846297,16.1728082 229.524821,15.8495265 C229.252487,15.5756624 228.858276,15.2925015 228.339963,14.9946584 L221.603663,10.4421335 C220.099613,9.48283749 218.91773,9 218.023399,9 C217.507792,9 216.563813,9.43813032 215.092312,10.3259912 C213.886348,10.999505 213.01562,11.3362819 212.532128,11.3362819 L175.360453,11.3362819 L175,11.3362819 L175,11.6987596 L175,17.2208806 L175,17.5833582 L175.360453,17.5833582 L197.598689,17.5833581 L197.598689,88.7960635 L197.598689,94.1497147 L193.42284,92.6674322 C191.161291,91.6919385 189.253465,91.0643774 187.674689,90.7757145 C186.106312,90.4889531 184.818771,90.3450892 183.808561,90.3450892 C182.898909,90.3450892 182.198858,90.5015302 181.707793,90.8307457 C181.181828,91.1833591 180.913676,91.7226772 180.913676,92.406681 C180.913676,93.0708259 181.163936,93.6580478 181.652858,94.1497163 C182.134248,94.6338104 182.835942,94.9474267 183.749303,95.1005087 C187.43362,96.2011433 190.894803,98.7071955 194.090165,102.619055 L194.368696,102.751454 Z M153.221945,100.995617 C153.221945,100.995617 157.019657,101.215656 159.318984,98.5375172 C161.618312,95.8593777 161.436708,88.1130735 161.436708,88.1130735 L161.460994,63.2648697 L181.801566,53.0851309 L182,52.9852923 C182,51.9678342 181.6825,51.2167883 181.061751,50.5212401 C180.431786,49.8153646 179.700947,49.4514072 178.885976,49.4514072 L161.460994,55.3336013 L161.460994,36.4630788 L181.215142,36.4630783 L181.576515,36.4630783 L181.576515,36.1031506 C181.576515,35.5228895 181.422419,35.0624512 181.100122,34.7414438 C180.827093,34.4695063 180.431875,34.1883374 179.912237,33.8925896 L173.158725,29.3720909 C171.650833,28.4195434 170.46593,27.9401026 169.569313,27.9401026 C169.052389,27.9401026 168.105999,28.3751507 166.630738,29.2567657 C165.421693,29.9255414 164.54874,30.2599492 164.064012,30.2599492 L161.460994,30.2599492 L161.460993,10.3739431 C161.460993,10.1619481 161.511605,9.98551677 161.612043,9.83546212 C161.716162,9.67990926 161.879333,9.54447733 162.1082,9.43050142 L165.919562,7.53244513 C166.394578,7.24981259 166.648681,6.92080059 166.648681,6.52510679 C166.648681,5.9922239 166.323162,5.63853335 165.76966,5.53829931 L156.228741,2.64823365 C155.510767,2.22923448 154.916199,2 154.482672,2 L154.335904,2.03102161 C153.9805,2.18834683 153.696872,2.36994967 153.486044,2.57993446 C153.223001,2.84192458 153.115522,3.29153118 153.115522,3.94164128 L153.115522,30.2599492 L134.84357,30.2599492 L134.482196,30.2599492 L134.482196,30.6198769 L134.482196,36.1031506 L134.482196,36.4630783 L134.84357,36.4630783 L153.115522,36.4630788 L153.115522,58.2320915 L133.242794,65.0775767 L133,65.1615783 C133,66.7328594 133.36234,68.3207777 134.082799,70.1864752 C134.813487,72.0786621 136.055628,73.6797072 137.802881,74.984904 L137.982647,75.1191893 L138.18308,75.0180065 L153.115522,67.4035405 L153.115522,86.0852995 L153.115522,92.6230526 C153.115522,92.6230526 149.309587,91.1094446 148.031004,90.8972 C146.742013,90.6832276 145.593229,90.5759601 144.583717,90.5759601 C143.671742,90.5759601 142.969902,90.7313005 142.477582,91.0582001 C141.950273,91.4083329 141.681436,91.943857 141.681436,92.623049 C141.681436,93.2825217 141.932336,93.8656126 142.422507,94.3538223 C142.87317,94.8026823 143.500363,95.2436358 144.304802,95.6806648 C145.218101,96.1013887 150.594354,99.0277508 151.498281,100.031944 L153.221945,100.995617 Z" id="打" sketch:type="MSShapeGroup"></path>
                <path d="M40.3888101,102 C40.3888101,102 46.5403686,101.532524 49.0021204,99.9761197 C51.4638721,98.4197155 51.8902616,90.201512 51.8902616,90.201512 L51.9144229,62.4554615 L96.640439,62.4554633 L97,62.4554633 L97,62.0964775 C97,61.5177348 96.8466769,61.0585013 96.5259966,60.7383339 C96.2543362,60.467108 95.8611007,60.1866748 95.3440694,59.8917009 L88.6244324,55.3830313 C87.1241036,54.4329764 85.9451441,53.9547902 85.0530248,53.9547902 C84.5386939,53.9547902 83.59705,54.3886999 82.1291889,55.2680079 C80.9262083,55.9350336 80.0576339,56.2685663 79.5753381,56.2685663 L51.9144229,56.2685663 L51.9144229,38.6866731 L89.6879905,38.6866726 L90.0475515,38.6866726 L90.0475515,38.3276868 C90.0475515,37.7489441 89.8942284,37.2897107 89.5735481,36.9695432 C89.3018877,36.6983174 88.9086522,36.4178841 88.3916209,36.1229102 L81.6719838,31.6142407 C80.1716551,30.6641858 78.9926956,30.1859996 78.1005763,30.1859996 C77.5862453,30.1859996 76.6446015,30.6199093 75.1767403,31.4992173 C73.9737597,32.1662429 73.1051853,32.4997756 72.6228896,32.4997756 L51.9144229,32.4997756 L51.9144229,16.5287078 C64.5645188,14.4237307 75.0181934,12.3153121 83.8774506,10.0689408 L84.1828585,9.99150095 L84.1460415,9.67905632 C83.8567309,7.22384995 83.0904107,5.32933024 81.8382061,4.00558724 C80.5813577,2.67693511 79.2629863,2 77.889896,2 C66.9750461,5.37955614 56.6591727,8.25217048 46.8350426,10.6342145 C37.0116974,13.0160682 25.2213289,15.3983977 11.4641596,17.7810283 L11.1660537,17.8326579 L11.1660537,18.1347319 C11.1660537,19.252706 11.7995193,20.2013847 13.0204898,20.9632706 C26.3097062,19.7539305 43.6108135,17.8604094 43.6108135,17.8604094 L43.6108135,32.4997756 L7.3120095,32.4997756 L6.95244852,32.4997756 L6.95244852,32.8587615 L6.95244852,38.3276868 L6.95244852,38.6866726 L7.3120095,38.6866726 L43.6108116,38.6866731 L43.6108116,56.2685663 L0.359560974,56.2685663 L0,56.2685663 L0,56.6275522 L0,62.0964775 L0,62.4554633 L0.359560974,62.4554633 L43.6108116,62.4554615 L43.6108135,88.1790442 L43.6108135,93.4811227 L39.4452942,92.0131193 C37.189339,91.0470227 35.2862329,90.4255071 33.711362,90.1396249 C32.146865,89.8556259 30.8625086,89.7131479 29.8547971,89.7131479 C28.9473958,89.7131479 28.249076,89.8680818 27.7592263,90.194126 C27.2345623,90.5433425 26.9670731,91.0774653 26.9670731,91.75488 C26.9670731,92.412627 27.2167145,92.9941921 27.7044268,93.4811243 C28.1846256,93.960555 28.8845843,94.2711502 29.7956857,94.4227575 C33.4708897,95.5127895 36.9235106,97.9947004 40.1109678,101.868877 L40.3888101,102 Z" id="手" sketch:type="MSShapeGroup"></path>
                <path d="M279.030979,94.637484 L279.030979,95 L279.390094,95 L282.335964,95 L282.496565,94.9617282 L287.125788,92.6251996 L287.324303,92.5250026 L287.241581,26.4723727 C292.380732,20.2185705 295.549368,15.8115565 296.758783,13.2261918 L296.999978,11.6357809 C297.003588,10.646925 296.555887,9.55473703 295.675343,8.29548704 C294.807405,7.0542667 293.757114,6.03058991 292.525968,5.22642267 C291.280662,4.41300645 290.20204,4 289.279799,4 C288.697954,4 288.17392,4.21159825 287.723111,4.6253051 C287.30285,5.01097872 286.94353,5.50733543 286.643984,6.1120991 C284.466864,11.3562053 281.669525,16.8097212 278.241662,22.4945351 C274.806717,28.1910925 270.880778,34.4719202 266.463771,41.3371048 L266.000866,42.8086268 C265.984986,43.6342458 266.187564,44.2477347 266.594269,44.7404023 C267.018585,45.2544025 267.646821,45.5080763 268.448294,45.5080763 L268.676002,45.4258823 C272.195251,42.5127727 275.233518,39.2683718 279.030979,35.2219854 L279.030979,94.637484 Z M323.457124,101.875795 L323.726121,101.995136 C323.726121,101.995136 328.890238,102.180153 331.498846,100.268011 C334.107454,98.3558695 334.07775,90.3036793 334.07775,90.3036793 L334.077749,25.2235735 L354.52551,25.2235735 L348.35986,34.9790046 L348.336743,35.3204899 C348.787638,36.2979695 349.678275,36.7918907 350.940801,36.7918907 C357.635122,33.790968 362.605464,30.0383718 365.996057,25.4992078 C366.067228,23.0670338 365.173848,21.3103861 363.402451,20.0505472 C361.667935,18.8169381 360.389765,18.1956448 359.514113,18.1956448 L357.659051,19.0748743 L314.577431,19.036977 C317.282257,15.5007545 318.847957,12.6061634 319.954964,9.19993423 C320.1583,7.33547252 319.537529,5.69066988 318.126677,4.2150596 C316.712719,2.73620012 314.712186,2 312.149209,2 L311.891856,2 C309.520257,8.81553167 306.934257,14.8284257 304.049931,20.2805903 C301.166465,25.7311302 297.490227,31.3937346 293.020893,37.2681172 C292.947812,38.6619221 293.069716,39.4818428 293.335412,39.9692217 C293.625703,40.5017164 294.223059,40.8349294 295.096722,40.9927615 L295.391441,40.9163342 C301.908588,35.5670321 306.849273,30.4431987 310.36325,25.2235735 L325.734469,25.2235735 L325.759254,88.1748524 C325.759254,89.407314 325.759253,93.895066 325.759253,93.895066 C325.759253,93.895066 321.954319,93.1856067 320.676072,92.9739279 C319.387419,92.7605258 318.238937,92.6535441 317.22969,92.6535441 C316.317954,92.6535441 315.616298,92.8084706 315.124109,93.1344989 C314.596938,93.4836984 314.328171,94.0177952 314.328171,94.6951769 C314.328171,95.352892 314.579005,95.9344288 315.069047,96.4213373 C315.519592,96.869001 316.146621,97.3087792 316.950848,97.7446433 C317.863907,98.164246 322.553434,100.874279 323.457124,101.875795 Z M295.577595,77 L295.8224,76.9044748 C304.366192,69.0277507 311.41045,60.2356097 316.954345,50.5285715 L317,50.3185963 C316.852472,48.7022734 316.051822,46.9261265 314.607893,44.984607 C313.133118,43.0016114 311.196355,42 308.828068,42 L308.567761,42 L308.485946,42.246128 C306.765708,47.4212031 304.799905,52.3860122 302.588503,57.1407688 C300.379985,61.8893242 297.204163,67.3418095 293.061051,73.4966905 L293,73.6965788 C293,74.743566 293.182429,75.5468737 293.563687,76.106484 C293.972037,76.7058601 294.6576,77 295.577595,77 Z M355.485946,76.753872 L355.567761,77 L355.828068,77 C358.196355,77 360.133118,75.9983886 361.607893,74.015393 C363.051822,72.0738735 363.852472,70.2977266 364,68.6814037 L363.954345,68.4714285 C358.41045,58.7643903 351.366192,49.9722493 342.8224,42.0955252 L342.577595,42 C341.6576,42 340.972037,42.2941399 340.563687,42.893516 C340.182429,43.4531263 340,44.256434 340,45.3034212 L340.061051,45.5033095 C344.204163,51.6581905 347.379985,57.1106758 349.588503,61.8592312 C351.799905,66.6139878 353.765708,71.5787969 355.485946,76.753872 Z" id="你" sketch:type="MSShapeGroup"></path>
                <path d="M953.444008,103 C951.888919,102.636362 951.589868,101.545464 952.546846,99.7272727 C961.51851,96.4545291 969.293835,92.5454773 975.873055,88 C978.624366,88.1818191 980,90.9999727 980,96.4545455 L953.444008,103 Z M1019.00557,103 C1014.60012,100.142843 1007.44136,96.7143057 997.529088,92.7142857 C996.672471,91.1904686 996.856029,89.9523857 998.079767,89 C1013.25411,91.2857257 1023.22742,93.7618914 1028,96.4285714 C1027.75525,100.809546 1024.75714,103 1019.00557,103 Z M961,89 L961,54.0060241 C961,53.4116436 961.140475,52.9287167 961.421429,52.5572289 C961.702382,52.1857411 962.194044,52 962.896429,52 C963.317859,52 963.879758,52.0742964 964.582143,52.2228916 C965.284527,52.3714867 966.197613,52.7429689 967.321429,53.3373494 L968.585714,54.0060241 L1012.41429,54.0060241 C1012.66012,53.5973875 1013.00253,53.2723406 1013.44152,53.0308735 C1013.88051,52.7894064 1014.31071,52.6686747 1014.73214,52.6686747 C1015.29405,52.6686747 1015.75937,52.7986935 1016.12812,53.0587349 C1016.49688,53.3187764 1016.83928,53.745981 1017.15536,54.3403614 L1020,59.4668675 L1018.73571,61.3614458 L1018.73571,86.5481928 L1014.1,89 L1011.15,89 L1011.15,86.5481928 L968.585714,86.5481928 L963.95,89 L961,89 Z M968,81 L1011,81 L1011,77 L968,77 L968,81 Z M968,74 L1011,74 L1011,69 L968,69 L968,74 Z M968,64 L1011,64 L1011,59 L968,59 L968,64 Z M948,52 L948,30.7844828 C948,30.2557445 948.140702,29.8261511 948.422111,29.4956897 C948.703519,29.1652282 949.195976,29 949.899497,29 C950.32161,29 950.884419,29.0660913 951.58794,29.1982759 C952.291461,29.3304604 953.206025,29.6609169 954.331658,30.1896552 L955.59799,30.7844828 L1024.40201,30.7844828 C1024.64824,30.4209752 1024.9912,30.1318258 1025.4309,29.9170259 C1025.87061,29.7022259 1026.30151,29.5948276 1026.72362,29.5948276 C1027.28643,29.5948276 1027.75251,29.7104873 1028.12186,29.9418103 C1028.49121,30.1731333 1028.83417,30.5531583 1029.15075,31.0818966 L1032,35.6422414 L1030.73367,37.3275862 L1030.73367,49.4224138 L1026.09045,51.6034483 L1023.13568,51.6034483 L1023.13568,49.4224138 L955.59799,49.4224138 L948,52 Z M956,44 L973,44 L973,35 L956,35 L956,44 Z M980,44 L999,44 L999,35 L980,35 L980,44 Z M1006,44 L1023,44 L1023,35 L1006,35 L1006,44 Z M955.798488,26 L955.798488,21.2838302 L985.942878,21.2838302 L985.942878,13.5942186 L942,13.5942186 L942,8.87804878 L985.942878,8.87804878 L985.942878,1.58536585 C985.942878,1.0216774 986.031329,0.651762398 986.208233,0.475609756 C986.385138,0.299457114 986.6328,0.140922114 986.951229,1.33507578e-16 C987.305038,1.33507578e-16 987.853434,0.21138 988.596433,0.634146341 L996.994641,3.54065041 C997.383831,3.61111146 997.578423,3.82249146 997.578423,4.17479675 C997.578423,4.42141045 997.401521,4.65040545 997.047712,4.86178862 L994.434255,6.76422764 C994.151208,6.90514976 993.938925,7.08129976 993.797402,7.29268293 C993.655878,7.5040661 993.585117,7.7506761 993.585117,8.03252033 L993.585117,8.87804878 L1026.06464,8.87804878 C1026.06464,8.87804878 1026.36891,8.24390244 1028.14414,6.76422764 C1029.91937,5.28455283 1036.46598,10.4675592 1037.52799,12.0487805 C1038.59001,13.6300017 1037.52799,13.5942186 1037.52799,13.5942186 L993.585117,13.5942186 L993.585117,21.2838302 L1012.26615,21.2838302 C1012.26615,21.2838302 1012.74615,20.5035123 1014.4801,19.5963307 C1016.21405,18.6891492 1022.54484,22.9402783 1023.72951,24.4545619 C1024.91417,25.9688454 1023.72951,26 1023.72951,26 L955.798488,26 Z" id="賣" sketch:type="MSShapeGroup"></path>
                <path d="M546.56129,99 L546.56129,80.9045553 L534,80.9045553 L534,75.4338395 L546.56129,75.4338395 L546.56129,65.9652928 L540.812903,65.9652928 L536.129032,68.2798265 L534.425806,68.2798265 L534.425806,31.0368764 C534.425806,30.4757745 534.567741,30.0198861 534.851613,29.6691974 C535.135485,29.3185087 535.632255,29.143167 536.341935,29.143167 C536.767744,29.143167 537.282255,29.2045366 537.885484,29.3272777 C538.488713,29.4500187 539.074191,29.6954971 539.641935,30.0637202 C540.20968,30.4319433 540.670966,30.7563254 541.025806,31.0368764 L546.56129,31.0368764 L546.56129,21.5683297 L535.490323,21.5683297 L535.490323,16.0976139 L546.56129,16.0976139 L546.56129,3.57809111 C546.56129,3.01698924 546.649999,2.64877166 546.827419,2.47342733 C547.00484,2.298083 547.253224,2.14027547 547.572581,2 C547.927421,2 548.477416,2.21041004 549.222581,2.63123644 L557.579032,5.52440347 C557.969357,5.5945412 558.164516,5.80495125 558.164516,6.15563991 C558.164516,6.40112198 557.987099,6.62906619 557.632258,6.83947939 L553.8,8.73318872 C553.516128,8.87346419 553.303227,9.04880589 553.16129,9.25921909 C553.019354,9.46963229 552.948387,9.71511067 552.948387,9.99566161 L552.948387,16.3875151 C553.8,16.3875151 558.696774,16.3875151 560.4,14.5066985 L564.019355,19.6746204 C564.516132,19.9551713 564.888708,20.2181839 565.137097,20.4636659 C565.385485,20.709148 565.509677,21.0773656 565.509677,21.5683297 L552.948387,21.5683297 L552.948387,31.0368764 L558.696774,31.0368764 C559.122583,30.61605 559.583868,30.3004349 560.080645,30.0900217 C560.577422,29.8796085 561.180642,29.7744035 561.890323,29.7744035 C562.600004,29.7744035 563.203223,29.9497452 563.7,30.3004338 C564.196777,30.6511225 564.658062,31.2472843 565.083871,32.0889371 L566.36129,34.6138829 L565.083871,35.8763557 L565.083871,65.9652928 L560.4,68.2798265 L558.696774,68.2798265 L558.696774,65.9652928 L552.948387,65.9652928 L552.948387,74.1713666 C554.083877,73.4699893 554.864514,73.1193059 555.290323,73.1193059 C556.106456,73.1193059 557.241928,73.5751943 558.696774,74.4869848 L565.509677,79.010846 C566.006454,79.2913969 566.379031,79.5544095 566.627419,79.7998915 C566.875808,80.0453736 567,80.4135912 567,80.9045553 L552.948387,80.9045553 L552.948387,96.6854664 L548.264516,99 L546.56129,99 Z M541,60 L547,60 L547,51 L541,51 L541,60 Z M553,60 L559,60 L559,51 L553,51 L553,60 Z M541,46 L547,46 L547,37 L541,37 L541,46 Z M553,46 L559,46 L559,37 L553,37 L553,46 Z M569.885287,99 L568.104738,97.6251469 L568,94.1351351 L569.309227,92.1257344 C571.648391,93.3243303 580.219377,93.7121055 595.022444,93.2890717 L595.022444,61.9847239 L574.23192,62.1433608 L572.922693,61.0329025 L573.917706,55.7978848 L617.855362,55.7978848 L620.78803,54 L623.720698,56.0094007 L624.977556,58.8648649 L624.977556,62.1433608 L602.144638,61.9847239 L602.144638,93.0775558 L623.458853,93.0775558 L626.391521,90.6451234 L631,94.346651 L630.738155,99 L569.885287,99 Z M585.904918,52 L583.806557,51.1 C582.792345,47.0058619 581.323507,43.6441308 579.4,41.0147059 C577.476493,38.385281 575.343181,36.1882441 573,34.4235294 L573.944262,31.3 C577.896195,26.3587988 581.183593,21.2588498 583.806557,16 L586.114754,17.5882353 L587.059016,25 C584.331134,28.2117808 581.375972,30.6999912 578.193443,32.4647059 C582.600022,35.8176638 586.202172,40.0529156 589,45.1705882 C588.720217,47.9588375 587.688534,50.2352853 585.904918,52 Z M603.884488,52 L601.772277,51.1 C600.75137,47.0058619 599.281638,43.6441308 597.363036,41.0147059 C595.444435,38.385281 593.323444,36.1882441 591,34.4235294 L591.844884,31.3 C595.89331,26.3587988 599.202407,21.2588498 601.772277,16 L604.20132,17.5882353 L605.046205,25 C602.300316,28.2117808 599.360852,30.6999912 596.227723,32.4647059 C600.592981,35.8176638 604.183704,40.0529156 607,45.1705882 C606.71837,47.9588375 605.679877,50.2352853 603.884488,52 Z M620.957377,52 L618.806557,51.1 C617.792345,47.0058619 616.323507,43.6441308 614.4,41.0147059 C612.476493,38.385281 610.343181,36.1882441 608,34.4235294 L608.944262,31.3 C612.896195,26.3587988 616.183593,21.2588498 618.806557,16 L621.167213,17.5882353 L622.059016,25 C619.331134,28.2117808 616.375972,30.6999912 613.193443,32.4647059 C617.600022,35.8176638 621.202172,40.0529156 624,45.1705882 C623.720217,47.9588375 622.70602,50.2352853 620.957377,52 Z M570,13 L570.158759,6.55555556 L621.702555,6.11111111 L623.131387,4 L625.301095,5.16666667 L628,9.11111111 L628,13 L570,13 Z" id="Text" sketch:type="MSShapeGroup"></path>
                <path d="M804.768786,102 C803.936412,101.857506 803.433527,101.608144 803.260116,101.251908 C803.086704,100.895673 803,100.361327 803,99.648855 C808.722572,91.95416 812.849698,83.4046272 815.381503,74 C816.803475,74 817.973984,74.641215 818.893064,75.9236641 C819.812143,77.2061133 820.514448,79.2010043 821,81.9083969 C817.843915,88.8906202 812.433564,95.5877542 804.768786,102 Z M847.94358,102 C847.453305,102 847.006811,101.823448 846.604086,101.470339 C846.20136,101.11723 846,100.516953 846,99.6694915 C848.696512,93.5960148 850.858941,85.8983517 852.487354,76.5762712 C854.115767,67.2541907 854.929961,58.1441123 854.929961,49.2457627 L854.929961,4.33050847 C854.929961,3.7655339 855.052528,3.30649894 855.297665,2.95338983 C855.542803,2.60028072 855.945522,2.42372881 856.505837,2.42372881 C856.856033,2.42372881 857.328791,2.49434958 857.924125,2.63559322 C858.519458,2.77683686 859.272369,3.12994068 860.182879,3.69491525 L861.233463,4.33050847 L885.449416,4.33050847 C885.904672,4.33050847 886.657582,3.97740466 887.708171,3.27118644 C888.898839,2.42372458 889.669259,2 890.019455,2 C890.684828,2 891.612835,2.45903496 892.803502,3.37711864 L898.424125,7.93220339 C898.84436,8.21469068 899.150777,8.47951854 899.343385,8.72669492 C899.535993,8.97387129 899.632296,9.3446303 899.632296,9.83898305 L861.233463,9.83898305 L861.233463,27.4237288 L889.70428,27.4237288 L891.910506,28.2711864 L892.750973,32.0847458 L892.383268,39.7118644 L889.441634,53.059322 L885.18677,65.559322 L880.826848,74.2457627 L886.657588,81.8728814 L894.904669,88.0169492 L899.107004,89.9237288 L900,97.5508475 L896.322957,99.6694915 L890.544747,95.6440678 L882.66537,86.7457627 L877.570039,79.5423729 L868.640078,91.1949153 L858.449416,99.6694915 L857.188716,97.3389831 L865.803502,88.0169492 L874.733463,73.8220339 L870.898833,65.3474576 L866.643969,50.7288136 L864.385214,32.9322034 L861.233463,32.9322034 L861.233463,49.2457627 C861.233463,58.8503305 860.007794,68.6666165 857.55642,78.6949153 C855.105046,88.723214 851.900798,96.4914979 847.94358,102 Z M837.551724,99 C834.816078,89.6943979 831.298872,82.0555854 827,76.0833333 C827.355279,74.8333271 828.083589,74.1388896 829.184953,74 C834.762828,77.7500187 839.701128,83.236075 844,90.4583333 C844,92.1250083 843.582554,93.6874927 842.747649,95.1458333 C841.912744,96.604174 840.180786,97.8888833 837.551724,99 Z M809,71 L809,3.89329268 C809,3.33231427 809.116135,2.87652614 809.348409,2.52591463 C809.580682,2.17530312 810.000555,2 810.60804,2 C810.965384,2 811.438858,2.07012125 812.028476,2.21036585 C812.618093,2.35061046 813.395305,2.70121671 814.360134,3.26219512 L815.432161,3.89329268 L834.514238,3.89329268 C834.728644,3.50762002 835.023449,3.20083955 835.39866,2.97294207 C835.773871,2.74504459 836.140143,2.63109756 836.497487,2.63109756 C836.997769,2.63109756 837.399775,2.75380975 837.703518,2.9992378 C838.00726,3.24466586 838.302064,3.64786305 838.58794,4.20884146 L841,9.0472561 L839.927973,10.8353659 L839.927973,68.6859756 L835.961474,71 L833.442211,71 L833.442211,68.6859756 L815.432161,68.6859756 L811.519263,71 L809,71 Z M878.343109,69 L881.510264,61.4651163 L885.205279,48.2790698 L887,34.8837209 L886.260997,33 L869,33 L870.42522,48.6976744 L873.697947,58.744186 L878.343109,69 Z M815,64 L833,64 L833,50 L815,50 L815,64 Z M815,44 L833,44 L833,30 L815,30 L815,44 Z M815,24 L833,24 L833,10 L815,10 L815,24 Z" id="Text" stroke="#000000" stroke-width="0.72" sketch:type="MSShapeGroup"></path>
                <path d="M477.428971,94.9284279 C480.859142,96.1071889 484.936156,99.1980702 487.556261,102.849376 L487.870983,103 C488.157212,102.984541 488.6863,102.865347 489.45509,102.559462 C490.707014,102.061349 492.194417,101.210841 493.915556,99.9250013 C495.2136,98.9552498 496.063788,97.5851997 496.535227,95.9264372 C496.992222,94.3184947 497.056951,92.622584 496.895088,91.0788862 C496.866226,90.8036262 496.837061,90.6031144 496.816946,90.4916045 L496.822654,25.625676 L497.848416,24.5943822 L498,24.421939 L496.792251,21.6740439 C496.41922,20.7827354 495.988685,20.1351357 495.4914,19.7391344 C494.983365,19.3345721 494.380929,19.1312941 493.697885,19.1312941 C493.044095,19.1312941 492.468425,19.247842 491.97398,19.4840861 C491.482923,19.7187112 491.043615,20.0685441 490.657163,20.5301563 L490.935736,20.4002788 L458.661465,20.4002788 L462.061033,11.6856989 L463.095623,9.94637846 C463.145689,7.24211878 462.06337,5.29352059 459.921198,3.95849254 C457.83238,2.65671533 456.027247,2 454.496623,2 L454.186655,2 L454.13842,2.3047855 C452.512152,12.5806561 450.630374,21.022966 448.494343,27.6300765 C446.355957,34.244472 444.191867,39.9419881 442.002594,44.7222163 C441.969925,45.8140911 442.246217,46.5474879 442.80873,47.0452034 C443.356125,47.5295434 444.053139,47.7708698 444.882221,47.7708698 L445.069033,47.7708698 C447.913806,43.7991178 450.047626,40.4006803 451.579196,37.4225132 C453.106538,34.4525674 454.944809,30.9999498 456.78956,26.6211245 L489.457631,26.6211245 L489.457633,88.6519184 L489.457631,94.278957 L485.872992,92.4972226 C483.917411,91.5410855 482.24395,90.91418 480.864856,90.6251773 C479.496642,90.3384548 478.375378,90.1944398 477.496821,90.1944398 C476.680672,90.1944398 476.048069,90.3543632 475.603833,90.6912748 C475.13647,91.0457261 474.903235,91.5763877 474.903235,92.2473752 C474.903235,92.8987205 475.120973,93.4766899 475.550697,93.9655483 C475.980601,94.4546117 476.610984,94.7733363 477.428971,94.9284279 Z M403.674489,22.6289271 C404.028171,22.6289271 404.509861,22.6963333 405.114501,22.8326518 C405.703325,22.9654044 406.494377,23.3069178 407.478832,23.8579639 L408.573049,24.4923707 L408.750282,24.5401219 L411.209687,24.5401219 L411.442291,24.5401219 L411.536381,24.3243035 L419.961152,5 L419.660846,5.21482822 L422.486546,5.00247324 C424.659419,5.26846237 426.500591,6.81667094 427.950557,9.69035284 L428.002346,9.28352106 L415.077388,23.9360149 L414.544505,24.5401219 L415.343581,24.5401219 L433.553644,24.5401219 L433.765704,24.5401219 L433.867249,24.3512479 C434.044136,24.0222399 434.301297,23.7613389 434.645154,23.5641584 C434.995982,23.3629806 435.312192,23.265992 435.594427,23.265992 C436.045694,23.265992 436.398909,23.3683782 436.664552,23.5669617 C436.944804,23.7764667 437.216853,24.1392166 437.472682,24.658314 L440,29.1899511 L438.901117,30.9949685 L438.847818,92.9807173 L434.89733,95 L435.071149,94.954203 L432.402433,94.954203 L432.759657,92.9807173 L432.759657,92.6182981 L432.402433,92.6182981 L408.750282,92.6182981 L408.576463,92.6640952 L404.44257,95 L404.616388,94.954203 L402,94.954203 L402.357224,24.1777027 C402.357224,23.6812489 402.460169,23.2933232 402.658944,23.0052291 C402.827419,22.7610498 403.152991,22.6289271 403.674489,22.6289271 Z M410.322529,64 L410,64 L410,64.3105158 L410,86.6894842 L410,87 L410.322529,87 L431.677471,87 L432,87 L432,86.6894842 L432,64.3105158 L432,64 L431.677471,64 L410.322529,64 Z M454,49.6004668 L454.196921,49.7030998 C459.274434,52.3494362 463.688343,55.2623527 467.439171,58.4413657 C471.195553,61.625086 474.058047,64.4299749 476.025388,66.8528186 L476.122699,66.9726608 L476.275247,66.9855536 C478.122726,67.1416969 479.87885,66.0309248 481.539986,63.7097438 C483.175779,61.4239747 484,59.2319872 484,57.1352941 L484,56.9181222 L483.812512,56.8132113 C479.69191,54.5074866 475.402846,52.4180549 470.945254,50.5448527 C466.481609,48.6691064 461.81394,47.1542384 456.942306,46.000177 C455.817524,45.9905351 455.049032,46.3748999 454.607272,47.1429587 C454.203346,47.8452382 454,48.591608 454,49.3759209 L454,49.6004668 Z M410.322529,30 L410,30 L410,30.3645185 L410,56.6354815 L410,57 L410.322529,57 L431.677471,57 L432,57 L432,56.6354815 L432,30.3645185 L432,30 L431.677471,30 L410.322529,30 Z" id="Text" sketch:type="MSShapeGroup"></path>
            </g>
        </g>
    </g>
</svg>