<?xml version="1.0" encoding="UTF-8" standalone="no"?>
<svg width="1031px" height="103px" viewBox="0 0 1031 103" version="1.1" xmlns="http://www.w3.org/2000/svg" xmlns:xlink="http://www.w3.org/1999/xlink" xmlns:sketch="http://www.bohemiancoding.com/sketch/ns">
    <!-- Generator: Sketch 3.0.3 (7891) - http://www.bohemiancoding.com/sketch -->
    <title>slogan</title>
    <desc>Created with Sketch.</desc>
    <defs></defs>
    <g id="Introduction" stroke="none" stroke-width="1" fill="none" fill-rule="evenodd" sketch:type="MSPage">
        <g id="iPad" sketch:type="MSArtboardGroup" transform="translate(-885.000000, -1493.000000)" fill="#000000" opacity="0.7">
            <path d="M1567.22,1496.58898 C1567.22,1496.02401 1567.30715,1495.65325 1567.48145,1495.47669 C1567.65574,1495.30014 1567.89976,1495.14124 1568.21349,1495 C1568.56209,1495 1569.10241,1495.21186 1569.83446,1495.63559 L1579.29882,1498.54873 C1579.68228,1498.61935 1579.874,1498.83121 1579.874,1499.18432 C1579.874,1499.4315 1579.6997,1499.66102 1579.35111,1499.87288 L1575.58628,1501.77966 C1575.3074,1501.9209 1575.09825,1502.09746 1574.95881,1502.30932 C1574.81937,1502.52119 1574.74965,1502.76836 1574.74965,1503.05085 L1574.74965,1592.66949 L1570.1482,1595 L1567.22,1595 L1567.22,1496.58898 L1567.22,1496.58898 Z M1557.05476,1540.44 C1555.92652,1539.39999 1555.09694,1538.18667 1554.566,1536.8 C1556.68976,1531.53064 1558.68075,1524.59738 1560.53904,1516 C1561.86639,1516 1562.79552,1516.69333 1563.32646,1518.08 C1562.92825,1526.26137 1562.33096,1534.23463 1561.53455,1542 C1559.67626,1542 1558.18301,1541.48001 1557.05476,1540.44 L1557.05476,1540.44 L1557.05476,1540.44 Z M1577.92723,1517.14286 C1578.63947,1515.85714 1579.56536,1515.14286 1580.70494,1515 C1583.69633,1522.42861 1585.69056,1528.14284 1586.68769,1532.14286 C1586.68769,1534.00001 1586.01108,1535.46428 1584.65783,1536.53571 C1583.30458,1537.60715 1581.34596,1538.42857 1578.78191,1539 C1578.92436,1533.5714 1578.63947,1526.28576 1577.92723,1517.14286 L1577.92723,1517.14286 L1577.92723,1517.14286 Z M1585.10174,1592.52169 C1584.86119,1592.20282 1584.74092,1591.72452 1584.74092,1591.08677 C1584.74092,1590.6616 1585.01583,1590.23644 1585.56564,1589.81128 C1591.13246,1585.9848 1596.26967,1580.74118 1600.97742,1574.08026 C1605.68517,1567.41934 1609.00116,1559.19962 1610.9255,1549.42082 L1611.33785,1547.93275 L1586.3262,1547.93275 L1586.3262,1542.40564 L1611.75021,1542.40564 L1611.75021,1519.65944 L1596.01656,1519.65944 L1596.01656,1514.13232 L1611.75021,1514.13232 L1611.75021,1496.59436 C1611.75021,1496.02747 1611.83612,1495.65546 1612.00793,1495.47831 C1612.17975,1495.30116 1612.42029,1495.14172 1612.72955,1495 C1613.07319,1495 1613.60581,1495.21258 1614.32743,1495.63774 L1623.65698,1498.56074 C1624.03497,1498.6316 1624.22396,1498.84418 1624.22396,1499.19848 C1624.22396,1499.44649 1624.05215,1499.67679 1623.70852,1499.88937 L1619.99732,1501.8026 C1619.72242,1501.94432 1619.51624,1502.12147 1619.37879,1502.33406 C1619.24133,1502.54664 1619.17261,1502.79465 1619.17261,1503.07809 L1619.17261,1514.13232 L1634.58554,1514.13232 C1634.82608,1513.74259 1635.16112,1513.43258 1635.59066,1513.20228 C1636.0202,1512.97198 1636.44114,1512.85683 1636.8535,1512.85683 C1637.40331,1512.85683 1637.85861,1512.98084 1638.21942,1513.22885 C1638.58024,1513.47686 1638.91527,1513.88431 1639.22454,1514.45119 L1642.00794,1519.34056 L1640.77087,1521.14751 L1640.77087,1540.06725 C1641.42377,1540.06725 1642.45465,1540.52783 1643.86354,1541.44902 L1650.46123,1546.01952 C1650.94231,1546.30297 1651.30312,1546.56869 1651.54366,1546.8167 C1651.7842,1547.06472 1651.90447,1547.43673 1651.90447,1547.93275 L1621.85292,1547.93275 C1624.18961,1555.58572 1629.49064,1562.56541 1633.06441,1568.87202 C1636.63817,1575.17863 1641.31149,1579.67822 1647.0845,1582.37093 C1648.04666,1582.7961 1648.73392,1583.32755 1649.14627,1583.96529 C1649.55863,1584.60304 1649.76481,1585.20535 1649.76481,1585.77223 C1649.76481,1586.90601 1649.42118,1588.03976 1648.73392,1589.17354 C1648.04665,1590.30731 1647.22195,1591.22849 1646.25978,1591.93709 C1645.29762,1592.6457 1644.40419,1593 1643.57947,1593 L1641.93005,1592.78742 C1639.24973,1591.65365 1635.4183,1587.18948 1630.43564,1579.39479 C1625.45299,1571.60011 1619.79115,1562.17576 1618.14172,1551.12148 C1617.31701,1556.5069 1615.56451,1561.85681 1612.88419,1567.17137 C1610.20386,1572.48593 1606.80196,1577.1981 1602.67839,1581.30803 C1598.55481,1585.41795 1593.46915,1589.24438 1587.42124,1592.78742 L1586.28726,1593 C1585.73745,1593 1585.34228,1592.84057 1585.10174,1592.52169 L1585.10174,1592.52169 L1585.10174,1592.52169 Z M1633.41016,1543 L1633.41016,1520 L1618.80939,1520 L1618.80939,1543 L1633.41016,1543 L1633.41016,1543 Z M1833.38623,1596 C1831.87253,1595.63636 1831.58144,1594.54546 1832.51295,1592.72727 C1841.24583,1589.45453 1848.81421,1585.54548 1855.21832,1581 C1857.89641,1581.18182 1859.23543,1583.99997 1859.23543,1589.45455 L1833.38623,1596 L1833.38623,1596 Z M1897.20286,1596 C1892.91466,1593.14284 1885.94643,1589.71431 1876.29797,1585.71429 C1875.46416,1584.19047 1875.64283,1582.95239 1876.834,1582 C1891.60447,1584.28573 1901.31234,1586.76189 1905.9579,1589.42857 C1905.71966,1593.80955 1902.80135,1596 1897.20286,1596 L1897.20286,1596 L1897.20286,1596 Z M1840.74112,1582 L1840.74112,1547.00602 C1840.74112,1546.41164 1840.87785,1545.92872 1841.15133,1545.55723 C1841.42481,1545.18574 1841.90338,1545 1842.58707,1545 C1842.99729,1545 1843.54423,1545.0743 1844.22792,1545.22289 C1844.91161,1545.37149 1845.8004,1545.74297 1846.8943,1546.33735 L1848.12494,1547.00602 L1890.787,1547.00602 C1891.02629,1546.59739 1891.35959,1546.27234 1891.78689,1546.03087 C1892.2142,1545.78941 1892.63295,1545.66867 1893.04317,1545.66867 C1893.59012,1545.66867 1894.04306,1545.79869 1894.40199,1546.05873 C1894.76093,1546.31878 1895.09423,1546.74598 1895.40189,1547.34036 L1898.17082,1552.46687 L1896.94018,1554.36145 L1896.94018,1579.54819 L1892.42785,1582 L1889.55636,1582 L1889.55636,1579.54819 L1848.12494,1579.54819 L1843.6126,1582 L1840.74112,1582 L1840.74112,1582 Z M1847.55481,1574 L1889.41036,1574 L1889.41036,1570 L1847.55481,1570 L1847.55481,1574 L1847.55481,1574 Z M1847.55481,1567 L1889.41036,1567 L1889.41036,1562 L1847.55481,1562 L1847.55481,1567 L1847.55481,1567 Z M1847.55481,1557 L1889.41036,1557 L1889.41036,1552 L1847.55481,1552 L1847.55481,1557 L1847.55481,1557 Z M1828.08712,1545 L1828.08712,1523.78448 C1828.08712,1523.25574 1828.22407,1522.82615 1828.49799,1522.49569 C1828.77191,1522.16523 1829.25126,1522 1829.93606,1522 C1830.34694,1522 1830.89476,1522.06609 1831.57956,1522.19828 C1832.26436,1522.33046 1833.15458,1522.66092 1834.25026,1523.18966 L1835.48288,1523.78448 L1902.45567,1523.78448 C1902.69535,1523.42098 1903.02918,1523.13183 1903.45718,1522.91703 C1903.88518,1522.70223 1904.30461,1522.59483 1904.71549,1522.59483 C1905.26332,1522.59483 1905.71699,1522.71049 1906.07651,1522.94181 C1906.43603,1523.17313 1906.76986,1523.55316 1907.07802,1524.0819 L1909.85144,1528.64224 L1908.61881,1530.32759 L1908.61881,1542.42241 L1904.09917,1544.60345 L1901.22304,1544.60345 L1901.22304,1542.42241 L1835.48288,1542.42241 L1828.08712,1545 L1828.08712,1545 Z M1835.87419,1537 L1852.42173,1537 L1852.42173,1528 L1835.87419,1528 L1835.87419,1537 L1835.87419,1537 Z M1859.23543,1537 L1877.72974,1537 L1877.72974,1528 L1859.23543,1528 L1859.23543,1537 L1859.23543,1537 Z M1884.54343,1537 L1901.09097,1537 L1901.09097,1528 L1884.54343,1528 L1884.54343,1537 L1884.54343,1537 Z M1835.67804,1519 L1835.67804,1514.28383 L1865.02013,1514.28383 L1865.02013,1506.59422 L1822.24681,1506.59422 L1822.24681,1501.87805 L1865.02013,1501.87805 L1865.02013,1494.58537 C1865.02013,1494.02168 1865.10623,1493.65176 1865.27843,1493.47561 C1865.45062,1493.29946 1865.69169,1493.14092 1866.00165,1493 C1866.34604,1493 1866.87984,1493.21138 1867.60306,1493.63415 L1875.77775,1496.54065 C1876.15658,1496.61111 1876.346,1496.82249 1876.346,1497.1748 C1876.346,1497.42141 1876.1738,1497.65041 1875.82941,1497.86179 L1873.28551,1499.76423 C1873.01,1499.90515 1872.80337,1500.0813 1872.66561,1500.29268 C1872.52785,1500.50407 1872.45897,1500.75068 1872.45897,1501.03252 L1872.45897,1501.87805 L1904.07404,1501.87805 C1904.07404,1501.87805 1904.37022,1501.2439 1906.0982,1499.76423 C1907.82618,1498.28455 1914.19856,1503.46756 1915.2323,1505.04878 C1916.26605,1506.63 1915.2323,1506.59422 1915.2323,1506.59422 L1872.45897,1506.59422 L1872.45897,1514.28383 L1890.6428,1514.28383 C1890.6428,1514.28383 1891.11003,1513.50351 1892.79783,1512.59633 C1894.48563,1511.68915 1900.64793,1515.94028 1901.80106,1517.45456 C1902.9542,1518.96885 1901.80106,1519 1901.80106,1519 L1835.67804,1519 L1835.67804,1519 Z M1437.33279,1592 L1437.33279,1573.90456 L1425.10582,1573.90456 L1425.10582,1568.43384 L1437.33279,1568.43384 L1437.33279,1558.96529 L1431.7374,1558.96529 L1427.17819,1561.27983 L1425.5203,1561.27983 L1425.5203,1524.03688 C1425.5203,1523.47577 1425.65845,1523.01989 1425.93477,1522.6692 C1426.21109,1522.31851 1426.69463,1522.14317 1427.38543,1522.14317 C1427.7999,1522.14317 1428.30072,1522.20454 1428.88789,1522.32728 C1429.47507,1522.45002 1430.04496,1522.6955 1430.5976,1523.06372 C1431.15023,1523.43194 1431.59924,1523.75633 1431.94464,1524.03688 L1437.33279,1524.03688 L1437.33279,1514.56833 L1426.55648,1514.56833 L1426.55648,1509.09761 L1437.33279,1509.09761 L1437.33279,1496.57809 C1437.33279,1496.01699 1437.41914,1495.64877 1437.59184,1495.47343 C1437.76454,1495.29808 1438.00631,1495.14028 1438.31717,1495 C1438.66256,1495 1439.19792,1495.21041 1439.92325,1495.63124 L1448.05729,1498.5244 C1448.43723,1498.59454 1448.6272,1498.80495 1448.6272,1499.15564 C1448.6272,1499.40112 1448.4545,1499.62907 1448.1091,1499.83948 L1444.37884,1501.73319 C1444.10252,1501.87346 1443.89529,1502.04881 1443.75713,1502.25922 C1443.61897,1502.46963 1443.54989,1502.71511 1443.54989,1502.99566 L1443.54989,1509.38752 C1444.37884,1509.38752 1449.14529,1509.38752 1450.80318,1507.5067 L1454.32621,1512.67462 C1454.80976,1512.95517 1455.17242,1513.21818 1455.4142,1513.46367 C1455.65598,1513.70915 1455.77686,1514.07737 1455.77686,1514.56833 L1443.54989,1514.56833 L1443.54989,1524.03688 L1449.14529,1524.03688 C1449.55976,1523.61605 1450.00877,1523.30043 1450.49233,1523.09002 C1450.97588,1522.87961 1451.56305,1522.7744 1452.25384,1522.7744 C1452.94463,1522.7744 1453.5318,1522.94975 1454.01535,1523.30043 C1454.49891,1523.65112 1454.94791,1524.24728 1455.36239,1525.08894 L1456.60581,1527.61388 L1455.36239,1528.87636 L1455.36239,1558.96529 L1450.80318,1561.27983 L1449.14529,1561.27983 L1449.14529,1558.96529 L1443.54989,1558.96529 L1443.54989,1567.17137 C1444.65516,1566.46999 1445.41502,1566.11931 1445.8295,1566.11931 C1446.62391,1566.11931 1447.72916,1566.57519 1449.14529,1567.48698 L1455.77686,1572.01085 C1456.26042,1572.2914 1456.62308,1572.55441 1456.86486,1572.79989 C1457.10663,1573.04537 1457.22752,1573.41359 1457.22752,1573.90456 L1443.54989,1573.90456 L1443.54989,1589.68547 L1438.99069,1592 L1437.33279,1592 L1437.33279,1592 Z M1431.91952,1553 L1437.75983,1553 L1437.75983,1544 L1431.91952,1544 L1431.91952,1553 L1431.91952,1553 Z M1443.60013,1553 L1449.44044,1553 L1449.44044,1544 L1443.60013,1544 L1443.60013,1553 L1443.60013,1553 Z M1431.91952,1539 L1437.75983,1539 L1437.75983,1530 L1431.91952,1530 L1431.91952,1539 L1431.91952,1539 Z M1443.60013,1539 L1449.44044,1539 L1449.44044,1530 L1443.60013,1530 L1443.60013,1539 L1443.60013,1539 Z M1460.03601,1592 L1458.30286,1590.62515 L1458.20091,1587.13514 L1459.47529,1585.12573 C1461.75219,1586.32433 1470.09506,1586.71211 1484.50414,1586.28907 L1484.50414,1554.98472 L1464.26696,1555.14336 L1462.99258,1554.0329 L1463.96111,1548.79788 L1506.72935,1548.79788 L1509.58397,1547 L1512.43858,1549.0094 L1513.66199,1551.86486 L1513.66199,1555.14336 L1491.43678,1554.98472 L1491.43678,1586.07756 L1512.18371,1586.07756 L1515.03832,1583.64512 L1519.52415,1587.34665 L1519.26927,1592 L1460.03601,1592 L1460.03601,1592 Z M1475.62928,1545 L1473.58677,1544.1 C1472.59955,1540.00586 1471.1698,1536.64413 1469.29749,1534.01471 C1467.42518,1531.38528 1465.34865,1529.18824 1463.06783,1527.42353 L1463.98696,1524.3 C1467.83371,1519.3588 1471.03361,1514.25885 1473.58677,1509 L1475.83353,1510.58824 L1476.75266,1518 C1474.09738,1521.21178 1471.22087,1523.69999 1468.12305,1525.46471 C1472.41234,1528.81766 1475.91862,1533.05292 1478.64199,1538.17059 C1478.36965,1540.95884 1477.36542,1543.23529 1475.62928,1545 L1475.62928,1545 L1475.62928,1545 Z M1493.13032,1545 L1491.07433,1544.1 C1490.08059,1540.00586 1488.64997,1536.64413 1486.78244,1534.01471 C1484.9149,1531.38528 1482.85036,1529.18824 1480.58875,1527.42353 L1481.41115,1524.3 C1485.35183,1519.3588 1488.57285,1514.25885 1491.07433,1509 L1493.43872,1510.58824 L1494.26112,1518 C1491.58831,1521.21178 1488.72708,1523.69999 1485.67734,1525.46471 C1489.92642,1528.81766 1493.42157,1533.05292 1496.16291,1538.17059 C1495.88878,1540.95884 1494.87792,1543.23529 1493.13032,1545 L1493.13032,1545 L1493.13032,1545 Z M1509.74881,1545 L1507.65523,1544.1 C1506.66801,1540.00586 1505.23827,1536.64413 1503.36596,1534.01471 C1501.49365,1531.38528 1499.41711,1529.18824 1497.1363,1527.42353 L1498.05543,1524.3 C1501.90218,1519.3588 1505.10208,1514.25885 1507.65523,1509 L1509.95306,1510.58824 L1510.82113,1518 C1508.16585,1521.21178 1505.28934,1523.69999 1502.19151,1525.46471 C1506.48081,1528.81766 1509.98709,1533.05292 1512.71045,1538.17059 C1512.43812,1540.95884 1511.45091,1543.23529 1509.74881,1545 L1509.74881,1545 L1509.74881,1545 Z M1460.14767,1506 L1460.30221,1499.55556 L1510.47415,1499.11111 L1511.86496,1497 L1513.97692,1498.16667 L1516.60399,1502.11111 L1516.60399,1506 L1460.14767,1506 L1460.14767,1506 Z M1688.66803,1595 C1687.85781,1594.85751 1687.36831,1594.60814 1687.19952,1594.25191 C1687.03072,1593.89567 1686.94632,1593.36133 1686.94632,1592.64885 C1692.51659,1584.95416 1696.53387,1576.40463 1698.99829,1567 C1700.38242,1567 1701.52177,1567.64121 1702.41639,1568.92366 C1703.31101,1570.20611 1703.99462,1572.201 1704.46725,1574.9084 C1701.39517,1581.89062 1696.12881,1588.58775 1688.66803,1595 L1688.66803,1595 L1688.66803,1595 Z M1730.69372,1595 C1730.21649,1595 1729.78188,1594.82345 1729.38988,1594.47034 C1728.99787,1594.11723 1728.80187,1593.51695 1728.80187,1592.66949 C1731.42661,1586.59601 1733.53149,1578.89835 1735.11656,1569.57627 C1736.70163,1560.25419 1737.49416,1551.14411 1737.49416,1542.24576 L1737.49416,1497.33051 C1737.49416,1496.76553 1737.61346,1496.3065 1737.85208,1495.95339 C1738.09069,1495.60028 1738.48269,1495.42373 1739.02809,1495.42373 C1739.36897,1495.42373 1739.82914,1495.49435 1740.40863,1495.63559 C1740.98812,1495.77684 1741.72099,1496.12994 1742.60727,1496.69492 L1743.62989,1497.33051 L1767.20133,1497.33051 C1767.64447,1497.33051 1768.37734,1496.9774 1769.39997,1496.27119 C1770.55895,1495.42372 1771.30886,1495 1771.64974,1495 C1772.2974,1495 1773.20071,1495.45903 1774.35969,1496.37712 L1779.83071,1500.9322 C1780.23976,1501.21469 1780.53803,1501.47952 1780.72551,1501.72669 C1780.91299,1501.97387 1781.00673,1502.34463 1781.00673,1502.83898 L1743.62989,1502.83898 L1743.62989,1520.42373 L1771.34295,1520.42373 L1773.49046,1521.27119 L1774.30855,1525.08475 L1773.95064,1532.71186 L1771.08729,1546.05932 L1766.94567,1558.55932 L1762.70179,1567.24576 L1768.37735,1574.87288 L1776.40493,1581.01695 L1780.49542,1582.92373 L1781.36465,1590.55085 L1777.78547,1592.66949 L1772.16105,1588.64407 L1764.49138,1579.74576 L1759.53166,1572.54237 L1750.83938,1584.19492 L1740.91994,1592.66949 L1739.6928,1590.33898 L1748.0783,1581.01695 L1756.77058,1566.82203 L1753.03801,1558.34746 L1748.89639,1543.72881 L1746.69776,1525.9322 L1743.62989,1525.9322 L1743.62989,1542.24576 C1743.62989,1551.85033 1742.43684,1561.66662 1740.05071,1571.69492 C1737.66458,1581.72321 1734.54562,1589.4915 1730.69372,1595 L1730.69372,1595 L1730.69372,1595 Z M1720.57845,1592 C1717.91561,1582.6944 1714.49202,1575.05559 1710.30756,1569.08333 C1710.65338,1567.83333 1711.36231,1567.13889 1712.43436,1567 C1717.86378,1570.75002 1722.67064,1576.23607 1726.8551,1583.45833 C1726.8551,1585.12501 1726.44876,1586.68749 1725.63608,1588.14583 C1724.8234,1589.60417 1723.13754,1590.88888 1720.57845,1592 L1720.57845,1592 L1720.57845,1592 Z M1692.78663,1564 L1692.78663,1496.89329 C1692.78663,1496.33231 1692.89968,1495.87653 1693.12577,1495.52591 C1693.35186,1495.1753 1693.76056,1495 1694.35188,1495 C1694.69971,1495 1695.16058,1495.07012 1695.73451,1495.21037 C1696.30843,1495.35061 1697.06496,1495.70122 1698.00411,1496.2622 L1699.0476,1496.89329 L1717.6218,1496.89329 C1717.8305,1496.50762 1718.11746,1496.20084 1718.48269,1495.97294 C1718.84791,1495.74504 1719.20444,1495.6311 1719.55227,1495.6311 C1720.03924,1495.6311 1720.43054,1495.75381 1720.7262,1495.99924 C1721.02186,1496.24467 1721.30882,1496.64786 1721.58708,1497.20884 L1723.93495,1502.04726 L1722.89145,1503.83537 L1722.89145,1561.68598 L1719.03052,1564 L1716.57831,1564 L1716.57831,1561.68598 L1699.0476,1561.68598 L1695.23885,1564 L1692.78663,1564 L1692.78663,1564 Z M1760.28416,1562 L1763.36702,1554.46512 L1766.96369,1541.27907 L1768.71064,1527.88372 L1767.99131,1526 L1751.18972,1526 L1752.57701,1541.69767 L1755.76263,1551.74419 L1760.28416,1562 L1760.28416,1562 Z M1698.62694,1557 L1716.14787,1557 L1716.14787,1543 L1698.62694,1543 L1698.62694,1557 L1698.62694,1557 Z M1698.62694,1537 L1716.14787,1537 L1716.14787,1523 L1698.62694,1523 L1698.62694,1537 L1698.62694,1537 Z M1698.62694,1517 L1716.14787,1517 L1716.14787,1503 L1698.62694,1503 L1698.62694,1517 L1698.62694,1517 Z M897.472656,1588.1543 L897.472656,1531.42383 C893.851544,1535.24611 890.3646,1538.53189 887.011719,1541.28125 C886.341142,1541.28125 885.838218,1541.08008 885.50293,1540.67773 C885.167642,1540.27539 885,1539.77246 885,1539.16895 L885.402344,1537.86133 C889.626974,1531.35674 893.382145,1525.40546 896.667969,1520.00732 C899.953792,1514.60919 902.636057,1509.42906 904.714844,1504.4668 C904.983074,1503.93034 905.301593,1503.49447 905.67041,1503.15918 C906.039227,1502.82389 906.458331,1502.65625 906.927734,1502.65625 C907.732426,1502.65625 908.704747,1503.02506 909.844727,1503.7627 C910.984706,1504.50033 911.957027,1505.43912 912.761719,1506.5791 C913.56641,1507.71908 913.96875,1508.6914 913.96875,1509.49609 L913.767578,1510.9043 C912.627598,1513.31837 909.610051,1517.47588 904.714844,1523.37695 L904.714844,1585.94141 L900.289062,1588.1543 L897.472656,1588.1543 L897.472656,1588.1543 Z M918.394531,1593.18359 L917.1875,1590.76953 C922.417995,1587.55077 927.07843,1584.03029 931.168945,1580.20801 C935.259461,1576.38572 938.779933,1571.8594 941.730469,1566.62891 L932.476562,1555.9668 L925.837891,1562.60547 C924.228508,1562.73958 923.155602,1562.4043 922.619141,1561.59961 L926.240234,1555.9668 L930.867188,1549.5293 L933.683594,1550.28369 L938.914062,1556.36914 L943.541016,1560.99609 C944.211592,1558.04556 944.546875,1555.22918 944.546875,1552.54688 L944.546875,1546.31055 L925.536133,1547.06494 L924.027344,1545.50586 L924.027344,1519.55469 L926.039062,1517.14062 L931.269531,1518.14648 L944.546875,1518.14648 L944.546875,1507.88672 L920.003906,1507.88672 L918.595703,1504.66797 L920.003906,1502.65625 L973.917969,1502.65625 L976.935547,1503.86328 L975.929688,1507.88672 L951.789062,1507.88672 L951.789062,1518.14648 L970.900391,1517.39209 L972.308594,1518.75 L972.308594,1546.31055 L969.693359,1548.52344 L966.675781,1548.52344 L965.066406,1546.31055 L951.990234,1546.31055 L951.990234,1552.54688 C951.856119,1557.77737 950.716157,1562.53839 948.570312,1566.83008 C949.643235,1568.03712 952.392556,1570.51821 956.818359,1574.27344 C963.792353,1579.77216 970.632128,1583.32616 977.337891,1584.93555 C976.667314,1588.69077 974.990899,1591.4401 972.308594,1593.18359 L960.439453,1585.13672 C955.611304,1581.51561 950.716171,1576.95576 945.753906,1571.45703 C941.998679,1577.08987 937.371772,1581.88442 931.873047,1585.84082 C926.374321,1589.79722 921.881528,1592.24479 918.394531,1593.18359 L918.394531,1593.18359 L918.394531,1593.18359 Z M931.269531,1541.08008 L944.546875,1541.08008 L944.546875,1534.84375 L931.269531,1534.84375 L931.269531,1541.08008 L931.269531,1541.08008 Z M951.789062,1541.08008 L965.066406,1541.08008 L965.066406,1534.84375 L951.789062,1534.84375 L951.789062,1541.08008 L951.789062,1541.08008 Z M931.269531,1529.61328 L944.546875,1529.61328 L944.546875,1523.37695 L931.269531,1523.37695 L931.269531,1529.61328 L931.269531,1529.61328 Z M951.789062,1529.61328 L965.066406,1529.61328 L965.066406,1523.37695 L951.789062,1523.37695 L951.789062,1529.61328 L951.789062,1529.61328 Z M1034.31781,1595.39648 L1034.31781,1548.92578 C1030.83082,1558.98443 1025.33217,1570.38405 1017.82172,1583.125 C1016.34645,1582.99088 1015.60883,1582.38738 1015.60883,1581.31445 C1021.10755,1566.96412 1025.93563,1552.68106 1030.0932,1538.46484 L1016.21234,1538.46484 L1016.21234,1533.23438 L1034.31781,1533.23438 L1034.31781,1514.12305 C1029.75789,1514.79362 1025.33216,1515.26302 1021.04047,1515.53125 C1019.69932,1515.1289 1018.96169,1514.39128 1018.82758,1513.31836 C1027.14272,1511.30663 1033.91544,1509.2614 1039.14594,1507.18262 C1044.37643,1505.10383 1048.86923,1502.85743 1052.62445,1500.44336 C1053.56326,1500.44336 1054.40147,1501.04687 1055.1391,1502.25391 C1055.87674,1503.46094 1056.37966,1505.33853 1056.64789,1507.88672 C1052.75855,1510.03256 1047.7293,1511.77603 1041.56,1513.11719 L1041.56,1533.23438 L1044.77875,1533.23438 C1045.31521,1533.23438 1046.18695,1532.89909 1047.39398,1532.22852 C1048.73514,1531.42382 1049.60687,1531.02148 1050.00922,1531.02148 C1050.78038,1531.02148 1051.85329,1531.45735 1053.22797,1532.3291 L1059.66547,1536.6543 C1060.13487,1536.92253 1060.48692,1537.17399 1060.72162,1537.40869 C1060.95632,1537.64339 1061.07367,1537.99544 1061.07367,1538.46484 L1042.56586,1538.46484 C1049.67397,1544.36591 1055.37378,1552.34565 1059.66547,1562.4043 C1059.66547,1564.68426 1058.9949,1566.49478 1057.65375,1567.83594 C1056.3126,1569.17709 1054.83735,1570.04883 1053.22797,1570.45117 C1052.02093,1565.22068 1050.4451,1560.42613 1048.50043,1556.06738 C1046.55576,1551.70864 1044.24231,1547.58465 1041.56,1543.69531 L1041.56,1593.18359 L1037.13422,1595.39648 L1034.31781,1595.39648 L1034.31781,1595.39648 Z M1089.84125,1595.39648 C1086.7566,1591.64126 1083.40377,1589.22722 1079.78266,1588.1543 C1078.97797,1588.02018 1078.37446,1587.75196 1077.97211,1587.34961 C1077.56976,1586.94726 1077.36859,1586.47787 1077.36859,1585.94141 C1077.36859,1585.40495 1077.56976,1585.00261 1077.97211,1584.73438 C1078.37446,1584.46614 1078.97797,1584.33203 1079.78266,1584.33203 C1080.72146,1584.33203 1081.92848,1584.46614 1083.40375,1584.73438 C1084.87902,1585.00261 1086.67278,1585.58935 1088.7851,1586.49463 L1092.45648,1588.35547 C1092.99295,1585.67316 1093.26117,1583.72852 1093.26117,1582.52148 L1093.26117,1501.95215 C1093.26117,1501.41569 1093.34499,1501.06364 1093.51264,1500.896 C1093.68028,1500.72835 1093.91498,1500.57747 1094.21674,1500.44336 C1094.55203,1500.44336 1095.07172,1500.64453 1095.77582,1501.04688 L1104.87885,1503.81299 C1105.24767,1503.88005 1105.43207,1504.08122 1105.43207,1504.4165 C1105.43207,1504.65121 1105.26443,1504.86914 1104.92914,1505.07031 L1101.30805,1506.88086 C1101.03982,1507.01497 1100.83865,1507.18262 1100.70453,1507.38379 C1100.57042,1507.58496 1100.50336,1507.81966 1100.50336,1508.08789 L1100.50336,1584.33203 L1097.08344,1593.18359 L1092.65766,1595.39648 L1089.84125,1595.39648 L1089.84125,1595.39648 Z M1069.52289,1566.02539 L1069.52289,1521.06348 C1069.52289,1520.52702 1069.60671,1520.17497 1069.77436,1520.00732 C1069.942,1519.83968 1070.1767,1519.6888 1070.47846,1519.55469 C1070.81375,1519.55469 1071.33343,1519.75586 1072.03754,1520.1582 L1081.14057,1522.92432 C1081.50938,1522.99137 1081.69379,1523.19254 1081.69379,1523.52783 C1081.69379,1523.76253 1081.52615,1523.98047 1081.19086,1524.18164 L1077.56977,1525.99219 C1077.30154,1526.1263 1077.10037,1526.29394 1076.96625,1526.49512 C1076.83214,1526.69629 1076.76508,1526.93099 1076.76508,1527.19922 L1076.76508,1563.8125 L1072.3393,1566.02539 L1069.52289,1566.02539 L1069.52289,1566.02539 Z M1161.50672,1591.37305 C1160.23262,1591.37305 1158.94178,1590.70248 1157.63416,1589.36133 C1156.32654,1588.02018 1155.63921,1585.94142 1155.57215,1583.125 L1156.47742,1578.69922 C1155.94096,1576.95572 1155.16981,1575.48047 1154.16395,1574.27344 C1153.15808,1573.0664 1151.91753,1571.79232 1150.44227,1570.45117 C1149.77169,1569.91471 1149.36935,1569.3112 1149.23524,1568.64062 C1149.50347,1567.83593 1150.24109,1567.29948 1151.44813,1567.03125 C1153.05751,1567.03125 1155.5386,1567.76887 1158.89149,1569.24414 C1160.36675,1562.40426 1162.3114,1554.1563 1164.72547,1544.5 L1172.77234,1513.31836 C1173.97938,1513.31836 1174.88465,1513.62011 1175.48817,1514.22363 C1176.09168,1514.82715 1176.39344,1515.46419 1176.39344,1516.13477 L1169.35242,1545.9082 C1166.67012,1557.84446 1165.39604,1567.97001 1165.53016,1576.28516 C1166.46896,1580.71096 1166.93836,1583.86262 1166.93836,1585.74023 C1166.93836,1587.2155 1166.38514,1588.52311 1165.27869,1589.66309 C1164.17224,1590.80307 1162.91493,1591.37305 1161.50672,1591.37305 L1161.50672,1591.37305 L1161.50672,1591.37305 Z M1154.4657,1546.51172 C1153.39278,1543.36001 1152.23606,1540.61069 1150.99549,1538.26367 C1149.75492,1535.91665 1148.16233,1533.63673 1146.21766,1531.42383 C1146.21766,1530.61914 1146.36853,1530.04916 1146.67029,1529.71387 C1146.97205,1529.37858 1147.42469,1529.21094 1148.0282,1529.21094 C1149.90582,1529.68034 1152.23604,1530.83707 1155.01893,1532.68115 C1157.80182,1534.52524 1159.89734,1536.38606 1161.30555,1538.26367 C1161.17143,1540.20834 1160.45057,1541.95182 1159.14295,1543.49414 C1157.83533,1545.03647 1156.27626,1546.04232 1154.4657,1546.51172 L1154.4657,1546.51172 L1154.4657,1546.51172 Z M1161.10438,1520.76172 C1160.03145,1517.61001 1158.87473,1514.86069 1157.63416,1512.51367 C1156.3936,1510.16665 1154.801,1507.88673 1152.85633,1505.67383 C1152.85633,1504.86914 1153.00721,1504.29916 1153.30897,1503.96387 C1153.61073,1503.62858 1154.06336,1503.46094 1154.66688,1503.46094 C1156.54449,1503.93034 1158.87471,1505.08707 1161.6576,1506.93115 C1164.44049,1508.77524 1166.53601,1510.63606 1167.94422,1512.51367 C1167.8101,1514.45834 1167.08925,1516.20182 1165.78162,1517.74414 C1164.474,1519.28647 1162.91493,1520.29232 1161.10438,1520.76172 L1161.10438,1520.76172 L1161.10438,1520.76172 Z M1185.44617,1595.39648 L1185.44617,1576.23486 L1178.8075,1576.08398 L1178.8075,1570.85352 L1185.44617,1570.85352 L1185.44617,1564.41602 L1178.8075,1564.41602 L1178.8075,1559.18555 L1185.44617,1559.18555 L1185.44617,1547.51758 C1185.44617,1546.98112 1185.58029,1546.54525 1185.84852,1546.20996 C1186.11675,1545.87467 1186.58614,1545.70703 1187.25672,1545.70703 C1187.65907,1545.70703 1188.19552,1545.77409 1188.86609,1545.9082 C1189.53667,1546.04232 1190.40841,1546.3776 1191.48133,1546.91406 L1192.68836,1547.51758 L1205.36219,1547.51758 L1205.36219,1540.27539 L1178.8075,1540.27539 L1178.8075,1535.04492 L1195.30359,1535.04492 L1195.30359,1528.20508 L1184.84266,1528.20508 L1184.84266,1522.97461 L1195.30359,1522.97461 L1195.30359,1516.13477 L1181.22156,1516.13477 L1181.22156,1510.9043 L1195.30359,1510.9043 L1195.30359,1501.95215 C1195.30359,1501.41569 1195.38742,1501.06364 1195.55506,1500.896 C1195.7227,1500.72835 1195.9574,1500.57747 1196.25916,1500.44336 C1196.59445,1500.44336 1197.11414,1500.64453 1197.81824,1501.04688 L1206.92127,1503.81299 C1207.29009,1503.88005 1207.47449,1504.08122 1207.47449,1504.4165 C1207.47449,1504.65121 1207.30685,1504.86914 1206.97156,1505.07031 L1203.35047,1506.88086 C1203.08224,1507.01497 1202.88107,1507.18262 1202.74695,1507.38379 C1202.61284,1507.58496 1202.54578,1507.81966 1202.54578,1508.08789 L1202.54578,1510.9043 L1215.42078,1510.9043 L1215.42078,1501.95215 C1215.42078,1501.41569 1215.5046,1501.06364 1215.67225,1500.896 C1215.83989,1500.72835 1216.07459,1500.57747 1216.37635,1500.44336 C1216.71164,1500.44336 1217.23133,1500.64453 1217.93543,1501.04688 L1227.03846,1503.81299 C1227.40727,1503.88005 1227.59168,1504.08122 1227.59168,1504.4165 C1227.59168,1504.65121 1227.42404,1504.86914 1227.08875,1505.07031 L1223.46766,1506.88086 C1223.19943,1507.01497 1222.99826,1507.18262 1222.86414,1507.38379 C1222.73003,1507.58496 1222.66297,1507.81966 1222.66297,1508.08789 L1222.66297,1510.9043 L1231.51453,1510.9043 C1232.58745,1510.50195 1233.32508,1509.76433 1233.72742,1508.69141 C1235.47092,1509.76433 1236.47677,1511.30663 1236.745,1513.31836 L1236.745,1514.92773 C1236.61089,1515.59831 1236.20855,1516.00065 1235.53797,1516.13477 L1222.66297,1516.13477 L1222.66297,1522.97461 L1227.89344,1522.97461 C1228.96636,1522.57226 1229.70398,1521.83464 1230.10633,1520.76172 C1231.84983,1521.83464 1232.85568,1523.37694 1233.12391,1525.38867 L1233.12391,1526.99805 C1232.98979,1527.66862 1232.58745,1528.07096 1231.91688,1528.20508 L1222.66297,1528.20508 L1222.66297,1535.04492 L1224.27234,1535.04492 C1224.80881,1535.04492 1225.68054,1534.70964 1226.88758,1534.03906 C1228.22873,1533.23437 1229.10047,1532.83203 1229.50281,1532.83203 C1230.27398,1532.83203 1231.34688,1533.2679 1232.72156,1534.13965 L1239.15906,1538.46484 C1239.62847,1538.73307 1239.98051,1538.98454 1240.21522,1539.21924 C1240.44992,1539.45394 1240.56727,1539.80599 1240.56727,1540.27539 L1212.60438,1540.27539 L1212.60438,1547.51758 L1226.48524,1547.51758 C1226.88758,1547.11523 1227.32345,1546.81348 1227.79285,1546.6123 C1228.26226,1546.41113 1228.83224,1546.31055 1229.50281,1546.31055 C1230.17339,1546.31055 1230.74337,1546.47819 1231.21277,1546.81348 C1231.68218,1547.14876 1232.11805,1547.71875 1232.52039,1548.52344 L1233.72742,1550.9375 L1232.52039,1552.14453 L1232.52039,1557.57617 L1238.65613,1561.85107 C1239.12554,1562.15283 1239.47758,1562.42106 1239.71229,1562.65576 C1239.94699,1562.89046 1240.06434,1563.20898 1240.06434,1563.61133 C1240.06434,1563.91309 1239.96375,1564.14779 1239.76258,1564.31543 C1239.56141,1564.48307 1239.19259,1564.56689 1238.65613,1564.56689 L1232.52039,1564.41602 L1232.52039,1569.24414 L1238.65613,1573.51904 C1239.12554,1573.8208 1239.47758,1574.08903 1239.71229,1574.32373 C1239.94699,1574.55843 1240.06434,1574.87695 1240.06434,1575.2793 C1240.06434,1575.58106 1239.96375,1575.81575 1239.76258,1575.9834 C1239.56141,1576.15104 1239.19259,1576.23486 1238.65613,1576.23486 L1232.52039,1576.08398 L1232.52039,1584.43262 L1229.10047,1593.18359 L1224.67469,1595.39648 L1221.85828,1595.39648 C1218.77363,1591.64126 1215.4208,1589.22722 1211.79969,1588.1543 C1210.995,1588.02018 1210.39149,1587.75196 1209.98914,1587.34961 C1209.5868,1586.94726 1209.38563,1586.47787 1209.38563,1585.94141 C1209.38563,1585.40495 1209.5868,1585.00261 1209.98914,1584.73438 C1210.39149,1584.46614 1210.995,1584.33203 1211.79969,1584.33203 C1212.7385,1584.33203 1213.94551,1584.46614 1215.42078,1584.73438 C1216.89605,1585.00261 1218.68981,1585.58935 1220.80213,1586.49463 L1224.47352,1588.35547 C1225.00998,1585.67316 1225.2782,1583.72852 1225.2782,1582.52148 L1225.2782,1576.08398 L1192.68836,1576.23486 L1192.68836,1593.18359 L1188.26258,1595.39648 L1185.44617,1595.39648 L1185.44617,1595.39648 Z M1192.68836,1570.85352 L1205.36219,1570.85352 L1205.36219,1564.41602 L1192.68836,1564.41602 L1192.68836,1570.85352 L1192.68836,1570.85352 Z M1212.60438,1570.85352 L1219.84656,1570.85352 C1221.0536,1570.85352 1222.19356,1570.67749 1223.26649,1570.32544 C1224.33941,1569.97339 1225.00997,1569.69678 1225.2782,1569.49561 L1225.47938,1564.41602 L1212.60438,1564.41602 L1212.60438,1570.85352 L1212.60438,1570.85352 Z M1192.68836,1559.18555 L1205.36219,1559.18555 L1205.36219,1552.74805 L1192.68836,1552.74805 L1192.68836,1559.18555 L1192.68836,1559.18555 Z M1212.60438,1559.18555 L1219.84656,1559.18555 C1221.0536,1559.18555 1222.19356,1559.00952 1223.26649,1558.65747 C1224.33941,1558.30542 1225.00997,1558.02881 1225.2782,1557.82764 L1225.47938,1552.74805 L1212.60438,1552.74805 L1212.60438,1559.18555 L1212.60438,1559.18555 Z M1202.54578,1535.04492 L1215.42078,1535.04492 L1215.42078,1528.20508 L1202.54578,1528.20508 L1202.54578,1535.04492 L1202.54578,1535.04492 Z M1202.54578,1522.97461 L1215.42078,1522.97461 L1215.42078,1516.13477 L1202.54578,1516.13477 L1202.54578,1522.97461 L1202.54578,1522.97461 Z M1330.94172,1593.18359 C1313.23851,1592.51302 1301.77182,1587.2826 1296.54133,1577.49219 L1286.68391,1592.58008 L1284.87336,1592.78125 C1283.66632,1592.78125 1282.25813,1592.11068 1280.64875,1590.76953 C1279.03937,1589.42838 1278.23469,1588.42253 1278.23469,1587.75195 L1279.44172,1585.74023 L1294.12727,1571.05469 C1293.59081,1568.70767 1293.25552,1566.29363 1293.12141,1563.8125 L1293.12141,1549.32812 L1277.63117,1549.32812 L1277.63117,1544.09766 L1294.32844,1544.09766 C1294.73078,1543.69531 1295.16665,1543.39356 1295.63606,1543.19238 C1296.10546,1542.99121 1296.67544,1542.89062 1297.34602,1542.89062 C1298.01659,1542.89062 1298.58657,1543.05827 1299.05598,1543.39355 C1299.52538,1543.72884 1299.96125,1544.29882 1300.3636,1545.10352 L1301.57063,1547.51758 L1300.3636,1548.72461 L1300.3636,1563.8125 C1300.76594,1577.35814 1310.95855,1584.46614 1330.94172,1585.13672 L1352.86945,1585.13672 C1357.29526,1584.80143 1361.05043,1584.13086 1364.13508,1583.125 L1366.54914,1582.72266 C1368.29264,1582.72266 1369.56672,1584.6673 1370.37141,1588.55664 C1370.37141,1589.62956 1369.86848,1591.17186 1368.86262,1593.18359 L1330.94172,1593.18359 L1330.94172,1593.18359 Z M1309.6175,1578.0957 L1309.6175,1523.0752 C1310.82454,1521.66699 1311.89744,1520.96289 1312.83625,1520.96289 L1316.85969,1523.0752 L1338.18391,1523.0752 C1337.11099,1519.28644 1335.63574,1515.22951 1333.75813,1510.9043 L1336.17219,1509.49609 C1337.07747,1510.4349 1338.95505,1512.94952 1341.805,1517.04004 L1351.8636,1507.13232 L1309.01399,1507.13232 L1309.01399,1502.05273 L1356.28938,1502.05273 L1358.3011,1500.8457 L1360.31281,1502.80713 C1361.65397,1504.5171 1362.32453,1506.04264 1362.32453,1507.38379 L1360.11164,1509.69727 L1343.2132,1519.15234 L1345.82844,1523.0752 L1365.74445,1523.0752 C1368.15853,1523.37695 1369.56672,1524.70132 1369.96906,1527.04834 L1369.96906,1572.16113 L1366.1468,1578.0957 L1362.92805,1578.0957 L1359.30695,1574.92725 C1357.16111,1573.85432 1355.0153,1573.25081 1352.86945,1573.1167 C1353.00357,1571.77555 1353.54002,1570.80323 1354.47883,1570.19971 C1355.9541,1569.39502 1358.09991,1569.57942 1360.91633,1570.75293 L1362.72688,1568.99268 L1362.72688,1553.8042 L1343.41438,1553.8042 L1343.41438,1575.88281 L1338.9886,1578.0957 L1336.17219,1578.0957 L1336.17219,1553.8042 L1316.85969,1553.8042 L1316.85969,1575.88281 L1312.43391,1578.0957 L1309.6175,1578.0957 L1309.6175,1578.0957 Z M1316.85969,1548.67432 L1336.17219,1548.67432 L1336.17219,1541.02979 L1316.85969,1541.02979 L1316.85969,1548.67432 L1316.85969,1548.67432 Z M1343.41438,1548.67432 L1362.72688,1548.67432 L1362.72688,1541.02979 L1343.41438,1541.02979 L1343.41438,1548.67432 L1343.41438,1548.67432 Z M1316.85969,1535.84961 L1336.17219,1535.84961 L1336.17219,1528.20508 L1316.85969,1528.20508 L1316.85969,1535.84961 L1316.85969,1535.84961 Z M1343.41438,1535.84961 L1362.72688,1535.84961 L1362.72688,1528.20508 L1343.41438,1528.20508 L1343.41438,1535.84961 L1343.41438,1535.84961 Z M1296.34016,1535.44727 C1292.58493,1530.485 1287.89097,1525.99221 1282.25813,1521.96875 C1282.25813,1520.6276 1282.79458,1519.75586 1283.8675,1519.35352 C1291.24384,1521.49936 1297.81539,1524.65102 1303.58235,1528.80859 C1303.58235,1530.01563 1302.91178,1531.42382 1301.57063,1533.0332 C1300.22947,1534.64259 1298.486,1535.44727 1296.34016,1535.44727 L1296.34016,1535.44727 L1296.34016,1535.44727 Z M1300.16242,1518.95117 C1296.4072,1513.98891 1291.71323,1509.49611 1286.08039,1505.47266 C1286.08039,1504.1315 1286.61685,1503.25977 1287.68977,1502.85742 C1295.06611,1505.00327 1301.63765,1508.15493 1307.40461,1512.3125 C1307.40461,1513.51954 1306.73404,1514.92773 1305.39289,1516.53711 C1304.05174,1518.14649 1302.30827,1518.95117 1300.16242,1518.95117 L1300.16242,1518.95117 L1300.16242,1518.95117 Z" id="slogan" sketch:type="MSShapeGroup"></path>
        </g>
    </g>
</svg>