<?xml version="1.0" encoding="UTF-8" standalone="no"?>
<svg width="553px" height="124px" viewBox="0 0 553 124" version="1.1" xmlns="http://www.w3.org/2000/svg" xmlns:xlink="http://www.w3.org/1999/xlink" xmlns:sketch="http://www.bohemiancoding.com/sketch/ns">
    <title>solda</title>
    <description>Created with Sketch (http://www.bohemiancoding.com/sketch)</description>
    <defs></defs>
    <g id="Introduction" stroke="none" stroke-width="1" fill="none" fill-rule="evenodd" sketch:type="MSPage">
        <path d="M28.2049524,32.3777778 C28.2049524,27.7277778 32.9645381,23.5944444 39.3106524,23.5944444 C50.0637905,23.5944444 62.9323,33.0666667 64.5188286,33.9277778 C66.1053572,35.1333333 69.2784143,33.5833333 70.512381,31.6888889 L79.5027096,18.4277778 C80.2078334,17.2222222 80.5603953,14.1222222 78.4450238,12.9166667 C73.1565953,9.12777778 59.0541191,0 40.7209,0 C13.5736333,0 0,17.2222222 0,34.2722222 C0,54.9388889 19.0383429,66.4777778 34.1985048,72.3333333 C46.1856095,76.9833333 52.3554429,82.4944444 52.3554429,89.7277778 C52.3554429,95.7555556 47.2432953,100.061111 40.1920572,100.061111 C28.5575143,100.061111 15.8652857,90.9333333 15.1601619,90.5888889 C13.9261952,89.7277778 10.5768571,89.3833333 9.16660953,91.6222222 L0.881404762,105.916667 C-0.528842857,108.327778 0,109.016667 1.76280952,110.738889 C5.81727143,114.7 18.5095,124 41.4260238,124 C67.3393238,124 83.0283286,106.088889 83.0283286,88.35 C83.0283286,64.9277778 61.1694905,54.4222222 47.4195762,49.0833333 C33.493381,43.5722222 28.2049524,38.75 28.2049524,32.3777778 Z M157.354446,0 C122.929076,0 95.5609065,27.7277778 95.5609065,62.1722222 C95.5609065,96.6166667 122.929076,124 157.354446,124 C191.779817,124 219.320113,96.6166667 219.320113,62.1722222 C219.320113,27.7277778 191.779817,0 157.354446,0 Z M313.314448,120.719494 L313.314448,101.899747 C313.314448,100.173165 311.891667,98.6192405 309.935344,98.6192405 L267.607621,98.6192405 L267.607621,6.41974684 C267.607621,4.69316456 266.006993,3.13924051 264.228517,3.13924051 L243.064656,3.13924051 C241.108333,3.13924051 239.685552,4.69316456 239.685552,6.41974684 L239.685552,120.719494 C239.685552,122.446076 241.108333,124 243.064656,124 L309.935344,124 C311.891667,124 313.314448,122.446076 313.314448,120.719494 Z M433.94051,63.396962 C433.94051,30.2465823 406.483329,3.13924051 372.94386,3.13924051 L330.541631,3.13924051 C328.803835,3.13924051 327.413598,4.69316456 327.413598,6.41974684 L327.413598,120.719494 C327.413598,122.446076 328.803835,124 330.541631,124 L372.94386,124 C406.483329,124 433.94051,96.8926582 433.94051,63.396962 Z M405.74221,62.6995468 C405.74221,82.1395843 391.174703,97.3164557 371.099968,97.3164557 L354.045326,97.3164557 L354.045326,28.2531646 L371.099968,28.2531646 C391.174703,28.2531646 405.74221,43.4300359 405.74221,62.6995468 Z M495.896806,0 L494.176849,0 C492.972879,0 491.768909,0.851132109 491.252922,1.87249064 L437.418276,116.434873 C436.386302,118.647816 437.762267,120.860759 440.342202,120.860759 L549.731452,120.860759 C552.311387,120.860759 553.687353,118.647816 552.655379,116.434873 L498.820732,1.87249064 C498.304745,0.851132109 497.100775,0 495.896806,0 Z M513.835694,97.3164557 L471.538244,97.3164557 L492.514853,51.7974684 L492.686969,51.7974684 L513.835694,97.3164557 Z M154.527871,78.178985 C154.527871,78.178985 131.768436,101.801439 138.573038,107.150925 C153.657604,105.030924 188.703592,77.1326342 189.140498,68.1303194 C189.577404,59.1280046 160.635749,51.3166096 160.635749,51.3166096 C160.635749,51.3166096 172.537102,18.3701582 167.080107,19.1370898 C161.623111,19.9040214 121.329022,57.8571451 121.989728,62.558309 C122.650434,67.2594728 154.527871,78.178985 154.527871,78.178985 Z" id="Mask" opacity="0.7" fill="#000000" sketch:type="MSShapeGroup"></path>
    </g>
</svg>