<?xml version="1.0" encoding="UTF-8" standalone="no"?>
<svg width="1188px" height="1010px" viewBox="0 0 1188 1010" version="1.1" xmlns="http://www.w3.org/2000/svg" xmlns:xlink="http://www.w3.org/1999/xlink" xmlns:sketch="http://www.bohemiancoding.com/sketch/ns">
    <title>video-mask</title>
    <description>Created with Sketch (http://www.bohemiancoding.com/sketch)</description>
    <defs></defs>
    <g id="Introduction" stroke="none" stroke-width="1" fill="none" fill-rule="evenodd" sketch:type="MSPage">
        <g id="Export" sketch:type="MSArtboardGroup" transform="translate(-681.000000, -265.000000)" fill="#C01313">
            <path d="M681,1247.99203 C681,1262.90812 693.096322,1275 708.009587,1275 L1841.99041,1275 C1856.9074,1275 1869,1262.9155 1869,1247.99203 L1869,540.007967 C1869,525.091879 1856.90368,513 1841.99041,513 L708.009587,513 C693.092604,513 681,525.084504 681,540.007967 L681,1247.99203 Z M1038.31065,288.594444 C1049.06379,288.594444 1061.9323,298.066667 1063.51883,298.927778 C1065.10536,300.133333 1068.27841,298.583333 1069.51238,296.688889 L1078.50271,283.427778 C1079.20783,282.222222 1079.5604,279.122222 1077.44502,277.916667 C1072.1566,274.127778 1058.05412,265 1039.7209,265 C1012.57363,265 999,282.222222 999,299.272222 C999,319.938889 1018.03834,331.477778 1033.1985,337.333333 C1045.18561,341.983333 1051.35544,347.494444 1051.35544,354.727778 C1051.35544,360.755556 1046.2433,365.061111 1039.19206,365.061111 C1027.55751,365.061111 1014.86529,355.933333 1014.16016,355.588889 C1012.9262,354.727778 1009.57686,354.383333 1008.16661,356.622222 L999.881405,370.916667 C998.471157,373.327778 999,374.016667 1000.76281,375.738889 C1004.81727,379.7 1017.5095,389 1040.42602,389 C1066.33932,389 1082.02833,371.088889 1082.02833,353.35 C1082.02833,329.927778 1060.16949,319.422222 1046.41958,314.083333 C1032.49338,308.572222 1027.20495,303.75 1027.20495,297.377778 C1027.20495,292.727778 1031.96454,288.594444 1038.31065,288.594444 Z M1094.56091,327.172222 C1094.56091,361.616667 1121.92908,389 1156.35445,389 C1190.77982,389 1218.32011,361.616667 1218.32011,327.172222 C1218.32011,292.727778 1190.77982,265 1156.35445,265 C1121.92908,265 1094.56091,292.727778 1094.56091,327.172222 Z M1312.31445,366.899747 C1312.31445,365.173165 1310.89167,363.619241 1308.93534,363.619241 L1266.60762,363.619241 L1266.60762,271.419747 C1266.60762,269.693165 1265.00699,268.139241 1263.22852,268.139241 L1242.06466,268.139241 C1240.10833,268.139241 1238.68555,269.693165 1238.68555,271.419747 L1238.68555,385.719494 C1238.68555,387.446076 1240.10833,389 1242.06466,389 L1308.93534,389 C1310.89167,389 1312.31445,387.446076 1312.31445,385.719494 L1312.31445,366.899747 Z M1371.94386,268.139241 L1329.54163,268.139241 C1327.80383,268.139241 1326.4136,269.693165 1326.4136,271.419747 L1326.4136,385.719494 C1326.4136,387.446076 1327.80383,389 1329.54163,389 L1371.94386,389 C1405.48333,389 1432.94051,361.892658 1432.94051,328.396962 C1432.94051,295.246582 1405.48333,268.139241 1371.94386,268.139241 Z M1370.09997,362.316456 L1353.04533,362.316456 L1353.04533,293.253165 L1370.09997,293.253165 C1390.1747,293.253165 1404.74221,308.430036 1404.74221,327.699547 C1404.74221,347.139584 1390.1747,362.316456 1370.09997,362.316456 Z M1493.17685,265 C1491.97288,265 1490.76891,265.851132 1490.25292,266.872491 L1436.41828,381.434873 C1435.3863,383.647816 1436.76227,385.860759 1439.3422,385.860759 L1548.73145,385.860759 C1551.31139,385.860759 1552.68735,383.647816 1551.65538,381.434873 L1497.82073,266.872491 C1497.30475,265.851132 1496.10078,265 1494.89681,265 L1493.17685,265 Z M1472.53824,361.316456 L1493.51485,316.797468 L1493.68697,316.797468 L1514.83569,361.316456 L1472.53824,361.316456 Z M1137.57304,372.150925 C1152.6576,370.030924 1187.70359,342.132634 1188.1405,333.130319 C1188.5774,324.128005 1159.63575,316.31661 1159.63575,316.31661 C1159.63575,316.31661 1171.5371,283.370158 1166.08011,284.13709 C1160.62311,284.904021 1120.32902,322.857145 1120.98973,327.558309 C1121.65043,332.259473 1153.52787,343.178985 1153.52787,343.178985 C1153.52787,343.178985 1130.76844,366.801439 1137.57304,372.150925 Z" id="video-mask" sketch:type="MSShapeGroup"></path>
        </g>
    </g>
</svg>