<?xml version="1.0" encoding="UTF-8" standalone="no"?>
<svg width="90px" height="90px" viewBox="0 0 90 90" version="1.1" xmlns="http://www.w3.org/2000/svg" xmlns:xlink="http://www.w3.org/1999/xlink" xmlns:sketch="http://www.bohemiancoding.com/sketch/ns">
    <title>good</title>
    <description>Created with Sketch (http://www.bohemiancoding.com/sketch)</description>
    <defs></defs>
    <g id="Web" stroke="none" stroke-width="1" fill="none" fill-rule="evenodd" sketch:type="MSPage">
        <g id="Product-Detail--Portrait" sketch:type="MSArtboardGroup" transform="translate(-830.000000, -2562.000000)">
            <g id="Group-+-Good-+-23" sketch:type="MSLayerGroup" transform="translate(830.000000, 2562.000000)">
                <g id="good" sketch:type="MSShapeGroup">
                    <rect id="Rectangle-28" fill="#FFF48F" x="0" y="0" width="90" height="90" rx="60"></rect>
                    <path d="M24.75,39 C28.0637087,39 30.75,36.3137087 30.75,33 C30.75,29.6862913 28.0637087,27 24.75,27 C21.4362913,27 18.75,29.6862913 18.75,33 C18.75,36.3137087 21.4362913,39 24.75,39 Z" id="Oval-20" fill="#3A3939"></path>
                    <path d="M63,36.75 C66.3137087,36.75 69,34.0637087 69,30.75 C69,27.4362913 66.3137087,24.75 63,24.75 C59.6862913,24.75 57,27.4362913 57,30.75 C57,34.0637087 59.6862913,36.75 63,36.75 Z" id="Oval-20" fill="#3A3939"></path>
                    <path d="M27.0483398,60.8671875 L63.1757812,61.3256836 C63.1757812,61.3256836 63.5610345,70.7944336 58.855224,73.6853027 C54.1494135,76.5761719 38.7919923,77.7524414 32.8315431,74.7092285 C26.8710947,71.6660153 27.0483398,60.8671875 27.0483398,60.8671875 Z" id="Path-27" fill="#EC474D"></path>
                </g>
            </g>
        </g>
    </g>
</svg>