<?xml version="1.0" encoding="UTF-8" standalone="no"?>
<svg width="119px" height="119px" viewBox="0 0 119 119" version="1.1" xmlns="http://www.w3.org/2000/svg" xmlns:xlink="http://www.w3.org/1999/xlink" xmlns:sketch="http://www.bohemiancoding.com/sketch/ns">
    <title>cross@2x</title>
    <description>Created with Sketch (http://www.bohemiancoding.com/sketch)</description>
    <defs></defs>
    <g id="Introduction" stroke="none" stroke-width="1" fill="none" fill-rule="evenodd" sketch:type="MSPage">
        <g id="iPad" sketch:type="MSArtboardGroup" transform="translate(-1339.000000, -1972.000000)" fill="#F2EBE0">
            <path d="M1345.83044,2089.83235 C1344.27497,2091.38782 1341.73699,2091.39048 1340.17326,2089.82674 C1338.6127,2088.26619 1338.60701,2085.7302 1340.16765,2084.16956 L1392.83721,2031.5 L1340.16765,1978.83044 C1338.61218,1977.27497 1338.60952,1974.73699 1340.17326,1973.17326 C1341.73381,1971.6127 1344.2698,1971.60701 1345.83044,1973.16765 L1398.5,2025.83721 L1451.16956,1973.16765 C1452.72503,1971.61218 1455.26301,1971.60952 1456.82674,1973.17326 C1458.3873,1974.73381 1458.39299,1977.2698 1456.83235,1978.83044 L1404.16279,2031.5 L1456.83235,2084.16956 C1458.38782,2085.72503 1458.39048,2088.26301 1456.82674,2089.82674 C1455.26619,2091.3873 1452.7302,2091.39299 1451.16956,2089.83235 L1398.5,2037.16279 L1345.83044,2089.83235 Z" id="Rectangle-74" sketch:type="MSShapeGroup"></path>
        </g>
    </g>
</svg>