<?xml version="1.0" encoding="UTF-8" standalone="no"?>
<svg width="130px" height="124px" viewBox="0 0 130 124" version="1.1" xmlns="http://www.w3.org/2000/svg" xmlns:xlink="http://www.w3.org/1999/xlink" xmlns:sketch="http://www.bohemiancoding.com/sketch/ns">
    <title>rating</title>
    <description>Created with Sketch (http://www.bohemiancoding.com/sketch)</description>
    <defs></defs>
    <g id="Introduction" stroke="none" stroke-width="1" fill="none" fill-rule="evenodd" sketch:type="MSPage">
        <g id="iPad" sketch:type="MSArtboardGroup" transform="translate(-672.000000, -6513.000000)" fill="#7ED3E4">
            <path d="M727.275862,6525.82143 L730.862069,6525.82143 L730.862069,6515 L727.275862,6515 L727.275862,6525.82143 Z M712.313034,6534.28813 L714.618203,6531.5249 L706.376621,6524.56902 L704.071452,6527.33225 L712.313034,6534.28813 Z M705.758621,6549.26786 L705.758621,6545.66071 L695,6545.66071 L695,6549.26786 L705.758621,6549.26786 Z M755.068966,6615.09821 C778.837896,6615.09821 798.103448,6595.72182 798.103448,6571.8125 C798.103448,6547.90481 778.839512,6528.52679 755.068966,6528.52679 C731.300035,6528.52679 712.034483,6547.90318 712.034483,6571.8125 C712.034483,6595.72019 731.298419,6615.09821 755.068966,6615.09821 Z M755.068966,6609.6875 C734.269431,6609.6875 717.413793,6592.73204 717.413793,6571.8125 C717.413793,6550.89154 734.270845,6533.9375 755.068966,6533.9375 C775.8685,6533.9375 792.724138,6550.89296 792.724138,6571.8125 C792.724138,6592.73346 775.867086,6609.6875 755.068966,6609.6875 Z M769.294199,6576.61503 L766.348386,6576.61503 L731.660328,6576.61503 L728.714515,6576.61503 L728.714515,6579.44922 C728.714515,6589.91816 735.925741,6596.18656 749.004357,6596.18655 C761.974422,6596.18655 769.2942,6589.72919 769.294199,6579.44922 L769.294199,6576.61503 Z M749.004357,6593.35237 C759.696584,6593.35237 764.975978,6588.77837 766.111598,6582.2834 C766.111598,6582.2834 766.348386,6580.3567 766.348386,6579.44922 L731.660328,6579.44922 C731.660328,6580.36536 731.723903,6581.24949 731.853628,6582.09743 L731.883239,6582.2834 C732.989159,6588.96608 738.267909,6593.35237 749.004357,6593.35237 Z M740.307137,6560.55074 C740.307137,6557.354 737.73071,6554.76253 734.552526,6554.76253 C731.374342,6554.76253 728.797915,6557.354 728.797915,6560.55074 C728.797915,6563.74747 731.374342,6566.33894 734.552526,6566.33894 C737.73071,6566.33894 740.307137,6563.74747 740.307137,6560.55074 Z M764.701684,6560.55074 C764.701684,6557.354 762.125257,6554.76253 758.947073,6554.76253 C755.768889,6554.76253 753.192462,6557.354 753.192462,6560.55074 C753.192462,6563.74747 755.768889,6566.33894 758.947073,6566.33894 C762.125257,6566.33894 764.701684,6563.74747 764.701684,6560.55074 Z" id="Oval-20" sketch:type="MSShapeGroup"></path>
        </g>
    </g>
</svg>