<?xml version="1.0" encoding="UTF-8" standalone="no"?>
<svg width="230px" height="230px" viewBox="0 0 230 230" version="1.1" xmlns="http://www.w3.org/2000/svg" xmlns:xlink="http://www.w3.org/1999/xlink" xmlns:sketch="http://www.bohemiancoding.com/sketch/ns">
    <!-- Generator: Sketch 3.0.3 (7891) - http://www.bohemiancoding.com/sketch -->
    <title>play</title>
    <desc>Created with Sketch.</desc>
    <defs></defs>
    <g id="Introduction" stroke="none" stroke-width="1" fill="none" fill-rule="evenodd" sketch:type="MSPage">
        <g id="Export" sketch:type="MSArtboardGroup" transform="translate(-1173.000000, -2287.000000)">
            <g id="play" sketch:type="MSLayerGroup" transform="translate(1178.000000, 2292.000000)">
                <path d="M0,110 C0,170.751325 49.2486745,220 110,220 C170.751325,220 220,170.751325 220,110 C220,49.2486745 170.751325,0 110,0 C49.2486745,0 0,49.2486745 0,110 L0,110 Z" id="Path-2" stroke="#FFFFFF" stroke-width="5" fill-opacity="0.455417799" fill="#000000" sketch:type="MSShapeGroup"></path>
                <path d="M84.4332386,65.09125 C82.3806818,66.425 80.9318182,68.6075 80.8110795,71.0325 C80.6903409,71.76 79,91.4025 79,112.5 C79,133.5975 80.6903409,153.24 80.8110795,154.08875 C80.9318182,156.51375 82.3806818,158.69625 84.4332386,159.90875 C85.640625,160.63625 87.0894886,161 88.4176136,161 C89.5042614,161 90.4701705,160.7575 91.4360795,160.39375 C130.31392,144.51 160.136364,119.29 161.34375,118.32 C163.034091,116.865 164,114.6825 164,112.5 C164,110.3175 163.034091,108.135 161.34375,106.80125 C160.136364,105.71 130.31392,80.49 91.4360795,64.60625 C90.4701705,64.2425 89.3835227,64 88.4176136,64 C86.96875,64 85.640625,64.36375 84.4332386,65.09125 L84.4332386,65.09125 Z" id="Path" fill="#FFFFFF" sketch:type="MSShapeGroup"></path>
            </g>
        </g>
    </g>
</svg>