<?xml version="1.0" encoding="UTF-8" standalone="no"?>
<svg width="130px" height="124px" viewBox="0 0 130 124" version="1.1" xmlns="http://www.w3.org/2000/svg" xmlns:xlink="http://www.w3.org/1999/xlink" xmlns:sketch="http://www.bohemiancoding.com/sketch/ns">
    <title>shipping</title>
    <description>Created with Sketch (http://www.bohemiancoding.com/sketch)</description>
    <defs></defs>
    <g id="Introduction" stroke="none" stroke-width="1" fill="none" fill-rule="evenodd" sketch:type="MSPage">
        <g id="iPad" sketch:type="MSArtboardGroup" transform="translate(-672.000000, -6266.000000)" fill="#7ED3E4">
            <path d="M795,6310.5 C795,6285.92413 775.075867,6266 750.5,6266 C725.924133,6266 706,6285.92413 706,6310.5 C706,6335.07587 725.924133,6355 750.5,6355 C775.075867,6355 795,6335.07587 795,6310.5 L795,6310.5 Z M711.933333,6310.5 C711.933333,6289.19933 729.199333,6271.93333 750.5,6271.93333 C771.800667,6271.93333 789.066667,6289.19933 789.066667,6310.5 C789.066667,6331.80067 771.800667,6349.06667 750.5,6349.06667 C729.199333,6349.06667 711.933333,6331.79869 711.933333,6310.5 L711.933333,6310.5 Z M782.144444,6310.5 C782.144444,6293.02238 767.977622,6278.85556 750.5,6278.85556 C733.022378,6278.85556 718.855556,6293.02238 718.855556,6310.5 C718.855556,6327.97762 733.022378,6342.14444 750.5,6342.14444 C767.977622,6342.14444 782.144444,6327.97564 782.144444,6310.5 L782.144444,6310.5 Z M722.811111,6310.5 C722.811111,6295.20782 735.207822,6282.81111 750.5,6282.81111 C765.792178,6282.81111 778.188889,6295.20782 778.188889,6310.5 C778.188889,6325.79218 765.792178,6338.18889 750.5,6338.18889 C735.207822,6338.18889 722.811111,6325.79218 722.811111,6310.5 L722.811111,6310.5 Z M745.794867,6304.8218 L751.138822,6297.85409 L756.803178,6304.70313 L757.5844,6305.64851 L758.341889,6304.68336 L763.808467,6297.78487 L769.282956,6304.68731 L770.831556,6303.45911 L764.556067,6295.548 L763.780778,6294.56702 L763.007467,6295.55196 L757.544844,6302.49593 L751.842911,6295.6014 L751.047844,6294.6402 L750.292333,6295.63304 L745.009689,6302.62844 L739.541133,6295.69831 L738.773756,6294.72524 L737.996489,6295.6904 L731.711111,6303.49076 L733.2518,6304.73082 L738.757933,6297.89562 L744.232422,6304.83367 L745.023533,6305.8364 L745.794867,6304.8218 L745.794867,6304.8218 Z M745.794867,6314.71069 L751.138822,6307.74298 L756.803178,6314.59202 L757.5844,6315.5374 L758.341889,6314.57224 L763.808467,6307.67376 L769.282956,6314.5762 L770.831556,6313.348 L764.556067,6305.43689 L763.780778,6304.45591 L763.007467,6305.44084 L757.544844,6312.38482 L751.842911,6305.49029 L751.047844,6304.52909 L750.292333,6305.52193 L745.009689,6312.51733 L739.541133,6305.5872 L738.773756,6304.61413 L737.996489,6305.57929 L731.711111,6313.37964 L733.2518,6314.61971 L738.757933,6307.78451 L744.232422,6314.72256 L745.023533,6315.72529 L745.794867,6314.71069 L745.794867,6314.71069 Z M745.794867,6324.59958 L751.138822,6317.63187 L756.803178,6324.48091 L757.5844,6325.42629 L758.341889,6324.46113 L763.808467,6317.56264 L769.282956,6324.46509 L770.831556,6323.23689 L764.556067,6315.32578 L763.780778,6314.3448 L763.007467,6315.32973 L757.544844,6322.27371 L751.842911,6315.37918 L751.047844,6314.41798 L750.292333,6315.41082 L745.009689,6322.40622 L739.541133,6315.47609 L738.773756,6314.50302 L737.996489,6315.46818 L731.711111,6323.26853 L733.2518,6324.5086 L738.757933,6317.6734 L744.232422,6324.61144 L745.023533,6325.61418 L745.794867,6324.59958 L745.794867,6324.59958 Z" id="shipping" sketch:type="MSShapeGroup"></path>
        </g>
    </g>
</svg>