<?xml version="1.0" encoding="UTF-8" standalone="no"?>
<svg width="370px" height="85px" viewBox="0 0 370 85" version="1.1" xmlns="http://www.w3.org/2000/svg" xmlns:xlink="http://www.w3.org/1999/xlink" xmlns:sketch="http://www.bohemiancoding.com/sketch/ns">
    <title>ss</title>
    <description>Created with Sketch (http://www.bohemiancoding.com/sketch)</description>
    <defs>
        <linearGradient x1="50%" y1="0%" x2="50%" y2="100%" id="linearGradient-1">
            <stop stop-color="#FFFFFF" stop-opacity="0.3" offset="0%"></stop>
            <stop stop-color="#000000" stop-opacity="0.1" offset="100%"></stop>
        </linearGradient>
        <path id="path-2" d="M58.8756015,0 L26.245737,0 C16.996936,0 11.133341,0.0357760877 5.59094315,5.56986371 C0.0350789933,11.1177305 0,17.0010293 0,26.2083499 L0,58.7917331 C0,68.0277742 0.0363258769,73.8835146 5.57780931,79.4171042 C11.1364997,84.9677932 17.0256975,85 26.245737,85 L58.8756015,85 C68.1248181,85 73.9871663,84.965469 79.5303953,79.4301363 C85.0851788,73.8831826 85.1212553,67.9985557 85.1212553,58.7916501 L85.1212553,26.2083499 C85.1212553,16.9726408 85.0856776,11.1172325 79.543446,5.58297884 C73.9852544,0.0325388083 68.095641,0 58.8756015,0 L58.8756015,0 Z"></path>
        <path id="path-3" d="M58.8756015,0 L26.245737,0 C16.996936,0 11.133341,0.0357760877 5.59094315,5.56986371 C0.0350789933,11.1177305 0,17.0010293 0,26.2083499 L0,58.7917331 C0,68.0277742 0.0363258769,73.8835146 5.57780931,79.4171042 C11.1364997,84.9677932 17.0256975,85 26.245737,85 L58.8756015,85 C68.1248181,85 73.9871663,84.965469 79.5303953,79.4301363 C85.0851788,73.8831826 85.1212553,67.9985557 85.1212553,58.7916501 L85.1212553,26.2083499 C85.1212553,16.9726408 85.0856776,11.1172325 79.543446,5.58297884 C73.9852544,0.0325388083 68.095641,0 58.8756015,0 L58.8756015,0 Z"></path>
        <path id="path-4" d="M58.8756015,0 L26.245737,0 C16.996936,0 11.133341,0.0357760877 5.59094315,5.56986371 C0.0350789933,11.1177305 0,17.0010293 0,26.2083499 L0,58.7917331 C0,68.0277742 0.0363258769,73.8835146 5.57780931,79.4171042 C11.1364997,84.9677932 17.0256975,85 26.245737,85 L58.8756015,85 C68.1248181,85 73.9871663,84.965469 79.5303953,79.4301363 C85.0851788,73.8831826 85.1212553,67.9985557 85.1212553,58.7916501 L85.1212553,26.2083499 C85.1212553,16.9726408 85.0856776,11.1172325 79.543446,5.58297884 C73.9852544,0.0325388083 68.095641,0 58.8756015,0 L58.8756015,0 Z"></path>
    </defs>
    <g id="Introduction" stroke="none" stroke-width="1" fill="none" fill-rule="evenodd" sketch:type="MSPage">
        <g id="iPad" sketch:type="MSArtboardGroup" transform="translate(-1228.000000, -4350.000000)">
            <g id="Rectangle-118-+-Imported-Layers-+-Rectangle-118-+-Fill-2-+-Fill-1-+-Fill-2" sketch:type="MSLayerGroup" transform="translate(1228.000000, 4350.000000)">
                <g id="Rectangle-118-+-Imported-Layers">
                    <g id="512---iTunesArtwork">
                        <use fill="#1DB2EB" fill-rule="evenodd" sketch:type="MSShapeGroup" xlink:href="#path-2"></use>
                        <use fill="none" xlink:href="#path-2"></use>
                        <use fill="url(#linearGradient-1)" fill-rule="evenodd" xlink:href="#path-2"></use>
                    </g>
                    <path d="M54.5796746,20 C47.9417596,20 42.5604134,25.2072751 42.5604134,31.6300579 C42.5604134,32.541585 42.6666989,33.4290591 42.8715556,34.2804537 C32.8826474,33.7954532 24.0264511,29.1652437 18.0982489,22.1286937 C17.0636796,23.8466197 16.4711808,25.8442658 16.4711808,27.9758625 C16.4711808,32.010552 18.5930336,35.5706088 21.818027,37.656173 C19.8478882,37.595833 17.9945348,37.0726795 16.3741095,36.2013789 C16.3732524,36.2501071 16.3730381,36.2986279 16.3730381,36.3477707 C16.3730381,41.9828166 20.5160297,46.6835264 26.0143756,47.751813 C25.0057348,48.0174332 23.9439513,48.1596778 22.8478821,48.1596778 C22.0732408,48.1596778 21.3202423,48.0866893 20.5865295,47.95108 C22.1158836,52.5715439 26.5545888,55.9341998 31.8140067,56.0281311 C27.7005865,59.1473538 22.518097,61.006695 16.8871085,61.006695 C15.917039,61.006695 14.9602553,60.9515389 14.0199715,60.844337 C19.3389606,64.1441648 25.6567335,66.0694444 32.4442197,66.0694444 C54.5518176,66.0694444 66.6409358,48.3475403 66.6409358,32.9784794 C66.6409358,32.4744024 66.6291501,31.9728137 66.6062216,31.4741279 C68.9543597,29.8341669 70.9919984,27.7857191 72.6034237,25.453404 C70.4479281,26.3784091 68.1317185,27.0037881 65.7002234,27.2847524 C68.1818612,25.8455099 70.0877145,23.5662774 70.984927,20.8503578 C68.6627174,22.1832278 66.0904369,23.1511551 63.3527282,23.6728572 C61.1603755,21.4122865 58.0365248,20 54.5796746,20" id="Imported-Layers" fill="#FFFFFF" sketch:type="MSShapeGroup"></path>
                </g>
                <g id="Rectangle-118-+-Fill-2" transform="translate(283.939372, 0.000000)">
                    <g id="512---iTunesArtwork">
                        <use fill="#1DC121" sketch:type="MSShapeGroup" xlink:href="#path-3"></use>
                        <use fill="url(#linearGradient-1)" xlink:href="#path-3"></use>
                    </g>
                    <path d="M74.200699,38.662 C74.200699,24.782 60.2648474,13.489 43.1364479,13.489 C26.0085492,13.489 12.0721969,24.782 12.0721969,38.662 C12.0721969,51.105 23.1239401,61.5275 38.0522054,63.499 C39.0631455,63.7165 40.440107,64.166 40.7886034,65.029 C41.1020499,65.8125 40.9938959,67.0405 40.8887461,67.833 C40.8887461,67.833 40.525729,70.022 40.4456148,70.489 C40.310923,71.273 39.8212254,73.5555 43.1364479,72.161 C46.4521712,70.7665 61.0254308,61.6415 67.5427147,54.15 L67.5412126,54.15 C72.0436262,49.221 74.200699,44.2175 74.200699,38.662 L74.200699,38.662 Z M30.9761255,46.9205 L24.8043338,46.9205 C23.9065549,46.9205 23.1755136,46.191 23.1755136,45.293 L23.1755136,32.967 C23.1755136,32.07 23.9065549,31.34 24.8043338,31.34 C25.7026134,31.34 26.4326534,32.07 26.4326534,32.967 L26.4326534,43.6665 L30.9761255,43.6665 C31.8754066,43.6665 32.6049458,44.3965 32.6049458,45.293 C32.6049458,46.191 31.8754066,46.9205 30.9761255,46.9205 L30.9761255,46.9205 Z M37.3602197,45.293 C37.3602197,46.191 36.629679,46.9205 35.7324009,46.9205 C34.834622,46.9205 34.1040813,46.191 34.1040813,45.293 L34.1040813,32.967 C34.1040813,32.07 34.834622,31.34 35.7324009,31.34 C36.629679,31.34 37.3602197,32.07 37.3602197,32.967 L37.3602197,45.293 L37.3602197,45.293 Z M52.2183852,45.293 C52.2183852,45.9955 51.7717489,46.6155 51.1052996,46.836 C50.9370599,46.8925 50.7628117,46.9205 50.5875621,46.9205 C50.0798388,46.9205 49.5931455,46.6775 49.2862083,46.2695 L42.9606976,37.6675 L42.9606976,45.293 C42.9606976,46.191 42.2306576,46.9205 41.3318773,46.9205 C40.4335977,46.9205 39.7025563,46.191 39.7025563,45.293 L39.7025563,32.967 C39.7025563,32.266 40.150194,31.646 40.8161427,31.424 C40.9838816,31.3675 41.1581298,31.34 41.3333795,31.34 C41.8411027,31.34 42.3287974,31.5825 42.6337318,31.9905 L48.9612454,40.593 L48.9612454,32.967 C48.9612454,32.07 49.6927874,31.34 50.5900656,31.34 C51.4888459,31.34 52.2183852,32.07 52.2183852,32.967 L52.2183852,45.293 L52.2183852,45.293 Z M62.205612,37.5035 C63.104893,37.5035 63.834933,38.233 63.834933,39.1305 C63.834933,40.027 63.104893,40.7565 62.205612,40.7565 L57.6636419,40.7565 L57.6636419,43.6665 L62.205612,43.6665 C63.1033909,43.6665 63.834933,44.3965 63.834933,45.293 C63.834933,46.191 63.1033909,46.9205 62.205612,46.9205 L56.0333195,46.9205 C55.1365421,46.9205 54.4044993,46.191 54.4044993,45.293 L54.4044993,39.1345 L54.4044993,39.1305 L54.4044993,32.967 C54.4044993,32.07 55.1350399,31.34 56.0333195,31.34 L62.205612,31.34 C63.104893,31.34 63.834933,32.07 63.834933,32.967 C63.834933,33.864 63.104893,34.5935 62.205612,34.5935 L57.6636419,34.5935 L57.6636419,37.5035 L62.205612,37.5035 L62.205612,37.5035 Z" id="Fill-2" fill="#FFFFFF" sketch:type="MSShapeGroup"></path>
                </g>
                <g id="Fill-1-+-Fill-2" transform="translate(140.000000, 0.000000)">
                    <g id="512---iTunesArtwork">
                        <use fill="#3D5B98" sketch:type="MSShapeGroup" xlink:href="#path-4"></use>
                        <use fill="url(#linearGradient-1)" xlink:href="#path-4"></use>
                    </g>
                    <path d="M59.1339864,85 L59.1339864,51.77875 L70.3012156,51.77875 L71.9727753,38.8316071 L59.1339864,38.8316071 L59.1339864,30.5654286 C59.1339864,26.8169286 60.1762569,24.2625357 65.5594967,24.2625357 L72.4253486,24.2593214 L72.4253486,12.6795357 C71.2372633,12.5220357 67.1621726,12.1694286 62.4204537,12.1694286 C52.5217816,12.1694286 45.7447706,18.2029643 45.7447706,29.2835714 L45.7447706,38.8316071 L34.5492154,38.8316071 L34.5492154,51.77875 L45.7447706,51.77875 L45.7447706,85 L59.1339864,85" id="Fill-2" fill="#FFFFFF" sketch:type="MSShapeGroup"></path>
                </g>
            </g>
        </g>
    </g>
</svg>