<?xml version="1.0" encoding="UTF-8" standalone="no"?>
<svg width="130px" height="124px" viewBox="0 0 130 124" version="1.1" xmlns="http://www.w3.org/2000/svg" xmlns:xlink="http://www.w3.org/1999/xlink" xmlns:sketch="http://www.bohemiancoding.com/sketch/ns">
    <title>tags</title>
    <description>Created with Sketch (http://www.bohemiancoding.com/sketch)</description>
    <defs></defs>
    <g id="Introduction" stroke="none" stroke-width="1" fill="none" fill-rule="evenodd" sketch:type="MSPage">
        <g id="iPad" sketch:type="MSArtboardGroup" transform="translate(-672.000000, -6010.000000)" fill="#7ED3E4">
            <path d="M761.993115,6087.4137 C764.930724,6090.38586 769.696824,6090.38253 772.631726,6087.41311 L797.913553,6061.83387 C800.851486,6058.86138 800.85191,6054.04244 797.914139,6051.07011 L765.320212,6018.09277 C755.766235,6008.4264 740.282147,6008.42036 730.731444,6018.08341 L729.389945,6019.44069 C719.841072,6029.10189 719.849861,6044.77469 729.399188,6054.43635 L761.993115,6087.4137 Z M761.328987,6022.13094 L793.922914,6055.10829 C794.656219,6055.85022 794.656141,6057.05325 793.922328,6057.7957 L768.640501,6083.37493 C767.908395,6084.11565 766.716159,6084.11595 765.98434,6083.37552 L733.390413,6050.39817 C726.04313,6042.96446 726.038839,6030.90757 733.381169,6023.47887 L734.722669,6022.12159 C742.067904,6014.68995 753.978128,6014.69361 761.328987,6022.13094 Z M738.893478,6034.54977 C738.893478,6039.04812 742.478081,6042.70394 746.91122,6042.70394 C751.344359,6042.70394 754.928963,6039.04812 754.928963,6034.54977 C754.928963,6030.05143 751.344359,6026.39561 746.91122,6026.39561 C742.478081,6026.39561 738.893478,6030.05143 738.893478,6034.54977 Z M741.7157,6034.54977 C741.7157,6037.47619 744.041813,6039.84851 746.91122,6039.84851 C749.780627,6039.84851 752.106741,6037.47619 752.106741,6034.54977 C752.106741,6031.62336 749.780627,6029.25103 746.91122,6029.25103 C744.041813,6029.25103 741.7157,6031.62336 741.7157,6034.54977 Z M710.025951,6029.97346 C704.320334,6029.97346 699.452573,6034.88306 699.452573,6041.39525 L699.452573,6062.29007 C699.452573,6062.43188 699.452735,6062.54894 699.453216,6062.81391 C699.458412,6065.69743 699.399327,6067.18555 699.12687,6068.93758 C698.227042,6074.72392 695.346116,6077.7427 688.74837,6077.74269 C683.597022,6077.74269 680.329497,6076.03832 678.412479,6073.1326 C677.118063,6071.17059 676.562241,6068.81555 676.562241,6067.01322 C676.562241,6065.96189 675.719873,6065.10961 674.68076,6065.10961 C673.641646,6065.10961 672.799278,6065.96189 672.799278,6067.01322 C672.799278,6069.5081 673.524649,6072.58152 675.282709,6075.2463 C677.909973,6079.22857 682.360327,6081.54992 688.748369,6081.54992 C697.367922,6081.54993 701.676947,6077.03472 702.844104,6069.52932 C703.156892,6067.51794 703.221719,6065.88519 703.216173,6062.80696 C703.215694,6062.54299 703.215536,6062.42873 703.215536,6062.29007 L703.215536,6041.39525 C703.215536,6036.98841 706.395923,6033.78069 710.025951,6033.78069 L712.11881,6033.78069 L714.986875,6033.78069 C716.025988,6033.78069 716.868356,6032.92841 716.868356,6031.87707 C716.868356,6030.82573 716.025988,6029.97346 714.986875,6029.97346 L712.11881,6029.97346 L710.025951,6029.97346 Z" id="Rectangle-122" sketch:type="MSShapeGroup"></path>
        </g>
    </g>
</svg>