<?xml version="1.0" encoding="UTF-8" standalone="no"?>
<svg width="1188px" height="1010px" viewBox="0 0 1188 1010" version="1.1" xmlns="http://www.w3.org/2000/svg" xmlns:xlink="http://www.w3.org/1999/xlink" xmlns:sketch="http://www.bohemiancoding.com/sketch/ns">
    <!-- Generator: Sketch 3.0.3 (7891) - http://www.bohemiancoding.com/sketch -->
    <title>video-mask 2</title>
    <desc>Created with Sketch.</desc>
    <defs>
        <path d="M0,982.992033 C0,997.908121 12.096322,1010 27.0095866,1010 L1160.99041,1010 C1175.9074,1010 1188,997.915496 1188,982.992033 L1188,275.007967 C1188,260.091879 1175.90368,248 1160.99041,248 L27.0095866,248 C12.0926038,248 0,260.084504 0,275.007967 L0,982.992033 L0,982.992033 Z M357.310652,23.5944444 C368.063791,23.5944444 380.9323,33.0666667 382.518829,33.9277778 C384.105357,35.1333333 387.278414,33.5833333 388.512381,31.6888889 L397.50271,18.4277778 C398.207833,17.2222222 398.560395,14.1222222 396.445024,12.9166667 C391.156595,9.12777778 377.054119,0 358.7209,0 C331.573633,0 318,17.2222222 318,34.2722222 C318,54.9388889 337.038343,66.4777778 352.198505,72.3333333 C364.18561,76.9833333 370.355443,82.4944444 370.355443,89.7277778 C370.355443,95.7555556 365.243295,100.061111 358.192057,100.061111 C346.557514,100.061111 333.865286,90.9333333 333.160162,90.5888889 C331.926195,89.7277778 328.576857,89.3833333 327.16661,91.6222222 L318.881405,105.916667 C317.471157,108.327778 318,109.016667 319.76281,110.738889 C323.817271,114.7 336.5095,124 359.426024,124 C385.339324,124 401.028329,106.088889 401.028329,88.35 C401.028329,64.9277778 379.169491,54.4222222 365.419576,49.0833333 C351.493381,43.5722222 346.204952,38.75 346.204952,32.3777778 C346.204952,27.7277778 350.964538,23.5944444 357.310652,23.5944444 L357.310652,23.5944444 Z M413.560907,62.1722222 C413.560907,96.6166667 440.929076,124 475.354446,124 C509.779817,124 537.320113,96.6166667 537.320113,62.1722222 C537.320113,27.7277778 509.779817,0 475.354446,0 C440.929076,0 413.560907,27.7277778 413.560907,62.1722222 L413.560907,62.1722222 Z M631.314448,101.899747 C631.314448,100.173165 629.891667,98.6192405 627.935344,98.6192405 L585.607621,98.6192405 L585.607621,6.41974684 C585.607621,4.69316456 584.006993,3.13924051 582.228517,3.13924051 L561.064656,3.13924051 C559.108333,3.13924051 557.685552,4.69316456 557.685552,6.41974684 L557.685552,120.719494 C557.685552,122.446076 559.108333,124 561.064656,124 L627.935344,124 C629.891667,124 631.314448,122.446076 631.314448,120.719494 L631.314448,101.899747 L631.314448,101.899747 Z M690.94386,3.13924051 L648.541631,3.13924051 C646.803835,3.13924051 645.413598,4.69316456 645.413598,6.41974684 L645.413598,120.719494 C645.413598,122.446076 646.803835,124 648.541631,124 L690.94386,124 C724.483329,124 751.94051,96.8926582 751.94051,63.396962 C751.94051,30.2465823 724.483329,3.13924051 690.94386,3.13924051 L690.94386,3.13924051 Z M689.099968,97.3164557 L672.045326,97.3164557 L672.045326,28.2531646 L689.099968,28.2531646 C709.174703,28.2531646 723.74221,43.4300359 723.74221,62.6995468 C723.74221,82.1395843 709.174703,97.3164557 689.099968,97.3164557 L689.099968,97.3164557 Z M812.176849,0 C810.972879,0 809.768909,0.851132109 809.252922,1.87249064 L755.418276,116.434873 C754.386302,118.647816 755.762267,120.860759 758.342202,120.860759 L867.731452,120.860759 C870.311387,120.860759 871.687353,118.647816 870.655379,116.434873 L816.820732,1.87249064 C816.304745,0.851132109 815.100775,0 813.896806,0 L812.176849,0 L812.176849,0 Z M791.538244,96.3164557 L812.514853,51.7974684 L812.686969,51.7974684 L833.835694,96.3164557 L791.538244,96.3164557 L791.538244,96.3164557 Z M456.573038,107.150925 C471.657604,105.030924 506.703592,77.1326342 507.140498,68.1303194 C507.577404,59.1280046 478.635749,51.3166096 478.635749,51.3166096 C478.635749,51.3166096 490.537102,18.3701582 485.080107,19.1370898 C479.623111,19.9040214 439.329022,57.8571451 439.989728,62.558309 C440.650434,67.2594728 472.527871,78.178985 472.527871,78.178985 C472.527871,78.178985 449.768436,101.801439 456.573038,107.150925 L456.573038,107.150925 Z" id="path-1"></path>
    </defs>
    <g id="Introduction" stroke="none" stroke-width="1" fill="none" fill-rule="evenodd" sketch:type="MSPage">
        <g id="Export" sketch:type="MSArtboardGroup" transform="translate(-697.000000, -1894.000000)">
            <g id="yusha1-+-video-mask-2" sketch:type="MSLayerGroup" transform="translate(697.000000, 1894.000000)">
                <mask id="mask-2" sketch:name="video-mask 2" fill="white">
                    <use xlink:href="#path-1"></use>
                </mask>
                <use id="video-mask-2" fill="#FFFFFF" sketch:type="MSShapeGroup" xlink:href="#path-1"></use>
            </g>
        </g>
    </g>
</svg>